<svg width="81" height="81" viewBox="0 0 81 81" xmlns="http://www.w3.org/2000/svg"><title>Brickson-Brandmark</title><path d="M40.5 0C18.144 0 0 18.144 0 40.5S18.144 81 40.5 81 81 62.856 81 40.5 62.802 0 40.5 0zm-5.13 63.882c-1.458-.702-5.022-2.052-6.264-2.646v-8.964c.918-.108 1.998-.432 3.186-.918a53.156 53.156 0 0 0 3.618-1.62 67.844 67.844 0 0 0 3.456-1.782c1.08-.594 1.944-1.134 2.538-1.458h4.644c1.35 0 2.646.27 3.888.756 1.242.54 2.322 1.242 3.24 2.16a10.464 10.464 0 0 1 2.214 3.24c.54 1.242.81 2.538.81 3.942 0 1.404-.216 2.754-.81 3.888-.918 1.512-6.48 10.152-20.52 3.402zM23.49 19.494c.54.324 1.08.54 1.728.756v17.388c-1.296.702-2.322 1.62-3.186 2.808-.81 1.188-1.242 2.592-1.242 4.212 0 1.512.432 2.916 1.242 4.158a7.467 7.467 0 0 0 3.186 2.754v9.666c-.486.108-.972.324-1.404.54-6.48-5.13-10.314-12.96-10.314-21.222-.054-8.316 3.618-15.876 9.99-21.06zm2.268 22.41c.756-.756 1.62-1.134 2.646-1.134.594 0 1.728.378 3.294 1.08 1.62.702 3.456 1.62 5.508 2.808-2.106 1.188-3.942 2.106-5.508 2.754-1.62.702-2.7 1.026-3.294 1.026-1.026 0-1.944-.378-2.646-1.08-.756-.756-1.08-1.62-1.08-2.646 0-1.134.378-2.052 1.08-2.808zM24.462 71.28c-.756-.756-1.134-1.674-1.134-2.7 0-1.026.378-1.944 1.134-2.646.756-.756 1.62-1.08 2.646-1.08.594 0 1.728.378 3.294 1.08 1.62.702 3.456 1.62 5.508 2.7a67.416 67.416 0 0 1-5.508 2.808c-1.62.702-2.7 1.08-3.294 1.08-1.026-.108-1.89-.486-2.646-1.242zm32.886-23.544c-1.674-1.89-3.564-3.294-5.724-4.212.486-.324.972-.648 1.458-1.026s.972-.81 1.404-1.296c1.728-1.674 3.024-3.564 3.888-5.778.918-2.16 1.35-4.482 1.35-6.858 0-3.51-.918-6.642-2.7-9.396C63.396 24.138 67.5 31.806 67.5 40.5c0 7.02-2.754 13.446-7.236 18.306.108-.702.216-1.458.216-2.214 0-3.294-1.026-6.264-3.132-8.856zM40.392 14.688h1.458c1.89 0 3.726.378 5.454 1.08a15.087 15.087 0 0 1 4.482 2.97 13.88 13.88 0 0 1 2.97 4.428c.756 1.674 1.08 3.456 1.08 5.4 0 1.89-.378 3.726-1.08 5.4-.756 1.674-1.728 3.186-2.97 4.428-1.242 1.242-2.754 2.268-4.428 3.024-1.674.756-3.51 1.134-5.4 1.134h-.378c-.756-.432-1.62-.972-2.7-1.566a50.013 50.013 0 0 0-3.402-1.728 60.93 60.93 0 0 0-3.51-1.458c-1.134-.432-2.106-.702-2.916-.81V20.142c.918-.216 1.944-.594 3.024-1.08 1.08-.486 2.16-1.026 3.24-1.566 1.026-.54 1.998-1.08 2.916-1.566.918-.54 1.62-.918 2.16-1.242zm-9.936.81c-1.62.702-2.7 1.08-3.294 1.08-1.026 0-1.944-.378-2.646-1.08-.756-.756-1.134-1.62-1.134-2.646 0-1.026.378-1.944 1.134-2.7.756-.756 1.62-1.134 2.646-1.134.594 0 1.728.378 3.294 1.08 1.62.702 3.456 1.62 5.508 2.808-2.052.972-3.888 1.89-5.508 2.592zM3.888 40.5c0-12.528 6.318-23.652 15.984-30.24-.27.81-.432 1.62-.432 2.484 0 1.512.432 2.862 1.242 4.05-7.02 5.886-11.016 14.418-11.016 23.652 0 9.18 4.158 17.928 11.178 23.76-.918 1.242-1.35 2.7-1.35 4.266 0 .756.108 1.458.324 2.106A36.221 36.221 0 0 1 3.888 40.5zM40.5 77.166c-3.564 0-7.074-.54-10.314-1.512.054 0 .054 0 .108-.054 1.296-.432 6.372-2.916 7.506-3.564.81-.432.918-.432 1.458-.756 8.91.486 15.822-3.672 15.984-3.726C64.8 62.262 71.388 52.11 71.388 40.5c0-17.01-14.04-30.618-30.132-30.834H38.61c-1.188-.594-3.294-1.728-4.59-2.322a58.061 58.061 0 0 0-3.834-1.62c-.216-.054-.432-.162-.648-.216a36.294 36.294 0 0 1 10.908-1.674c20.196 0 36.612 16.416 36.612 36.612S60.696 77.166 40.5 77.166z" fill="#57B0B6" fill-rule="evenodd"/></svg>