<svg width="457" height="285" viewBox="0 0 457 285" xmlns="http://www.w3.org/2000/svg"><title>Brickson-Logotype-DNB-RGB-LB</title><g fill="none" fill-rule="evenodd"><path d="M134.482 273.424c0 1.552-.282 2.823-.706 4.235-.423 1.27-1.129 2.4-1.976 3.388s-1.976 1.694-3.247 2.259c-1.27.565-2.824.847-4.518.847h-8.047v-21.459h8.047c1.836 0 3.247.282 4.66.847 1.27.565 2.4 1.412 3.246 2.259.847.988 1.553 2.118 1.835 3.388.424 1.412.706 2.683.706 4.236zm-4.376 0c0-1.977-.565-3.53-1.694-4.66-1.13-1.129-2.541-1.693-4.518-1.693h-3.67v12.847h3.67c1.977 0 3.53-.565 4.518-1.694 1.13-1.271 1.694-2.824 1.694-4.8zm14.682 10.729v-21.459h13.694v4.235h-9.317v3.953h8.47v4.236h-8.47v4.658h9.459v4.236h-13.836zm38.4 0l-10.023-13.27v13.27h-4.236v-21.459h3.389l10.164 13.27v-13.27h4.236v21.459zm32.188 0v-21.459h8.612c.847 0 1.694.141 2.4.565.706.282 1.412.847 1.977 1.412.564.564.988 1.27 1.411 1.976.283.706.424 1.553.424 2.4 0 .565-.141 1.27-.282 1.835-.283.706-.565 1.27-.847 1.694.705.565 1.27 1.412 1.694 2.26.423.846.564 1.835.564 2.823s-.14 1.835-.564 2.541c-.283.847-.847 1.553-1.412 2.118-.565.564-1.27 1.13-2.118 1.411-.847.283-1.694.565-2.54.565h-9.319v-.141zm4.236-17.082v3.953h4.376c.565 0 .988-.142 1.412-.565.424-.424.565-.847.565-1.412s-.141-.988-.565-1.412c-.424-.423-.847-.564-1.412-.564h-4.376zm0 12.847h5.082c.282 0 .565 0 .988-.283.283-.14.565-.282.706-.564.283-.283.424-.424.565-.847.141-.283.141-.565.141-.989 0-.564-.282-1.13-.706-1.553-.423-.423-.988-.564-1.694-.564h-5.082v4.8zm42.353-6.636c0 1.412-.283 2.824-.706 4.094-.424 1.271-1.13 2.542-1.977 3.53-.847.988-1.835 1.835-3.106 2.4-1.27.565-2.682.847-4.376.847-1.694 0-3.106-.282-4.376-.847-1.271-.565-2.26-1.412-3.106-2.4-.847-.988-1.412-2.118-1.836-3.53-.423-1.27-.706-2.682-.706-4.094 0-1.411.283-2.823.706-4.094.424-1.27 1.13-2.4 1.836-3.53.847-.987 1.835-1.834 3.106-2.4 1.27-.564 2.682-.846 4.376-.846 1.694 0 3.106.282 4.376.847 1.271.565 2.26 1.412 3.106 2.4.847.988 1.412 2.117 1.977 3.53.423 1.411.706 2.682.706 4.093zm-4.377 0c0-.847-.14-1.694-.423-2.54-.283-.848-.565-1.554-1.13-2.118a4.586 4.586 0 0 0-1.835-1.412c-.706-.424-1.553-.565-2.541-.565s-1.694.141-2.541.565a9.063 9.063 0 0 0-1.836 1.412 7.482 7.482 0 0 0-1.13 2.117 7.994 7.994 0 0 0-.423 2.541c0 .847.142 1.694.424 2.542.282.847.565 1.552 1.13 2.117a4.586 4.586 0 0 0 1.835 1.412c.706.423 1.553.565 2.54.565.99 0 1.836-.142 2.542-.565a9.063 9.063 0 0 0 1.835-1.412 7.482 7.482 0 0 0 1.13-2.117c.282-.706.423-1.553.423-2.542zm25.977-4.8a4.413 4.413 0 0 0-1.553-1.27c-.565-.283-1.27-.283-2.118-.283-.988 0-1.694.142-2.259.424-.564.282-.847.706-.847 1.13 0 .282.141.564.424.705.282.141.564.424.988.706.424.141.847.424 1.27.565.424.141.989.423 1.412.565.565.14 1.27.423 1.977.847.706.282 1.412.705 2.117 1.27.706.565 1.271 1.13 1.695 1.835.423.706.705 1.695.705 2.683 0 1.13-.14 1.976-.564 2.823a6.25 6.25 0 0 1-1.694 2.118c-.706.565-1.553.988-2.542 1.27a11.01 11.01 0 0 1-3.105.424c-1.553 0-2.965-.423-4.377-1.13-1.412-.705-2.823-1.835-4.235-3.388l3.53-2.823c.705 1.13 1.552 1.835 2.4 2.259.846.423 1.693.706 2.682.706.988 0 1.835-.142 2.54-.565.707-.282.989-.706.989-1.27 0-.424-.141-.707-.424-.989-.282-.282-.564-.565-.988-.847-.423-.282-.847-.423-1.412-.706-.564-.141-.988-.423-1.552-.565l-.565-.282-2.118-.847c-.706-.282-1.27-.706-1.835-1.13-.565-.423-.988-.988-1.27-1.693-.283-.706-.565-1.553-.565-2.542 0-.847.14-1.553.423-2.258.282-.706.706-1.412 1.27-1.977.565-.565 1.412-.988 2.26-1.412.988-.282 1.976-.564 3.388-.564s2.823.282 4.235.988c1.27.565 2.682 1.694 3.953 3.247l-3.53 2.4-.705-.424zm14.965 4.8c0-1.411.14-2.682.564-4.094.424-1.412.988-2.4 1.694-3.53.847-.987 1.836-1.834 2.965-2.4a9.855 9.855 0 0 1 4.235-.987c1.694 0 3.247.423 4.66 1.129 1.41.706 2.54 1.835 3.67 3.106l-3.247 2.823c-.989-1.129-1.836-1.835-2.683-2.258-.847-.424-1.694-.565-2.54-.565-.99 0-1.695.141-2.4.565-.707.423-1.272.847-1.695 1.411-.424.565-.706 1.27-.988 2.118-.283.847-.283 1.553-.283 2.541 0 .847.142 1.694.283 2.541.282.847.564 1.553.988 2.118.423.565.988 1.13 1.694 1.412.706.423 1.553.564 2.4.564s1.694-.14 2.541-.564c.847-.424 1.694-1.13 2.541-2.26l3.247 2.824c-1.129 1.271-2.4 2.4-3.67 3.248-1.412.847-2.965 1.129-4.659 1.129s-3.106-.282-4.235-.988a7.206 7.206 0 0 1-2.965-2.4c-.706-.989-1.412-2.118-1.694-3.53-.141-1.13-.424-2.54-.424-3.953zm39.811 10.871v-8.894h-7.2v8.894h-4.235v-21.459h4.235v8.188h7.2v-8.188h4.235v21.459z" fill="#57B0B6"/><path d="M44 226.8c0 2.5-.5 4.6-1.4 6.4-.9 1.8-2.2 3.3-3.7 4.4-1.6 1.2-3.4 2-5.4 2.5-2.1.5-4.2.8-6.5.8H.9v-47.7h26.4c1.8 0 3.5.3 5.2.8 1.7.5 3.2 1.3 4.6 2.4 1.4 1.1 2.5 2.5 3.3 4.2.8 1.7 1.3 3.7 1.3 6 0 1.8-.4 3.4-1.1 4.9-.7 1.5-1.7 2.8-3 3.8 1.9 1 3.4 2.4 4.7 4.4 1.1 2 1.7 4.3 1.7 7.1zm-10.9-20c0-1.8-.6-3.2-1.7-4.2-1.2-1-2.7-1.5-4.7-1.5H9.3v10.5h17.2c1.9 0 3.5-.4 4.7-1.1 1.3-.7 1.9-2 1.9-3.7zm2.5 19.7c0-2.1-.9-3.7-2.6-4.8-1.7-1.1-4-1.6-6.9-1.6H9.3v13h17.1c6.1 0 9.2-2.2 9.2-6.6zm70.5-19c0 3.5-.8 6.4-2.4 8.6-1.6 2.2-3.8 3.9-6.7 5l10.7 19.9h-9.1l-10.3-18.6H74.2V241h-8.5v-47.7H89c2.4 0 4.7.3 6.7.9 2 .6 3.9 1.5 5.4 2.6 1.5 1.2 2.7 2.6 3.6 4.4 1 1.7 1.4 3.8 1.4 6.3zm-8.6.1c0-2.3-.8-3.9-2.5-4.9-1.6-1-3.7-1.5-6.2-1.5H74.2V214h14.5c2.7 0 4.9-.5 6.4-1.4 1.6-.9 2.4-2.6 2.4-5zm40.6 33.4h-8.6v-47.7h8.6zm63.6-8.2c-2.4 2.6-5.1 4.7-8.1 6.1-3 1.4-6.4 2.1-10.1 2.1-3.3 0-6.4-.6-9.2-1.9-2.9-1.3-5.4-3-7.5-5.1-2.2-2.1-3.9-4.7-5.1-7.5-1.3-2.9-1.9-6-1.9-9.2 0-3.3.6-6.4 1.9-9.2 1.3-2.9 3-5.4 5.1-7.6 2.2-2.2 4.7-3.9 7.5-5.2 2.9-1.3 6-1.9 9.2-1.9 3.7 0 7.1.8 10.2 2.3 3.1 1.5 5.8 3.6 8.2 6.1l-6.2 5.5c-1.8-1.9-3.7-3.3-5.8-4.2-2.1-.9-4.3-1.4-6.5-1.4s-4.2.4-6.1 1.2c-1.9.8-3.5 1.9-4.9 3.3-1.4 1.4-2.5 3.1-3.3 5-.8 1.9-1.2 3.9-1.2 6.1 0 2.2.4 4.2 1.2 6 .8 1.9 1.9 3.5 3.3 4.9 1.4 1.4 3 2.5 4.9 3.3 1.9.8 3.9 1.2 6.1 1.2 2.3 0 4.5-.5 6.9-1.6 2.3-1 4.4-2.6 6.4-4.6l5 6.3zm22 8.2v-47.7h8.5v19c3.5-3.1 7-6.3 10.6-9.5 3.6-3.2 7-6.4 10.5-9.4H265l-26 23.2c2 1.9 4.1 3.9 6.3 6s4.5 4.2 6.7 6.3c2.3 2.1 4.5 4.2 6.7 6.3 2.2 2.1 4.3 4.1 6.3 5.9h-12.1L232.2 221v20h-8.5zm94.2-34.3c-1.7-1.8-3.6-3.1-5.7-4.1-2.1-.9-4.5-1.4-7.1-1.4-3.3 0-5.9.5-7.7 1.4-1.9.9-2.8 2.1-2.8 3.6 0 .8.4 1.6 1.1 2.3.8.7 1.7 1.3 2.9 1.9 1.2.6 2.5 1.1 3.9 1.6s2.8.9 4.2 1.3c2.2.6 4.3 1.3 6.5 2s4.2 1.6 5.9 2.7c1.7 1.1 3.1 2.4 4.2 4s1.7 3.6 1.7 5.9c0 2.3-.5 4.3-1.6 6-1 1.7-2.5 3.2-4.3 4.4-1.8 1.2-4 2-6.5 2.7-2.5.6-5.2.9-8.2.9-4.1 0-7.8-.7-11.2-2.1-3.4-1.4-6.8-3.7-10.1-6.9l7.3-5.7c2 2 4.1 3.7 6.2 4.9 2.2 1.2 4.8 1.9 8 1.9 1.7 0 3.3-.2 4.8-.5s2.7-.8 3.8-1.3c1-.5 1.9-1.2 2.4-1.9.6-.7.8-1.5.8-2.3 0-1-.3-1.8-1-2.5s-1.6-1.4-2.7-1.9-2.4-1-3.9-1.5c-1.5-.4-3-.8-4.6-1.2-2.2-.5-4.3-1.2-6.5-1.9s-4.1-1.6-5.8-2.6c-1.7-1-3.1-2.4-4.2-3.9s-1.7-3.5-1.7-5.9c0-1.7.4-3.4 1.1-5 .7-1.6 1.9-3.1 3.4-4.3 1.5-1.3 3.5-2.3 5.9-3.1 2.4-.8 5.3-1.2 8.6-1.2 3.9 0 7.5.7 10.8 2.1 3.3 1.4 6.5 3.6 9.9 6.7l-6.9 5.5-.9-.6zm28.9 10.5c0-3.3.6-6.4 1.9-9.3 1.3-2.9 3-5.4 5.1-7.6 2.1-2.2 4.7-3.9 7.5-5.1 2.9-1.3 6-1.9 9.2-1.9 3.9 0 7.3.7 10.2 2.1 2.9 1.4 5.3 3.2 7.3 5.4 1.9 2.2 3.4 4.8 4.4 7.7 1 2.9 1.5 5.8 1.5 8.8 0 3-.5 5.9-1.5 8.8-1 2.9-2.4 5.4-4.4 7.6-1.9 2.2-4.4 4-7.3 5.4-2.9 1.4-6.3 2.1-10.2 2.1-3.3 0-6.4-.6-9.2-1.9-2.9-1.3-5.4-3-7.5-5.1-2.2-2.1-3.9-4.7-5.1-7.5-1.3-3.2-1.9-6.3-1.9-9.5zm8.2 0c0 2.2.4 4.2 1.2 6 .8 1.9 1.9 3.5 3.3 4.9 1.4 1.4 3.1 2.5 5 3.3 1.9.8 3.9 1.2 6.1 1.2 2.1 0 4.2-.4 6.1-1.2 1.9-.8 3.5-1.9 4.9-3.3 1.4-1.4 2.5-3 3.3-4.9.8-1.9 1.3-3.9 1.3-6s-.4-4.2-1.3-6.1c-.8-1.9-2-3.5-3.3-5-1.4-1.4-3-2.5-4.9-3.3-1.9-.8-3.9-1.2-6.1-1.2-2.2 0-4.2.4-6.1 1.2-1.9.8-3.5 1.9-5 3.3-1.4 1.4-2.5 3.1-3.3 5-.8 1.9-1.2 3.9-1.2 6.1zm69-6.1V241h-8.5v-49.7l33.2 31.9v-29.9h8.3v49.1z" fill="#435E8D"/><path d="M229 .2c-41.4 0-75 33.6-75 75s33.6 75 75 75 75-33.6 75-75-33.6-75-75-75zm-9.5 118.3c-2.7-1.3-9.3-3.8-11.6-4.9V97c1.7-.2 3.7-.8 5.9-1.7 2.2-.9 4.5-1.9 6.7-3 2.3-1.1 4.4-2.2 6.4-3.3 2-1.1 3.6-2.1 4.7-2.7h8.6c2.5 0 4.9.5 7.2 1.4 2.3 1 4.3 2.3 6 4 1.7 1.7 3.1 3.7 4.1 6 1 2.3 1.5 4.7 1.5 7.3 0 2.6-.4 5.1-1.5 7.2-1.6 2.8-12 18.8-38 6.3zm-22-82.2c1 .6 2 1 3.2 1.4v32.2c-2.4 1.3-4.3 3-5.9 5.2-1.5 2.2-2.3 4.8-2.3 7.8 0 2.8.8 5.4 2.3 7.7 1.5 2.3 3.5 4 5.9 5.1v17.9c-.9.2-1.8.6-2.6 1-12-9.5-19.1-24-19.1-39.3 0-15.4 6.7-29.4 18.5-39zm4.2 41.5c1.4-1.4 3-2.1 4.9-2.1 1.1 0 3.2.7 6.1 2 3 1.3 6.4 3 10.2 5.2-3.9 2.2-7.3 3.9-10.2 5.1-3 1.3-5 1.9-6.1 1.9-1.9 0-3.6-.7-4.9-2-1.4-1.4-2-3-2-4.9 0-2.1.7-3.8 2-5.2zm-2.4 54.4c-1.4-1.4-2.1-3.1-2.1-5s.7-3.6 2.1-4.9c1.4-1.4 3-2 4.9-2 1.1 0 3.2.7 6.1 2 3 1.3 6.4 3 10.2 5-3.9 2.2-7.3 3.9-10.2 5.2-3 1.3-5 2-6.1 2-1.8-.2-3.5-.9-4.9-2.3zm60.9-43.6c-3.1-3.5-6.6-6.1-10.6-7.8.9-.6 1.8-1.2 2.7-1.9.9-.7 1.8-1.5 2.6-2.4 3.2-3.1 5.6-6.6 7.2-10.7 1.7-4 2.5-8.3 2.5-12.7 0-6.5-1.7-12.3-5-17.4 11.8 9.2 19.4 23.4 19.4 39.5 0 13-5.1 24.9-13.4 33.9.2-1.3.4-2.7.4-4.1 0-6.1-1.9-11.6-5.8-16.4zm-31.4-61.2h2.7c3.5 0 6.9.7 10.1 2 3.2 1.4 5.9 3.2 8.3 5.5 2.3 2.3 4.2 5.1 5.5 8.2 1.4 3.1 2 6.4 2 10 0 3.5-.7 6.9-2 10-1.4 3.1-3.2 5.9-5.5 8.2-2.3 2.3-5.1 4.2-8.2 5.6-3.1 1.4-6.5 2.1-10 2.1h-.7c-1.4-.8-3-1.8-5-2.9-2-1.1-4.1-2.2-6.3-3.2s-4.4-1.9-6.5-2.7c-2.1-.8-3.9-1.3-5.4-1.5V37.5c1.7-.4 3.6-1.1 5.6-2 2-.9 4-1.9 6-2.9 1.9-1 3.7-2 5.4-2.9 1.7-1 3-1.7 4-2.3zm-18.4 1.5c-3 1.3-5 2-6.1 2-1.9 0-3.6-.7-4.9-2-1.4-1.4-2.1-3-2.1-4.9 0-1.9.7-3.6 2.1-5 1.4-1.4 3-2.1 4.9-2.1 1.1 0 3.2.7 6.1 2 3 1.3 6.4 3 10.2 5.2-3.8 1.8-7.2 3.5-10.2 4.8zm-49.2 46.3c0-23.2 11.7-43.8 29.6-56-.5 1.5-.8 3-.8 4.6 0 2.8.8 5.3 2.3 7.5-13 10.9-20.4 26.7-20.4 43.8 0 17 7.7 33.2 20.7 44-1.7 2.3-2.5 5-2.5 7.9 0 1.4.2 2.7.6 3.9-17.9-12.1-29.5-32.6-29.5-55.7zm67.8 67.9c-6.6 0-13.1-1-19.1-2.8.1 0 .1 0 .2-.1 2.4-.8 11.8-5.4 13.9-6.6 1.5-.8 1.7-.8 2.7-1.4 16.5.9 29.3-6.8 29.6-6.9 17.7-9.8 29.9-28.6 29.9-50.1 0-31.5-26-56.7-55.8-57.1h-4.9c-2.2-1.1-6.1-3.2-8.5-4.3-2.4-1.1-4.7-2.1-7.1-3-.4-.1-.8-.3-1.2-.4 6.4-2 13.1-3.1 20.2-3.1 37.4 0 67.8 30.4 67.8 67.8s-30.3 68-67.7 68z" fill="#57B0B6"/></g></svg>