<svg width="171" height="91" viewBox="0 0 171 91" xmlns="http://www.w3.org/2000/svg"><title>brickson-logo--white</title><path d="M85.075 53.413c-2.485 0-4.885-.364-7.157-1.034l.084-.027c.893-.319 1.784-.7 2.677-1.147a84.835 84.835 0 0 0 3.894-2.07c.226.175.497.294.803.294h.02A21.181 21.181 0 0 0 90 48.84a9.364 9.364 0 0 0 2.983-.727 9.702 9.702 0 0 0 1.984-1.148c6.814-3.594 11.497-10.747 11.497-18.92 0-11.794-9.595-21.387-21.388-21.387-.354 0-.672.143-.91.367a92.468 92.468 0 0 1-1.03-.604 30.927 30.927 0 0 0-2.52-1.338 30.854 30.854 0 0 0-2.646-1.116c-.152-.057-.294-.102-.436-.148a25.302 25.302 0 0 1 7.542-1.143c13.99 0 25.37 11.38 25.37 25.369 0 13.988-11.38 25.37-25.37 25.37m-25.37-25.37c0-8.688 4.391-16.366 11.068-20.94a5.42 5.42 0 0 0-.294 1.737c0 1.053.295 1.987.85 2.82-4.87 4.078-7.642 9.984-7.642 16.383 0 6.366 2.872 12.418 7.743 16.464a4.976 4.976 0 0 0-.95 2.966c0 .518.085.994.211 1.452-6.63-4.582-10.986-12.232-10.986-20.883m18.423-17.32c-1.105.488-1.869.732-2.293.732a2.51 2.51 0 0 1-1.849-.764 2.513 2.513 0 0 1-.767-1.85c0-.72.256-1.348.767-1.88.51-.53 1.126-.796 1.85-.796.423 0 1.187.245 2.292.734 1.106.487 2.381 1.138 3.825 1.942a61.218 61.218 0 0 1-3.825 1.883m6.885-.542h1.02c1.317 0 2.572.253 3.762.764a9.798 9.798 0 0 1 3.093 2.072 9.89 9.89 0 0 1 2.072 3.06 9.24 9.24 0 0 1 .765 3.729c0 1.32-.256 2.563-.765 3.73a9.89 9.89 0 0 1-2.072 3.06 10.41 10.41 0 0 1-3.06 2.104 8.904 8.904 0 0 1-3.73.797h-.256c-.509-.297-1.138-.659-1.879-1.085a31.543 31.543 0 0 0-2.36-1.21 37.576 37.576 0 0 0-2.422-1.02c-.788-.297-1.456-.488-2.008-.573V13.943a14.109 14.109 0 0 0 2.104-.765 37.14 37.14 0 0 0 2.231-1.085c.721-.383 1.391-.742 2.008-1.082l1.497-.829m11.732 22.886c-1.149-1.317-2.466-2.296-3.954-2.931.341-.215.68-.448 1.02-.704.341-.255.66-.552.958-.892a11.58 11.58 0 0 0 2.708-3.983 12.44 12.44 0 0 0 .926-4.752c0-2.42-.627-4.59-1.856-6.516 4.398 3.428 7.242 8.76 7.242 14.754 0 4.873-1.913 9.326-5.01 12.673a9.5 9.5 0 0 0 .132-1.53c0-2.294-.723-4.335-2.166-6.12m-22.76 16.289a2.625 2.625 0 0 1-.767-1.88c0-.721.256-1.339.767-1.85a2.52 2.52 0 0 1 1.85-.764c.423 0 1.187.247 2.292.735a61.014 61.014 0 0 1 3.825 1.879c-1.444.807-2.719 1.457-3.825 1.945-1.105.488-1.869.733-2.293.733-.723 0-1.34-.265-1.849-.797m.891-20.337c.511-.531 1.126-.796 1.85-.796.423 0 1.19.244 2.295.733 1.105.49 2.378 1.137 3.824 1.945-1.446.808-2.719 1.443-3.824 1.91-1.106.47-1.872.703-2.296.703a2.524 2.524 0 0 1-1.849-.765 2.523 2.523 0 0 1-.764-1.849c0-.723.255-1.348.764-1.88m-1.563-15.524c.371.205.76.386 1.181.51v12.05A6.047 6.047 0 0 0 72.296 28c-.574.828-.86 1.796-.86 2.9 0 1.063.286 2.02.86 2.87a5.428 5.428 0 0 0 2.2 1.91v6.694a5.557 5.557 0 0 0-.989.371c-4.485-3.536-7.146-8.973-7.146-14.701 0-5.713 2.53-10.974 6.953-14.549m16.565 32.61a6.801 6.801 0 0 1-.657.032h-4.209a27.41 27.41 0 0 0-1.464-.83l-2.04-1.084a27.422 27.422 0 0 0-2.232-1.051 32.87 32.87 0 0 0-2.104-.797v-6.182c.637-.087 1.37-.298 2.2-.639a51.462 51.462 0 0 0 2.518-1.117 36.06 36.06 0 0 0 2.39-1.24 122.39 122.39 0 0 0 1.752-1.02h3.189a6.77 6.77 0 0 1 2.678.54 7.01 7.01 0 0 1 2.231 1.498 7.425 7.425 0 0 1 1.53 2.232c.381.85.572 1.764.572 2.74 0 .98-.19 1.882-.573 2.71a7.55 7.55 0 0 1-1.529 2.2 6.825 6.825 0 0 1-.93.767 18.525 18.525 0 0 1-3.322 1.24M85.075.002C69.612 0 57.032 12.58 57.032 28.044s12.58 28.043 28.043 28.043 28.043-12.58 28.043-28.044C113.118 12.582 100.538 0 85.075 0M12.977 84.624c0-.783-.322-1.377-.966-1.78-.644-.402-1.509-.603-2.595-.603H3.17V87.1h6.398c2.273 0 3.41-.825 3.41-2.475zm-.936-7.362c0-.665-.216-1.189-.648-1.57-.433-.381-1.022-.573-1.766-.573H3.17v3.922h6.428c.724 0 1.313-.135 1.765-.406.453-.273.68-.73.68-1.374zm4.105 7.454c0 .925-.17 1.725-.513 2.399a4.662 4.662 0 0 1-1.388 1.66 5.862 5.862 0 0 1-2.038.95 9.628 9.628 0 0 1-2.429.302H0V72.19h9.87a6.67 6.67 0 0 1 1.945.288 5.06 5.06 0 0 1 1.721.906c.512.412.924.934 1.237 1.569.311.633.468 1.382.468 2.248 0 .664-.137 1.273-.408 1.826a4.331 4.331 0 0 1-1.132 1.433c.704.362 1.288.906 1.751 1.63.463.724.694 1.599.694 2.626zm23.207-7.214c0 1.308-.297 2.38-.89 3.214-.593.835-1.422 1.454-2.49 1.857l4.014 7.454h-3.41l-3.862-6.972h-5.282v6.972h-3.168V72.19h8.69a9.1 9.1 0 0 1 2.52.332c.774.222 1.45.548 2.023.98a4.62 4.62 0 0 1 1.358 1.646c.331.663.497 1.448.497 2.353zm-3.229.06c0-.844-.306-1.452-.92-1.825-.614-.372-1.383-.56-2.309-.56h-5.462v4.77h5.432c1.026 0 1.825-.176 2.4-.53.572-.35.86-.968.86-1.854zm11.982 12.465h3.199V72.191h-3.199v17.836zm27.01-3.048c-.886.985-1.892 1.74-3.018 2.264-1.127.522-2.384.784-3.773.784a8.49 8.49 0 0 1-3.455-.71 9.138 9.138 0 0 1-2.822-1.916 9.13 9.13 0 0 1-1.916-2.821 8.499 8.499 0 0 1-.709-3.456c0-1.227.236-2.38.71-3.456a9.318 9.318 0 0 1 1.915-2.836A9.043 9.043 0 0 1 64.87 72.9a8.49 8.49 0 0 1 3.455-.71c1.39 0 2.656.283 3.803.846a10.589 10.589 0 0 1 3.078 2.294l-2.323 2.05c-.664-.703-1.389-1.225-2.173-1.568a6.06 6.06 0 0 0-2.445-.513 5.695 5.695 0 0 0-4.104 1.705 5.983 5.983 0 0 0-1.237 1.857 5.681 5.681 0 0 0-.453 2.263c0 .805.151 1.554.453 2.249a5.808 5.808 0 0 0 3.078 3.062 5.66 5.66 0 0 0 2.263.453c.845 0 1.7-.196 2.565-.59.865-.39 1.661-.968 2.385-1.734l1.901 2.415zm8.209 3.048V72.19h3.169v7.092a552.543 552.543 0 0 0 3.953-3.561 540.735 540.735 0 0 1 3.924-3.531h4.407l-9.72 8.66a834.87 834.87 0 0 0 2.37 2.235c.835.785 1.676 1.574 2.52 2.369a309.8 309.8 0 0 1 2.49 2.369c.815.785 1.595 1.519 2.34 2.203H94.25l-7.756-7.454v7.454h-3.17zm35.22-12.826a7.004 7.004 0 0 0-2.128-1.524c-.775-.352-1.665-.528-2.671-.528-1.227 0-2.188.176-2.882.528-.694.352-1.042.799-1.042 1.343 0 .302.14.583.423.845.28.262.644.503 1.087.725.442.22.93.422 1.463.603.533.18 1.062.342 1.585.483.805.22 1.619.467 2.444.739a9.667 9.667 0 0 1 2.203 1.026 5.534 5.534 0 0 1 1.584 1.509c.413.594.62 1.333.62 2.219 0 .845-.197 1.595-.59 2.248a4.902 4.902 0 0 1-1.614 1.63c-.684.432-1.5.764-2.444.995-.946.23-1.962.347-3.048.347-1.53 0-2.927-.261-4.195-.785-1.268-.522-2.525-1.378-3.773-2.564l2.747-2.113c.744.765 1.519 1.378 2.324 1.84.804.464 1.8.695 2.987.695.644 0 1.237-.061 1.78-.181a5.864 5.864 0 0 0 1.405-.483c.39-.201.693-.432.905-.694a1.32 1.32 0 0 0-.076-1.796 3.527 3.527 0 0 0-1.026-.71 9.881 9.881 0 0 0-1.464-.543 39.808 39.808 0 0 0-1.705-.452 38.058 38.058 0 0 1-2.43-.694 10.236 10.236 0 0 1-2.187-.98 5.267 5.267 0 0 1-1.585-1.464c-.412-.584-.618-1.318-.618-2.203 0-.644.136-1.268.407-1.872.272-.603.695-1.141 1.268-1.615.573-.471 1.308-.854 2.203-1.146.895-.291 1.966-.438 3.214-.438 1.469 0 2.81.257 4.029.77 1.217.512 2.449 1.353 3.696 2.519l-2.594 2.053-.302-.332zm10.35 3.923a8.58 8.58 0 0 1 .71-3.47 9.089 9.089 0 0 1 1.916-2.837 9.185 9.185 0 0 1 2.821-1.917 8.515 8.515 0 0 1 3.456-.71c1.45 0 2.716.258 3.802.77 1.087.514 1.992 1.188 2.717 2.023a8.429 8.429 0 0 1 1.63 2.867 10.192 10.192 0 0 1 0 6.564 8.304 8.304 0 0 1-1.63 2.837c-.725.825-1.63 1.493-2.717 2.006-1.086.512-2.353.77-3.802.77a8.499 8.499 0 0 1-3.456-.71 9.116 9.116 0 0 1-2.82-1.916 9.121 9.121 0 0 1-1.918-2.822 8.492 8.492 0 0 1-.709-3.455zm3.048 0c0 .806.151 1.555.453 2.249a5.727 5.727 0 0 0 1.252 1.825 5.968 5.968 0 0 0 1.857 1.238 5.678 5.678 0 0 0 2.263.452c.804 0 1.56-.15 2.263-.453a5.82 5.82 0 0 0 1.842-1.237 6.105 6.105 0 0 0 1.252-1.825 5.434 5.434 0 0 0 .467-2.25 5.54 5.54 0 0 0-.467-2.263 6.263 6.263 0 0 0-1.252-1.856 5.713 5.713 0 0 0-4.105-1.705c-.805 0-1.559.151-2.263.453a5.854 5.854 0 0 0-3.109 3.109 5.681 5.681 0 0 0-.453 2.263zm25.834-2.263v11.166h-3.169V71.436l12.434 11.92V72.192h3.108V90.54l-12.373-11.68z" fill="#FFF" fill-rule="evenodd"/></svg>