<?xml version="1.0" encoding="UTF-8" standalone="no"?>
<svg width="171px" height="91px" viewBox="0 0 171 91" version="1.1" xmlns="http://www.w3.org/2000/svg" xmlns:xlink="http://www.w3.org/1999/xlink">
    <!-- Generator: Sketch 39.1 (31720) - http://www.bohemiancoding.com/sketch -->
    <title>brickson-logo--white</title>
    <desc>Created with Sketch.</desc>
    <defs></defs>
    <g id="Symbols" stroke="none" stroke-width="1" fill="none" fill-rule="evenodd">
        <g id="brickson" fill="#FFFFFF">
            <g>
                <g>
                    <path d="M85.0752,53.4135 C82.5902,53.4135 80.1902,53.0485 77.9182,52.3785 C77.9472,52.3685 77.9732,52.3615 78.0022,52.3515 C78.8952,52.0335 79.7862,51.6515 80.6792,51.2045 C81.5712,50.7585 82.4112,50.3225 83.1962,49.8965 C83.7462,49.6015 84.2012,49.3485 84.5732,49.1345 C84.7992,49.3095 85.0702,49.4295 85.3762,49.4295 L85.3962,49.4295 C86.9792,49.4055 88.5152,49.1935 89.9992,48.8395 C91.0332,48.7585 92.0292,48.5215 92.9822,48.1125 C93.7052,47.8035 94.3612,47.4145 94.9662,46.9645 C101.7802,43.3695 106.4632,36.2165 106.4632,28.0435 C106.4632,16.2505 96.8682,6.6565 85.0752,6.6565 C84.7212,6.6565 84.4032,6.7995 84.1642,7.0245 C83.8582,6.8475 83.5152,6.6465 83.1342,6.4195 C82.3472,5.9525 81.5082,5.5055 80.6152,5.0815 C79.7222,4.6555 78.8402,4.2855 77.9692,3.9655 C77.8172,3.9095 77.6752,3.8645 77.5332,3.8185 C79.9162,3.0755 82.4502,2.6745 85.0752,2.6745 C99.0642,2.6745 110.4452,14.0555 110.4452,28.0435 C110.4452,42.0325 99.0642,53.4135 85.0752,53.4135 M59.7052,28.0435 C59.7052,19.3565 64.0962,11.6785 70.7732,7.1035 C70.5912,7.6475 70.4792,8.2205 70.4792,8.8415 C70.4792,9.8935 70.7742,10.8275 71.3282,11.6615 C66.4592,15.7385 63.6872,21.6445 63.6872,28.0435 C63.6872,34.4095 66.5592,40.4625 71.4302,44.5085 C70.8072,45.3795 70.4792,46.3635 70.4792,47.4745 C70.4792,47.9915 70.5652,48.4675 70.6912,48.9255 C64.0612,44.3445 59.7052,36.6945 59.7052,28.0435 M78.1282,10.7235 C77.0232,11.2115 76.2592,11.4555 75.8352,11.4555 C75.1122,11.4555 74.4952,11.2025 73.9862,10.6905 C73.4752,10.1825 73.2192,9.5645 73.2192,8.8415 C73.2192,8.1215 73.4752,7.4925 73.9862,6.9605 C74.4952,6.4315 75.1122,6.1645 75.8352,6.1645 C76.2592,6.1645 77.0232,6.4105 78.1282,6.8985 C79.2342,7.3865 80.5092,8.0365 81.9532,8.8415 C80.5092,9.6065 79.2342,10.2345 78.1282,10.7235 M85.0132,10.1825 L86.0332,10.1825 C87.3502,10.1825 88.6052,10.4355 89.7952,10.9465 C90.9842,11.4555 92.0152,12.1485 92.8882,13.0185 C93.7582,13.8895 94.4492,14.9095 94.9602,16.0785 C95.4692,17.2485 95.7252,18.4895 95.7252,19.8065 C95.7252,21.1265 95.4692,22.3695 94.9602,23.5375 C94.4492,24.7065 93.7582,25.7265 92.8882,26.5975 C92.0152,27.4675 90.9952,28.1695 89.8282,28.7015 C88.6582,29.2335 87.4152,29.4985 86.0982,29.4985 L85.8422,29.4985 C85.3332,29.2015 84.7042,28.8395 83.9632,28.4135 C83.2172,27.9905 82.4322,27.5845 81.6032,27.2025 C80.7742,26.8205 79.9662,26.4795 79.1812,26.1825 C78.3932,25.8855 77.7252,25.6945 77.1732,25.6095 L77.1732,13.9425 C77.8102,13.7745 78.5102,13.5185 79.2772,13.1775 C80.0422,12.8365 80.7852,12.4755 81.5082,12.0935 C82.2292,11.7105 82.8992,11.3515 83.5162,11.0105 C84.1312,10.6705 84.6312,10.3935 85.0132,10.1825 M96.7452,33.0675 C95.5962,31.7505 94.2792,30.7715 92.7912,30.1365 C93.1322,29.9225 93.4702,29.6895 93.8112,29.4335 C94.1522,29.1785 94.4702,28.8815 94.7692,28.5405 C95.9572,27.3935 96.8602,26.0655 97.4772,24.5575 C98.0942,23.0485 98.4032,21.4645 98.4032,19.8065 C98.4032,17.3865 97.7762,15.2165 96.5472,13.2905 C100.9452,16.7185 103.7892,22.0495 103.7892,28.0435 C103.7892,32.9175 101.8762,37.3705 98.7792,40.7165 C98.8602,40.2175 98.9112,39.7105 98.9112,39.1875 C98.9112,36.8925 98.1882,34.8515 96.7452,33.0675 M73.9862,49.3555 C73.4752,48.8235 73.2192,48.1975 73.2192,47.4745 C73.2192,46.7535 73.4752,46.1365 73.9862,45.6255 C74.4952,45.1165 75.1122,44.8615 75.8352,44.8615 C76.2592,44.8615 77.0232,45.1075 78.1282,45.5955 C79.2342,46.0835 80.5092,46.7105 81.9532,47.4745 C80.5092,48.2825 79.2342,48.9325 78.1282,49.4205 C77.0232,49.9085 76.2592,50.1525 75.8352,50.1525 C75.1122,50.1525 74.4952,49.8875 73.9862,49.3555 M74.8772,29.0195 C75.3882,28.4875 76.0032,28.2225 76.7262,28.2225 C77.1502,28.2225 77.9162,28.4665 79.0222,28.9555 C80.1272,29.4455 81.4002,30.0925 82.8462,30.9005 C81.4002,31.7085 80.1272,32.3445 79.0222,32.8115 C77.9162,33.2815 77.1502,33.5145 76.7262,33.5145 C76.0032,33.5145 75.3882,33.2585 74.8772,32.7495 C74.3682,32.2385 74.1132,31.6235 74.1132,30.9005 C74.1132,30.1775 74.3682,29.5515 74.8772,29.0195 M73.3142,13.4955 C73.6852,13.7015 74.0732,13.8815 74.4952,14.0065 L74.4952,26.0565 C73.6042,26.5235 72.8692,27.1705 72.2962,27.9995 C71.7222,28.8285 71.4352,29.7955 71.4352,30.9005 C71.4352,31.9625 71.7222,32.9205 72.2962,33.7695 C72.8692,34.6195 73.6042,35.2575 74.4952,35.6805 L74.4952,42.3745 C74.1462,42.4655 73.8202,42.5965 73.5072,42.7455 C69.0222,39.2085 66.3612,33.7715 66.3612,28.0435 C66.3612,22.3305 68.8902,17.0695 73.3142,13.4955 M89.8792,46.1045 C89.6622,46.1255 89.4442,46.1365 89.2222,46.1365 L85.0132,46.1365 C84.6742,45.9255 84.1862,45.6485 83.5492,45.3075 C82.9112,44.9675 82.2292,44.6055 81.5082,44.2235 C80.7852,43.8415 80.0422,43.4915 79.2772,43.1715 C78.5102,42.8535 77.8102,42.5885 77.1732,42.3745 L77.1732,36.1925 C77.8102,36.1065 78.5432,35.8945 79.3722,35.5545 C80.2012,35.2135 81.0392,34.8425 81.8912,34.4375 C82.7402,34.0345 83.5372,33.6205 84.2812,33.1965 C85.0242,32.7705 85.6092,32.4295 86.0332,32.1765 L86.0982,32.1765 L89.2222,32.1765 C90.1572,32.1765 91.0482,32.3555 91.9002,32.7175 C92.7502,33.0785 93.4932,33.5785 94.1312,34.2145 C94.7692,34.8515 95.2782,35.5975 95.6602,36.4475 C96.0422,37.2975 96.2332,38.2115 96.2332,39.1875 C96.2332,40.1665 96.0422,41.0685 95.6602,41.8975 C95.2782,42.7265 94.7692,43.4585 94.1312,44.0965 C93.8452,44.3835 93.5302,44.6325 93.2002,44.8635 C92.1442,45.3785 91.0342,45.7945 89.8792,46.1045 M85.0752,0.0005 C69.6122,0.0005 57.0322,12.5805 57.0322,28.0435 C57.0322,43.5065 69.6122,56.0875 85.0752,56.0875 C100.5382,56.0875 113.1182,43.5065 113.1182,28.0435 C113.1182,12.5805 100.5382,0.0005 85.0752,0.0005" id="Fill-17"></path>
                    <path d="M12.9771,84.6245 C12.9771,83.8405 12.6551,83.2465 12.0111,82.8445 C11.3671,82.4415 10.5021,82.2405 9.4161,82.2405 L3.1691,82.2405 L3.1691,87.0995 L9.5671,87.0995 C11.8401,87.0995 12.9771,86.2745 12.9771,84.6245 Z M12.0411,77.2615 C12.0411,76.5975 11.8251,76.0735 11.3931,75.6915 C10.9601,75.3105 10.3711,75.1185 9.6271,75.1185 L3.1691,75.1185 L3.1691,79.0415 L9.5971,79.0415 C10.3211,79.0415 10.9101,78.9055 11.3621,78.6345 C11.8151,78.3625 12.0411,77.9045 12.0411,77.2615 Z M16.1461,84.7155 C16.1461,85.6415 15.9751,86.4405 15.6331,87.1145 C15.2901,87.7885 14.8281,88.3425 14.2451,88.7745 C13.6611,89.2075 12.9821,89.5235 12.2071,89.7255 C11.4331,89.9265 10.6231,90.0265 9.7781,90.0265 L0.0001,90.0265 L0.0001,72.1905 L9.8691,72.1905 C10.5331,72.1905 11.1821,72.2865 11.8151,72.4785 C12.4491,72.6695 13.0221,72.9715 13.5361,73.3835 C14.0481,73.7955 14.4601,74.3185 14.7731,74.9525 C15.0841,75.5865 15.2411,76.3355 15.2411,77.2005 C15.2411,77.8645 15.1041,78.4735 14.8331,79.0265 C14.5611,79.5805 14.1841,80.0585 13.7011,80.4605 C14.4051,80.8215 14.9891,81.3655 15.4521,82.0895 C15.9151,82.8135 16.1461,83.6885 16.1461,84.7155 Z M39.3535,77.5019 C39.3535,78.8099 39.0565,79.8819 38.4635,80.7159 C37.8695,81.5509 37.0405,82.1699 35.9735,82.5729 L39.9875,90.0269 L36.5775,90.0269 L32.7145,83.0549 L27.4335,83.0549 L27.4335,90.0269 L24.2645,90.0269 L24.2645,72.1909 L32.9555,72.1909 C33.8615,72.1909 34.7015,72.3009 35.4755,72.5229 C36.2495,72.7449 36.9245,73.0709 37.4975,73.5029 C38.0715,73.9369 38.5235,74.4849 38.8555,75.1489 C39.1875,75.8119 39.3535,76.5969 39.3535,77.5019 Z M36.1245,77.5629 C36.1245,76.7179 35.8175,76.1099 35.2045,75.7369 C34.5905,75.3649 33.8205,75.1779 32.8955,75.1779 L27.4335,75.1779 L27.4335,79.9469 L32.8655,79.9469 C33.8915,79.9469 34.6905,79.7709 35.2645,79.4179 C35.8375,79.0669 36.1245,78.4489 36.1245,77.5629 Z M48.106,90.027 L51.305,90.027 L51.305,72.191 L48.106,72.191 L48.106,90.027 Z M75.1162,86.9789 C74.2302,87.9639 73.2242,88.7189 72.0982,89.2429 C70.9712,89.7649 69.7142,90.0269 68.3252,90.0269 C67.0982,90.0269 65.9462,89.7909 64.8702,89.3179 C63.7932,88.8449 62.8532,88.2069 62.0482,87.4009 C61.2432,86.5969 60.6042,85.6559 60.1322,84.5799 C59.6592,83.5029 59.4232,82.3509 59.4232,81.1239 C59.4232,79.8969 59.6592,78.7449 60.1322,77.6679 C60.6042,76.5919 61.2432,75.6459 62.0482,74.8319 C62.8532,74.0169 63.7932,73.3739 64.8702,72.8999 C65.9462,72.4269 67.0982,72.1909 68.3252,72.1909 C69.7142,72.1909 70.9812,72.4729 72.1282,73.0359 C73.2752,73.5989 74.3012,74.3639 75.2062,75.3299 L72.8832,77.3809 C72.2192,76.6769 71.4942,76.1549 70.7102,75.8119 C69.9252,75.4699 69.1102,75.2989 68.2652,75.2989 C67.4602,75.2989 66.7062,75.4509 66.0022,75.7519 C65.2972,76.0539 64.6842,76.4709 64.1612,77.0039 C63.6372,77.5379 63.2252,78.1569 62.9242,78.8609 C62.6222,79.5649 62.4712,80.3199 62.4712,81.1239 C62.4712,81.9289 62.6222,82.6779 62.9242,83.3729 C63.2252,84.0669 63.6372,84.6749 64.1612,85.1979 C64.6842,85.7209 65.2972,86.1329 66.0022,86.4349 C66.7062,86.7379 67.4602,86.8879 68.2652,86.8879 C69.1102,86.8879 69.9652,86.6919 70.8302,86.2989 C71.6952,85.9079 72.4912,85.3299 73.2152,84.5639 L75.1162,86.9789 Z M83.3247,90.0268 L83.3247,72.1908 L86.4937,72.1908 L86.4937,79.2828 C87.8017,78.1168 89.1187,76.9288 90.4467,75.7218 C91.7757,74.5148 93.0827,73.3378 94.3707,72.1908 L98.7777,72.1908 L89.0587,80.8518 C89.8027,81.5568 90.5927,82.3008 91.4277,83.0858 C92.2627,83.8708 93.1037,84.6598 93.9487,85.4548 C94.7927,86.2498 95.6227,87.0398 96.4387,87.8238 C97.2527,88.6088 98.0327,89.3428 98.7777,90.0268 L94.2497,90.0268 L86.4937,82.5728 L86.4937,90.0268 L83.3247,90.0268 Z M118.5449,77.2006 C117.8999,76.5366 117.1909,76.0286 116.4169,75.6766 C115.6419,75.3246 114.7519,75.1486 113.7459,75.1486 C112.5189,75.1486 111.5579,75.3246 110.8639,75.6766 C110.1699,76.0286 109.8219,76.4756 109.8219,77.0196 C109.8219,77.3216 109.9629,77.6026 110.2449,77.8646 C110.5259,78.1266 110.8889,78.3676 111.3319,78.5896 C111.7739,78.8096 112.2619,79.0116 112.7949,79.1926 C113.3279,79.3736 113.8569,79.5346 114.3799,79.6756 C115.1849,79.8966 115.9989,80.1426 116.8239,80.4146 C117.6489,80.6856 118.3829,81.0286 119.0269,81.4406 C119.6709,81.8526 120.1989,82.3566 120.6109,82.9496 C121.0239,83.5436 121.2309,84.2826 121.2309,85.1686 C121.2309,86.0136 121.0339,86.7636 120.6419,87.4166 C120.2499,88.0706 119.7109,88.6136 119.0269,89.0466 C118.3429,89.4786 117.5279,89.8106 116.5829,90.0416 C115.6369,90.2726 114.6209,90.3886 113.5349,90.3886 C112.0059,90.3886 110.6079,90.1276 109.3399,89.6036 C108.0719,89.0816 106.8149,88.2256 105.5669,87.0396 L108.3139,84.9266 C109.0579,85.6916 109.8329,86.3046 110.6379,86.7666 C111.4419,87.2306 112.4379,87.4616 113.6249,87.4616 C114.2689,87.4616 114.8619,87.4006 115.4059,87.2806 C115.9489,87.1596 116.4169,86.9996 116.8099,86.7976 C117.2009,86.5966 117.5029,86.3656 117.7149,86.1036 C117.9259,85.8426 118.0309,85.5596 118.0309,85.2586 C118.0309,84.8956 117.8999,84.5796 117.6389,84.3076 C117.3769,84.0366 117.0349,83.8006 116.6129,83.5986 C116.1909,83.3976 115.7019,83.2166 115.1489,83.0546 C114.5959,82.8946 114.0269,82.7436 113.4439,82.6026 C112.6399,82.4016 111.8289,82.1706 111.0149,81.9086 C110.1999,81.6466 109.4709,81.3196 108.8269,80.9286 C108.1829,80.5356 107.6539,80.0486 107.2419,79.4646 C106.8299,78.8806 106.6239,78.1466 106.6239,77.2616 C106.6239,76.6176 106.7599,75.9936 107.0309,75.3896 C107.3029,74.7866 107.7259,74.2486 108.2989,73.7746 C108.8719,73.3036 109.6069,72.9206 110.5019,72.6286 C111.3969,72.3376 112.4679,72.1906 113.7159,72.1906 C115.1849,72.1906 116.5269,72.4476 117.7449,72.9606 C118.9619,73.4726 120.1939,74.3136 121.4409,75.4796 L118.8469,77.5326 L118.5449,77.2006 Z M128.8954,81.1235 C128.8954,79.8965 129.1314,78.7395 129.6044,77.6535 C130.0774,76.5665 130.7154,75.6215 131.5214,74.8165 C132.3254,74.0125 133.2664,73.3735 134.3424,72.8995 C135.4194,72.4275 136.5714,72.1905 137.7984,72.1905 C139.2474,72.1905 140.5144,72.4475 141.6004,72.9605 C142.6874,73.4735 143.5924,74.1475 144.3174,74.9825 C145.0414,75.8175 145.5854,76.7725 145.9474,77.8495 C146.3084,78.9265 146.4904,80.0185 146.4904,81.1235 C146.4904,82.2505 146.3084,83.3475 145.9474,84.4135 C145.5854,85.4795 145.0414,86.4255 144.3174,87.2505 C143.5924,88.0755 142.6874,88.7445 141.6004,89.2575 C140.5144,89.7695 139.2474,90.0265 137.7984,90.0265 C136.5714,90.0265 135.4194,89.7905 134.3424,89.3175 C133.2664,88.8455 132.3254,88.2065 131.5214,87.4005 C130.7154,86.5975 130.0774,85.6555 129.6044,84.5795 C129.1314,83.5035 128.8954,82.3515 128.8954,81.1235 Z M131.9434,81.1235 C131.9434,81.9295 132.0944,82.6785 132.3964,83.3725 C132.6984,84.0665 133.1154,84.6755 133.6484,85.1975 C134.1814,85.7215 134.7994,86.1335 135.5054,86.4355 C136.2094,86.7375 136.9634,86.8885 137.7684,86.8885 C138.5724,86.8885 139.3274,86.7375 140.0314,86.4355 C140.7354,86.1335 141.3494,85.7215 141.8734,85.1975 C142.3954,84.6755 142.8124,84.0665 143.1254,83.3725 C143.4364,82.6785 143.5924,81.9295 143.5924,81.1235 C143.5924,80.3195 143.4364,79.5645 143.1254,78.8605 C142.8124,78.1565 142.3954,77.5375 141.8734,77.0045 C141.3494,76.4715 140.7354,76.0545 140.0314,75.7525 C139.3274,75.4505 138.5724,75.2995 137.7684,75.2995 C136.9634,75.2995 136.2094,75.4505 135.5054,75.7525 C134.7994,76.0545 134.1814,76.4715 133.6484,77.0045 C133.1154,77.5375 132.6984,78.1565 132.3964,78.8605 C132.0944,79.5645 131.9434,80.3195 131.9434,81.1235 Z M157.7773,78.8608 L157.7773,90.0268 L154.6083,90.0268 L154.6083,71.4358 L167.0423,83.3568 L167.0423,72.1908 L170.1503,72.1908 L170.1503,90.5398 L157.7773,78.8608 Z" id="Combined-Shape"></path>
                </g>
            </g>
        </g>
    </g>
</svg>