<?xml version="1.0" encoding="UTF-8" standalone="no"?>
<svg width="457px" height="285px" viewBox="0 0 457 285" version="1.1" xmlns="http://www.w3.org/2000/svg" xmlns:xlink="http://www.w3.org/1999/xlink">
    <!-- Generator: Sketch 40.1 (33804) - http://www.bohemiancoding.com/sketch -->
    <title>Brickson-Logotype-AMS-RGB-LB</title>
    <desc>Created with Sketch.</desc>
    <defs></defs>
    <g id="Page-1" stroke="none" stroke-width="1" fill="none" fill-rule="evenodd">
        <g id="Brickson-Logotype-AMS-RGB-LB">
            <g id="city-amsterdam" transform="translate(109.000000, 261.000000)" fill="#6CB5B8">
                <g id="Group">
                    <path d="M12.5647059,17.2235294 L7.05882353,17.2235294 C6.77647059,18.2117647 6.35294118,19.2 5.92941176,20.1882353 C5.50588235,21.1764706 5.22352941,22.1647059 4.94117647,23.1529412 L0.141176471,23.1529412 L7.90588235,1.55294118 L11.7176471,1.55294118 L19.4823529,23.1529412 L14.6823529,23.1529412 L12.5647059,17.2235294 L12.5647059,17.2235294 Z M8.61176471,12.9882353 L11.0117647,12.9882353 L10.4470588,11.2941176 C10.3058824,11.0117647 10.3058824,10.8705882 10.3058824,10.8705882 C10.3058824,10.7294118 10.3058824,10.7294118 10.1647059,10.5882353 C10.1647059,10.4470588 10.0235294,10.4470588 10.0235294,10.3058824 C10.0235294,10.1647059 9.88235294,9.88235294 9.74117647,9.6 L8.61176471,12.9882353 L8.61176471,12.9882353 Z" id="Shape"></path>
                    <path d="M44.7529412,23.1529412 L44.7529412,10.7294118 C44.3294118,11.4352941 43.9058824,12.1411765 43.4823529,12.9882353 C43.0588235,13.6941176 42.4941176,14.5411765 42.0705882,15.2470588 C41.6470588,15.9529412 41.0823529,16.8 40.6588235,17.5058824 C40.2352941,18.2117647 39.8117647,18.9176471 39.3882353,19.6235294 L33.8823529,11.0117647 L33.8823529,23.1529412 L29.6470588,23.1529412 L29.6470588,1.55294118 L33.0352941,1.55294118 L39.3882353,11.7176471 C40.5176471,10.0235294 41.5058824,8.32941176 42.6352941,6.63529412 C43.7647059,4.94117647 44.7529412,3.24705882 45.8823529,1.55294118 L49.1294118,1.55294118 L49.1294118,23.1529412 L44.7529412,23.1529412 L44.7529412,23.1529412 Z" id="Shape"></path>
                    <path d="M71.8588235,7.34117647 C71.4352941,6.77647059 70.8705882,6.35294118 70.1647059,6.07058824 C69.6,5.78823529 68.8941176,5.78823529 68.0470588,5.78823529 C67.0588235,5.78823529 66.3529412,5.92941176 65.7882353,6.21176471 C65.2235294,6.49411765 64.9411765,6.91764706 64.9411765,7.34117647 C64.9411765,7.62352941 65.0823529,7.90588235 65.3647059,8.04705882 C65.6470588,8.32941176 65.9294118,8.47058824 66.3529412,8.75294118 C66.7764706,8.89411765 67.2,9.17647059 67.6235294,9.31764706 C68.0470588,9.45882353 68.6117647,9.74117647 69.0352941,9.88235294 L69.0352941,9.88235294 C69.6,10.0235294 70.3058824,10.3058824 71.0117647,10.7294118 C71.7176471,11.0117647 72.4235294,11.4352941 73.1294118,12 C73.8352941,12.5647059 74.4,13.1294118 74.8235294,13.9764706 C75.2470588,14.6823529 75.5294118,15.6705882 75.5294118,16.6588235 C75.5294118,17.7882353 75.3882353,18.6352941 74.9647059,19.4823529 C74.5411765,20.3294118 73.9764706,21.0352941 73.2705882,21.6 C72.5647059,22.1647059 71.7176471,22.5882353 70.7294118,22.8705882 C69.7411765,23.1529412 68.7529412,23.2941176 67.6235294,23.2941176 C66.0705882,23.2941176 64.6588235,22.8705882 63.2470588,22.1647059 C61.8352941,21.4588235 60.4235294,20.3294118 59.0117647,18.6352941 L62.5411765,15.8117647 C63.2470588,16.9411765 64.0941176,17.6470588 64.9411765,18.2117647 C65.7882353,18.7764706 66.6352941,18.9176471 67.6235294,18.9176471 C68.6117647,18.9176471 69.4588235,18.7764706 70.1647059,18.3529412 C70.8705882,18.0705882 71.1529412,17.6470588 71.1529412,17.0823529 C71.1529412,16.6588235 71.0117647,16.3764706 70.7294118,16.0941176 C70.4470588,15.8117647 70.1647059,15.5294118 69.7411765,15.2470588 C69.3176471,14.9647059 68.8941176,14.8235294 68.3294118,14.5411765 C67.7647059,14.4 67.3411765,14.1176471 66.7764706,13.9764706 L66.2117647,13.6941176 C65.5058824,13.4117647 64.8,13.1294118 64.0941176,12.8470588 C63.3882353,12.5647059 62.8235294,12.1411765 62.2588235,11.7176471 C61.6941176,11.2941176 61.2705882,10.7294118 60.9882353,10.0235294 C60.7058824,9.31764706 60.4235294,8.47058824 60.4235294,7.48235294 C60.4235294,6.63529412 60.5647059,5.92941176 60.8470588,5.22352941 C61.1294118,4.51764706 61.5529412,3.81176471 62.1176471,3.24705882 C62.6823529,2.68235294 63.5294118,2.25882353 64.3764706,1.83529412 C65.3647059,1.55294118 66.3529412,1.27058824 67.7647059,1.27058824 C69.1764706,1.27058824 70.5882353,1.55294118 72,2.25882353 C73.2705882,2.82352941 74.6823529,3.95294118 75.9529412,5.64705882 L72.4235294,8.04705882 L71.8588235,7.34117647 L71.8588235,7.34117647 Z" id="Shape"></path>
                    <polygon id="Shape" points="95.1529412 5.92941176 95.1529412 23.1529412 90.7764706 23.1529412 90.7764706 5.92941176 86.1176471 5.92941176 86.1176471 1.55294118 99.9529412 1.55294118 99.9529412 5.92941176"></polygon>
                    <polygon id="Shape" points="111.529412 23.1529412 111.529412 1.55294118 125.223529 1.55294118 125.223529 5.92941176 115.764706 5.92941176 115.764706 9.88235294 124.376471 9.88235294 124.376471 14.2588235 115.764706 14.2588235 115.764706 18.9176471 125.223529 18.9176471 125.223529 23.2941176 111.529412 23.2941176"></polygon>
                    <path d="M144.423529,14.8235294 L141.741176,14.8235294 L141.741176,23.0117647 L137.364706,23.0117647 L137.364706,1.41176471 L145.694118,1.41176471 C146.541176,1.41176471 147.388235,1.55294118 148.235294,1.97647059 C149.082353,2.25882353 149.788235,2.82352941 150.352941,3.38823529 C150.917647,3.95294118 151.482353,4.65882353 151.764706,5.50588235 C152.047059,6.35294118 152.329412,7.2 152.329412,8.04705882 C152.329412,9.31764706 152.047059,10.4470588 151.341176,11.4352941 C150.776471,12.4235294 149.929412,13.2705882 148.941176,13.8352941 L153.741176,23.0117647 L148.8,23.0117647 L144.423529,14.8235294 L144.423529,14.8235294 Z M141.741176,10.5882353 L145.835294,10.5882353 C146.541176,10.5882353 146.964706,10.3058824 147.529412,9.88235294 C148.094118,9.45882353 148.235294,8.89411765 148.235294,8.18823529 C148.235294,7.48235294 147.952941,6.91764706 147.529412,6.49411765 C147.105882,6.07058824 146.541176,5.78823529 145.835294,5.78823529 L141.741176,5.78823529 L141.741176,10.5882353 L141.741176,10.5882353 Z" id="Shape"></path>
                    <path d="M182.4,12.2823529 C182.4,13.8352941 182.117647,15.2470588 181.694118,16.5176471 C181.270588,17.7882353 180.564706,18.9176471 179.717647,19.9058824 C178.870588,20.8941176 177.741176,21.6 176.470588,22.1647059 C175.2,22.7294118 173.647059,23.0117647 171.952941,23.0117647 L163.764706,23.0117647 L163.764706,1.41176471 L171.952941,1.41176471 C173.788235,1.41176471 175.341176,1.69411765 176.611765,2.25882353 C177.882353,2.82352941 179.011765,3.67058824 179.858824,4.51764706 C180.705882,5.50588235 181.411765,6.63529412 181.835294,7.90588235 C182.258824,9.45882353 182.4,10.8705882 182.4,12.2823529 L182.4,12.2823529 Z M178.023529,12.2823529 C178.023529,10.3058824 177.458824,8.61176471 176.329412,7.48235294 C175.2,6.35294118 173.788235,5.78823529 171.811765,5.78823529 L168.141176,5.78823529 L168.141176,18.7764706 L171.811765,18.7764706 C173.929412,18.7764706 175.341176,18.2117647 176.470588,16.9411765 C177.6,15.8117647 178.023529,14.2588235 178.023529,12.2823529 L178.023529,12.2823529 Z" id="Shape"></path>
                    <path d="M203.294118,17.2235294 L197.788235,17.2235294 C197.505882,18.2117647 197.082353,19.2 196.658824,20.1882353 C196.235294,21.1764706 195.952941,22.1647059 195.670588,23.1529412 L190.870588,23.1529412 L198.635294,1.55294118 L202.447059,1.55294118 L210.211765,23.1529412 L205.411765,23.1529412 L203.294118,17.2235294 L203.294118,17.2235294 Z M199.341176,12.9882353 L201.741176,12.9882353 L201.176471,11.2941176 C201.035294,11.0117647 201.035294,10.8705882 201.035294,10.8705882 C201.035294,10.7294118 201.035294,10.7294118 200.894118,10.5882353 C200.894118,10.4470588 200.752941,10.4470588 200.752941,10.3058824 C200.752941,10.1647059 200.611765,9.88235294 200.470588,9.6 L199.341176,12.9882353 L199.341176,12.9882353 Z" id="Shape"></path>
                    <path d="M235.482353,23.1529412 L235.482353,10.7294118 C235.058824,11.4352941 234.635294,12.1411765 234.211765,12.9882353 C233.788235,13.6941176 233.223529,14.5411765 232.8,15.2470588 C232.376471,15.9529412 231.811765,16.8 231.388235,17.5058824 C230.964706,18.2117647 230.541176,18.9176471 230.117647,19.6235294 L224.611765,11.0117647 L224.611765,23.1529412 L220.376471,23.1529412 L220.376471,1.55294118 L223.764706,1.55294118 L230.117647,11.7176471 C231.247059,10.0235294 232.235294,8.32941176 233.364706,6.63529412 C234.494118,4.94117647 235.482353,3.24705882 236.611765,1.55294118 L239.858824,1.55294118 L239.858824,23.1529412 L235.482353,23.1529412 L235.482353,23.1529412 Z" id="Shape"></path>
                </g>
            </g>
            <g id="logotype" transform="translate(0.000000, 191.000000)" fill="#445E8D">
                <g id="Group">
                    <path d="M44,35.8 C44,38.3 43.5,40.4 42.6,42.2 C41.7,44 40.4,45.5 38.9,46.6 C37.3,47.8 35.5,48.6 33.5,49.1 C31.4,49.6 29.3,49.9 27,49.9 L0.9,49.9 L0.9,2.2 L27.3,2.2 C29.1,2.2 30.8,2.5 32.5,3 C34.2,3.5 35.7,4.3 37.1,5.4 C38.5,6.5 39.6,7.9 40.4,9.6 C41.2,11.3 41.7,13.3 41.7,15.6 C41.7,17.4 41.3,19 40.6,20.5 C39.9,22 38.9,23.3 37.6,24.3 C39.5,25.3 41,26.7 42.3,28.7 C43.4,30.7 44,33 44,35.8 L44,35.8 Z M33.1,15.8 C33.1,14 32.5,12.6 31.4,11.6 C30.2,10.6 28.7,10.1 26.7,10.1 L9.3,10.1 L9.3,20.6 L26.5,20.6 C28.4,20.6 30,20.2 31.2,19.5 C32.5,18.8 33.1,17.5 33.1,15.8 L33.1,15.8 Z M35.6,35.5 C35.6,33.4 34.7,31.8 33,30.7 C31.3,29.6 29,29.1 26.1,29.1 L9.3,29.1 L9.3,42.1 L26.4,42.1 C32.5,42.1 35.6,39.9 35.6,35.5 L35.6,35.5 Z" id="Shape"></path>
                    <path d="M106.1,16.5 C106.1,20 105.3,22.9 103.7,25.1 C102.1,27.3 99.9,29 97,30.1 L107.7,50 L98.6,50 L88.3,31.4 L74.2,31.4 L74.2,50 L65.7,50 L65.7,2.3 L89,2.3 C91.4,2.3 93.7,2.6 95.7,3.2 C97.7,3.8 99.6,4.7 101.1,5.8 C102.6,7 103.8,8.4 104.7,10.2 C105.7,11.9 106.1,14 106.1,16.5 L106.1,16.5 Z M97.5,16.6 C97.5,14.3 96.7,12.7 95,11.7 C93.4,10.7 91.3,10.2 88.8,10.2 L74.2,10.2 L74.2,23 L88.7,23 C91.4,23 93.6,22.5 95.1,21.6 C96.7,20.7 97.5,19 97.5,16.6 L97.5,16.6 Z" id="Shape"></path>
                    <polygon id="Shape" points="138.1 50 129.5 50 129.5 2.3 138.1 2.3"></polygon>
                    <path d="M201.7,41.8 C199.3,44.4 196.6,46.5 193.6,47.9 C190.6,49.3 187.2,50 183.5,50 C180.2,50 177.1,49.4 174.3,48.1 C171.4,46.8 168.9,45.1 166.8,43 C164.6,40.9 162.9,38.3 161.7,35.5 C160.4,32.6 159.8,29.5 159.8,26.3 C159.8,23 160.4,19.9 161.7,17.1 C163,14.2 164.7,11.7 166.8,9.5 C169,7.3 171.5,5.6 174.3,4.3 C177.2,3 180.3,2.4 183.5,2.4 C187.2,2.4 190.6,3.2 193.7,4.7 C196.8,6.2 199.5,8.3 201.9,10.8 L195.7,16.3 C193.9,14.4 192,13 189.9,12.1 C187.8,11.2 185.6,10.7 183.4,10.7 C181.2,10.7 179.2,11.1 177.3,11.9 C175.4,12.7 173.8,13.8 172.4,15.2 C171,16.6 169.9,18.3 169.1,20.2 C168.3,22.1 167.9,24.1 167.9,26.3 C167.9,28.5 168.3,30.5 169.1,32.3 C169.9,34.2 171,35.8 172.4,37.2 C173.8,38.6 175.4,39.7 177.3,40.5 C179.2,41.3 181.2,41.7 183.4,41.7 C185.7,41.7 187.9,41.2 190.3,40.1 C192.6,39.1 194.7,37.5 196.7,35.5 L201.7,41.8 L201.7,41.8 Z" id="Shape"></path>
                    <path d="M223.7,50 L223.7,2.3 L232.2,2.3 L232.2,21.3 C235.7,18.2 239.2,15 242.8,11.8 C246.4,8.6 249.8,5.4 253.3,2.4 L265,2.4 L239,25.6 C241,27.5 243.1,29.5 245.3,31.6 C247.5,33.7 249.8,35.8 252,37.9 C254.3,40 256.5,42.1 258.7,44.2 C260.9,46.3 263,48.3 265,50.1 L252.9,50.1 L232.2,30 L232.2,50 L223.7,50 L223.7,50 Z" id="Shape"></path>
                    <path d="M317.9,15.7 C316.2,13.9 314.3,12.6 312.2,11.6 C310.1,10.7 307.7,10.2 305.1,10.2 C301.8,10.2 299.2,10.7 297.4,11.6 C295.5,12.5 294.6,13.7 294.6,15.2 C294.6,16 295,16.8 295.7,17.5 C296.5,18.2 297.4,18.8 298.6,19.4 C299.8,20 301.1,20.5 302.5,21 C303.9,21.5 305.3,21.9 306.7,22.3 C308.9,22.9 311,23.6 313.2,24.3 C315.4,25 317.4,25.9 319.1,27 C320.8,28.1 322.2,29.4 323.3,31 C324.4,32.6 325,34.6 325,36.9 C325,39.2 324.5,41.2 323.4,42.9 C322.4,44.6 320.9,46.1 319.1,47.3 C317.3,48.5 315.1,49.3 312.6,50 C310.1,50.6 307.4,50.9 304.4,50.9 C300.3,50.9 296.6,50.2 293.2,48.8 C289.8,47.4 286.4,45.1 283.1,41.9 L290.4,36.2 C292.4,38.2 294.5,39.9 296.6,41.1 C298.8,42.3 301.4,43 304.6,43 C306.3,43 307.9,42.8 309.4,42.5 C310.9,42.2 312.1,41.7 313.2,41.2 C314.2,40.7 315.1,40 315.6,39.3 C316.2,38.6 316.4,37.8 316.4,37 C316.4,36 316.1,35.2 315.4,34.5 C314.7,33.8 313.8,33.1 312.7,32.6 C311.6,32.1 310.3,31.6 308.8,31.1 C307.3,30.7 305.8,30.3 304.2,29.9 C302,29.4 299.9,28.7 297.7,28 C295.5,27.3 293.6,26.4 291.9,25.4 C290.2,24.4 288.8,23 287.7,21.5 C286.6,20 286,18 286,15.6 C286,13.9 286.4,12.2 287.1,10.6 C287.8,9 289,7.5 290.5,6.3 C292,5 294,4 296.4,3.2 C298.8,2.4 301.7,2 305,2 C308.9,2 312.5,2.7 315.8,4.1 C319.1,5.5 322.3,7.7 325.7,10.8 L318.8,16.3 L317.9,15.7 L317.9,15.7 Z" id="Shape"></path>
                    <path d="M346.8,26.2 C346.8,22.9 347.4,19.8 348.7,16.9 C350,14 351.7,11.5 353.8,9.3 C355.9,7.1 358.5,5.4 361.3,4.2 C364.2,2.9 367.3,2.3 370.5,2.3 C374.4,2.3 377.8,3 380.7,4.4 C383.6,5.8 386,7.6 388,9.8 C389.9,12 391.4,14.6 392.4,17.5 C393.4,20.4 393.9,23.3 393.9,26.3 C393.9,29.3 393.4,32.2 392.4,35.1 C391.4,38 390,40.5 388,42.7 C386.1,44.9 383.6,46.7 380.7,48.1 C377.8,49.5 374.4,50.2 370.5,50.2 C367.2,50.2 364.1,49.6 361.3,48.3 C358.4,47 355.9,45.3 353.8,43.2 C351.6,41.1 349.9,38.5 348.7,35.7 C347.4,32.5 346.8,29.4 346.8,26.2 L346.8,26.2 Z M355,26.2 C355,28.4 355.4,30.4 356.2,32.2 C357,34.1 358.1,35.7 359.5,37.1 C360.9,38.5 362.6,39.6 364.5,40.4 C366.4,41.2 368.4,41.6 370.6,41.6 C372.7,41.6 374.8,41.2 376.7,40.4 C378.6,39.6 380.2,38.5 381.6,37.1 C383,35.7 384.1,34.1 384.9,32.2 C385.7,30.3 386.2,28.3 386.2,26.2 C386.2,24.1 385.8,22 384.9,20.1 C384.1,18.2 382.9,16.6 381.6,15.1 C380.2,13.7 378.6,12.6 376.7,11.8 C374.8,11 372.8,10.6 370.6,10.6 C368.4,10.6 366.4,11 364.5,11.8 C362.6,12.6 361,13.7 359.5,15.1 C358.1,16.5 357,18.2 356.2,20.1 C355.4,22 355,24 355,26.2 L355,26.2 Z" id="Shape"></path>
                    <polygon id="Shape" points="424 20.1 424 50 415.5 50 415.5 0.3 448.7 32.2 448.7 2.3 457 2.3 457 51.4"></polygon>
                </g>
            </g>
            <g id="brandmark" transform="translate(154.000000, 0.000000)" fill="#6CB5B8">
                <path d="M75,0.2 C33.6,0.2 0,33.8 0,75.2 C0,116.6 33.6,150.2 75,150.2 C116.4,150.2 150,116.6 150,75.2 C150,33.8 116.3,0.2 75,0.2 L75,0.2 Z M65.5,118.5 C62.8,117.2 56.2,114.7 53.9,113.6 L53.9,97 C55.6,96.8 57.6,96.2 59.8,95.3 C62,94.4 64.3,93.4 66.5,92.3 C68.8,91.2 70.9,90.1 72.9,89 C74.9,87.9 76.5,86.9 77.6,86.3 L77.8,86.3 L86.2,86.3 C88.7,86.3 91.1,86.8 93.4,87.7 C95.7,88.7 97.7,90 99.4,91.7 C101.1,93.4 102.5,95.4 103.5,97.7 C104.5,100 105,102.4 105,105 C105,107.6 104.6,110.1 103.5,112.2 C101.8,115 91.5,131 65.5,118.5 L65.5,118.5 Z M43.5,36.3 C44.5,36.9 45.5,37.3 46.7,37.7 L46.7,69.9 C44.3,71.2 42.4,72.9 40.8,75.1 C39.3,77.3 38.5,79.9 38.5,82.9 C38.5,85.7 39.3,88.3 40.8,90.6 C42.3,92.9 44.3,94.6 46.7,95.7 L46.7,113.6 C45.8,113.8 44.9,114.2 44.1,114.6 C32.1,105.1 25,90.6 25,75.3 C24.9,59.9 31.7,45.9 43.5,36.3 L43.5,36.3 Z M47.7,77.8 C49.1,76.4 50.7,75.7 52.6,75.7 C53.7,75.7 55.8,76.4 58.7,77.7 C61.7,79 65.1,80.7 68.9,82.9 C65,85.1 61.6,86.8 58.7,88 C55.7,89.3 53.7,89.9 52.6,89.9 C50.7,89.9 49,89.2 47.7,87.9 C46.3,86.5 45.7,84.9 45.7,83 C45.7,80.9 46.4,79.2 47.7,77.8 L47.7,77.8 Z M45.3,132.2 C43.9,130.8 43.2,129.1 43.2,127.2 C43.2,125.3 43.9,123.6 45.3,122.3 C46.7,120.9 48.3,120.3 50.2,120.3 C51.3,120.3 53.4,121 56.3,122.3 C59.3,123.6 62.7,125.3 66.5,127.3 C62.6,129.5 59.2,131.2 56.3,132.5 C53.3,133.8 51.3,134.5 50.2,134.5 C48.3,134.3 46.7,133.6 45.3,132.2 L45.3,132.2 Z M106.2,88.6 C103.1,85.1 99.6,82.5 95.6,80.8 C96.5,80.2 97.4,79.6 98.3,78.9 C99.2,78.2 100.1,77.4 100.9,76.5 C104.1,73.4 106.5,69.9 108.1,65.8 C109.8,61.8 110.6,57.5 110.6,53.1 C110.6,46.6 108.9,40.8 105.6,35.7 C117.4,44.9 125,59.1 125,75.2 C125,88.2 119.9,100.1 111.6,109.1 C111.8,107.8 112,106.4 112,105 C112,98.9 110.1,93.4 106.2,88.6 L106.2,88.6 Z M74.8,27.4 L77.5,27.4 C81,27.4 84.4,28.1 87.6,29.4 C90.8,30.8 93.5,32.6 95.9,34.9 C98.2,37.2 100.1,40 101.4,43.1 C102.8,46.2 103.4,49.5 103.4,53.1 C103.4,56.6 102.7,60 101.4,63.1 C100,66.2 98.2,69 95.9,71.3 C93.6,73.6 90.8,75.5 87.7,76.9 C84.6,78.3 81.2,79 77.7,79 L77,79 C75.6,78.2 74,77.2 72,76.1 C70,75 67.9,73.9 65.7,72.9 C63.5,71.9 61.3,71 59.2,70.2 C57.1,69.4 55.3,68.9 53.8,68.7 L53.8,37.5 C55.5,37.1 57.4,36.4 59.4,35.5 C61.4,34.6 63.4,33.6 65.4,32.6 C67.3,31.6 69.1,30.6 70.8,29.7 C72.5,28.7 73.8,28 74.8,27.4 L74.8,27.4 Z M56.4,28.9 C53.4,30.2 51.4,30.9 50.3,30.9 C48.4,30.9 46.7,30.2 45.4,28.9 C44,27.5 43.3,25.9 43.3,24 C43.3,22.1 44,20.4 45.4,19 C46.8,17.6 48.4,16.9 50.3,16.9 C51.4,16.9 53.5,17.6 56.4,18.9 C59.4,20.2 62.8,21.9 66.6,24.1 C62.8,25.9 59.4,27.6 56.4,28.9 L56.4,28.9 Z M7.2,75.2 C7.2,52 18.9,31.4 36.8,19.2 C36.3,20.7 36,22.2 36,23.8 C36,26.6 36.8,29.1 38.3,31.3 C25.3,42.2 17.9,58 17.9,75.1 C17.9,92.1 25.6,108.3 38.6,119.1 C36.9,121.4 36.1,124.1 36.1,127 C36.1,128.4 36.3,129.7 36.7,130.9 C18.8,118.8 7.2,98.3 7.2,75.2 L7.2,75.2 Z M75,143.1 C68.4,143.1 61.9,142.1 55.9,140.3 C56,140.3 56,140.3 56.1,140.2 C58.5,139.4 67.9,134.8 70,133.6 C71.5,132.8 71.7,132.8 72.7,132.2 C89.2,133.1 102,125.4 102.3,125.3 C120,115.5 132.2,96.7 132.2,75.2 C132.2,43.7 106.2,18.5 76.4,18.1 L71.5,18.1 C69.3,17 65.4,14.9 63,13.8 C60.6,12.7 58.3,11.7 55.9,10.8 C55.5,10.7 55.1,10.5 54.7,10.4 C61.1,8.4 67.8,7.3 74.9,7.3 C112.3,7.3 142.7,37.7 142.7,75.1 C142.7,112.5 112.4,143.1 75,143.1 L75,143.1 Z" id="Shape"></path>
            </g>
        </g>
    </g>
</svg>