<?xml version="1.0" encoding="UTF-8" standalone="no"?>
<svg width="81px" height="81px" viewBox="0 0 81 81" version="1.1" xmlns="http://www.w3.org/2000/svg" xmlns:xlink="http://www.w3.org/1999/xlink">
    <!-- Generator: Sketch 40.1 (33804) - http://www.bohemiancoding.com/sketch -->
    <title>Brickson-Brandmark</title>
    <desc>Created with Sketch.</desc>
    <defs></defs>
    <g id="case" stroke="none" stroke-width="1" fill="none" fill-rule="evenodd">
        <g id="04.00-tablet-portrait" transform="translate(-46.000000, -48.000000)" fill="#57B0B6">
            <g id="Brickson-Brandmark" transform="translate(46.000000, 48.000000)">
                <path d="M40.5,0 C18.144,0 0,18.144 0,40.5 C0,62.856 18.144,81 40.5,81 C62.856,81 81,62.856 81,40.5 C81,18.144 62.802,0 40.5,0 L40.5,0 L40.5,0 Z M35.37,63.882 C33.912,63.18 30.348,61.83 29.106,61.236 L29.106,52.272 C30.024,52.164 31.104,51.84 32.292,51.354 C33.48,50.868 34.722,50.328 35.91,49.734 C37.152,49.14 38.286,48.546 39.366,47.952 C40.446,47.358 41.31,46.818 41.904,46.494 L42.012,46.494 L46.548,46.494 C47.898,46.494 49.194,46.764 50.436,47.25 C51.678,47.79 52.758,48.492 53.676,49.41 C54.594,50.328 55.35,51.408 55.89,52.65 C56.43,53.892 56.7,55.188 56.7,56.592 C56.7,57.996 56.484,59.346 55.89,60.48 C54.972,61.992 49.41,70.632 35.37,63.882 L35.37,63.882 L35.37,63.882 Z M23.49,19.494 C24.03,19.818 24.57,20.034 25.218,20.25 L25.218,37.638 C23.922,38.34 22.896,39.258 22.032,40.446 C21.222,41.634 20.79,43.038 20.79,44.658 C20.79,46.17 21.222,47.574 22.032,48.816 C22.842,50.058 23.922,50.976 25.218,51.57 L25.218,61.236 C24.732,61.344 24.246,61.56 23.814,61.776 C17.334,56.646 13.5,48.816 13.5,40.554 C13.446,32.238 17.118,24.678 23.49,19.494 L23.49,19.494 L23.49,19.494 Z M25.758,41.904 C26.514,41.148 27.378,40.77 28.404,40.77 C28.998,40.77 30.132,41.148 31.698,41.85 C33.318,42.552 35.154,43.47 37.206,44.658 C35.1,45.846 33.264,46.764 31.698,47.412 C30.078,48.114 28.998,48.438 28.404,48.438 C27.378,48.438 26.46,48.06 25.758,47.358 C25.002,46.602 24.678,45.738 24.678,44.712 C24.678,43.578 25.056,42.66 25.758,41.904 L25.758,41.904 L25.758,41.904 Z M24.462,71.28 C23.706,70.524 23.328,69.606 23.328,68.58 C23.328,67.554 23.706,66.636 24.462,65.934 C25.218,65.178 26.082,64.854 27.108,64.854 C27.702,64.854 28.836,65.232 30.402,65.934 C32.022,66.636 33.858,67.554 35.91,68.634 C33.804,69.822 31.968,70.74 30.402,71.442 C28.782,72.144 27.702,72.522 27.108,72.522 C26.082,72.414 25.218,72.036 24.462,71.28 L24.462,71.28 L24.462,71.28 Z M57.348,47.736 C55.674,45.846 53.784,44.442 51.624,43.524 C52.11,43.2 52.596,42.876 53.082,42.498 C53.568,42.12 54.054,41.688 54.486,41.202 C56.214,39.528 57.51,37.638 58.374,35.424 C59.292,33.264 59.724,30.942 59.724,28.566 C59.724,25.056 58.806,21.924 57.024,19.17 C63.396,24.138 67.5,31.806 67.5,40.5 C67.5,47.52 64.746,53.946 60.264,58.806 C60.372,58.104 60.48,57.348 60.48,56.592 C60.48,53.298 59.454,50.328 57.348,47.736 L57.348,47.736 L57.348,47.736 Z M40.392,14.688 L41.85,14.688 C43.74,14.688 45.576,15.066 47.304,15.768 C49.032,16.524 50.49,17.496 51.786,18.738 C53.028,19.98 54.054,21.492 54.756,23.166 C55.512,24.84 55.836,26.622 55.836,28.566 C55.836,30.456 55.458,32.292 54.756,33.966 C54,35.64 53.028,37.152 51.786,38.394 C50.544,39.636 49.032,40.662 47.358,41.418 C45.684,42.174 43.848,42.552 41.958,42.552 L41.58,42.552 C40.824,42.12 39.96,41.58 38.88,40.986 C37.8,40.392 36.666,39.798 35.478,39.258 C34.29,38.718 33.102,38.232 31.968,37.8 C30.834,37.368 29.862,37.098 29.052,36.99 L29.052,20.142 C29.97,19.926 30.996,19.548 32.076,19.062 C33.156,18.576 34.236,18.036 35.316,17.496 C36.342,16.956 37.314,16.416 38.232,15.93 C39.15,15.39 39.852,15.012 40.392,14.688 L40.392,14.688 L40.392,14.688 Z M30.456,15.498 C28.836,16.2 27.756,16.578 27.162,16.578 C26.136,16.578 25.218,16.2 24.516,15.498 C23.76,14.742 23.382,13.878 23.382,12.852 C23.382,11.826 23.76,10.908 24.516,10.152 C25.272,9.396 26.136,9.018 27.162,9.018 C27.756,9.018 28.89,9.396 30.456,10.098 C32.076,10.8 33.912,11.718 35.964,12.906 C33.912,13.878 32.076,14.796 30.456,15.498 L30.456,15.498 L30.456,15.498 Z M3.888,40.5 C3.888,27.972 10.206,16.848 19.872,10.26 C19.602,11.07 19.44,11.88 19.44,12.744 C19.44,14.256 19.872,15.606 20.682,16.794 C13.662,22.68 9.666,31.212 9.666,40.446 C9.666,49.626 13.824,58.374 20.844,64.206 C19.926,65.448 19.494,66.906 19.494,68.472 C19.494,69.228 19.602,69.93 19.818,70.578 C10.152,64.044 3.888,52.974 3.888,40.5 L3.888,40.5 L3.888,40.5 Z M40.5,77.166 C36.936,77.166 33.426,76.626 30.186,75.654 C30.24,75.654 30.24,75.654 30.294,75.6 C31.59,75.168 36.666,72.684 37.8,72.036 C38.61,71.604 38.718,71.604 39.258,71.28 C48.168,71.766 55.08,67.608 55.242,67.554 C64.8,62.262 71.388,52.11 71.388,40.5 C71.388,23.49 57.348,9.882 41.256,9.666 L38.61,9.666 C37.422,9.072 35.316,7.938 34.02,7.344 C32.724,6.75 31.482,6.21 30.186,5.724 C29.97,5.67 29.754,5.562 29.538,5.508 C32.994,4.428 36.612,3.834 40.446,3.834 C60.642,3.834 77.058,20.25 77.058,40.446 C77.058,60.642 60.696,77.166 40.5,77.166 L40.5,77.166 L40.5,77.166 Z" id="Shape"></path>
            </g>
        </g>
    </g>
</svg>