<?xml version="1.0" encoding="UTF-8" standalone="no"?>
<svg width="35px" height="40px" viewBox="0 0 35 40" version="1.1" xmlns="http://www.w3.org/2000/svg" xmlns:xlink="http://www.w3.org/1999/xlink">
    <!-- Generator: Sketch 40.3 (33839) - http://www.bohemiancoding.com/sketch -->
    <title>buffalo_h40w35</title>
    <desc>Created with Sketch.</desc>
    <defs></defs>
    <g id="Page-1" stroke="none" stroke-width="1" fill="none" fill-rule="evenodd">
        <g id="Desktop-HD" transform="translate(-805.000000, -657.000000)" fill="#FFFFFF">
            <g id="buffalo_h40w35" transform="translate(805.000000, 657.000000)">
                <path d="M9.83909516,11.0172268 C9.59823788,11.0796889 9.35702431,11.1378922 9.10939737,11.201064 C12.0445782,6.31056835 14.6801126,1.92189856 14.6801126,1.92189856 L14.9380722,1.4871484 C15.4543476,0.630424415 16.3985367,0.0952380952 17.3997333,0.0952380952 C18.40093,0.0952380952 19.3426249,0.630424415 19.8567626,1.4871484 L24.3404134,8.95633361 C24.0304344,8.72032638 23.6965834,8.49674058 23.3292404,8.30438582 C21.247749,4.8331276 19.662224,2.19623479 19.662224,2.19623479 L19.4035518,1.76148463 C18.9816953,1.0612707 18.2135174,0.62581074 17.3997333,0.62581074 C16.5816737,0.62581074 15.8156335,1.0612707 15.393777,1.76148463 L9.83980775,11.0172268 L9.83909516,11.0172268 Z M2.03474933,24.0224673 L1.68914052,24.6009512 L1.69697907,24.5846259 C1.53949546,24.8983558 1.45576549,25.2578676 1.45576549,25.6280263 C1.45576549,26.2462588 1.69804796,26.8275818 2.13629419,27.2641065 C2.57810339,27.7027605 3.1624317,27.9433814 3.78238977,27.9433814 L31.0177895,27.9433814 C32.3004613,27.9433814 33.3444137,26.9045947 33.3444137,25.6276714 C33.3444137,25.2578676 33.2624653,24.8983558 33.1056943,24.584271 L33.1163832,24.6013061 L30.782633,20.718721 C30.8218257,20.6832312 30.8574555,20.6548393 30.8859593,20.6228985 C30.9679078,20.534174 31.0498563,20.4135086 31.1389307,20.2821964 L33.5688813,24.3351325 L33.5760073,24.3457795 L33.5795703,24.3564264 C33.775534,24.7432653 33.8788604,25.183339 33.8788604,25.6376085 C33.8788604,26.3935415 33.5831332,27.1104356 33.0415607,27.6463317 C32.5035511,28.1822278 31.7873926,28.4803422 31.0249154,28.4803422 L3.78203348,28.4803422 C3.01741851,28.4803422 2.29983485,28.1822278 1.76075636,27.6463317 C1.22203417,27.0994338 0.924525555,26.3860886 0.924525555,25.6266067 C0.924525555,25.1751763 1.0278519,24.7322635 1.22452826,24.3454246 L1.22880383,24.3372619 L1.23094162,24.326615 L1.62286914,23.6771515 C1.7386659,23.8120128 1.881185,23.9255801 2.03439303,24.0178536 L2.03474933,24.0224673 Z M30.6846511,14.8394792 C29.7554266,14.2709325 26.9542137,13.8741564 26.9292728,16.6764318 C26.9249973,17.0348788 27.3532671,17.2975034 27.6970945,17.3152483 C28.0997109,17.3294442 28.4952014,17.2620136 28.5771499,16.7864502 C28.6840392,16.1369867 28.6982911,14.8309617 30.6899955,14.8451576 L30.6846511,14.8394792 Z M28.322397,19.4914834 C28.5468646,19.7569472 29.1197914,19.5979528 28.9184831,19.4645112 C28.7189564,19.3331989 28.5194297,18.9378424 28.465985,18.7518758 C28.3341548,18.8583452 28.0918724,19.2274392 28.3199029,19.4900638 L28.322397,19.4914834 Z M3.6209869,14.4022448 C3.01029256,14.7727584 2.50684384,15.2490316 2.55921961,15.6443881 C2.61195168,16.0411642 3.05019791,16.8457181 2.82359254,17.3642243 C2.31978753,18.52829 1.68201456,18.5779757 1.49531454,18.8689922 C1.73652812,18.4466634 1.49531454,17.7297693 1.68201456,17.2825977 C1.86871458,16.8318771 2.34722245,16.491175 2.26741176,16.0120625 C2.18546328,15.5329501 1.36241549,14.1062598 4.23061234,13.13029 C7.09524621,12.1472223 11.7698726,11.1996444 13.1487449,10.5892197 C14.5276172,9.978795 18.4611443,7.96297385 20.9516655,8.15461882 C24.1761601,8.40304748 25.6512328,11.28482 26.7878226,12.1472223 C29.0574393,13.8649291 32.4672087,13.0877023 32.8413213,15.4264807 C33.0800408,16.9312486 32.8128175,17.410361 32.4672087,17.8575326 C32.1215999,18.3082532 31.5622124,18.8086595 31.8543766,19.4687699 C32.1465407,20.1288804 31.4018784,19.2309882 31.3234929,19.0961269 C31.2415444,18.9648146 30.7356016,19.9691762 30.4719413,20.2601927 C30.204718,20.5512091 29.3567294,21.129693 29.3816702,21.5804136 C29.410174,22.0275852 29.4564927,22.8261059 28.1880728,22.4818547 C27.8923456,22.4002282 27.1654982,22.1234076 27.1654982,22.1234076 C27.1654982,22.1234076 26.410147,22.804812 26.6595554,23.4695361 C26.6987482,23.5760055 25.4374542,22.8896326 24.8958816,22.3462836 C24.2445693,21.6968201 24.4291315,21.0651015 24.3899388,21.0498409 C24.197538,20.9859593 23.4493127,21.1030756 23.3673643,21.2095451 C23.1999043,21.4345505 23.3816162,21.6581362 23.3816162,21.8448126 C23.3816162,22.0293596 23.41012,22.1869344 23.3032307,22.3736108 C23.1963413,22.5602872 23.6221172,23.1934254 24.0208143,23.4312071 C24.4163048,23.6689888 25.0006331,23.6689888 25.2144118,24.2247592 C25.2357896,24.2808331 25.7966023,24.2911252 25.8521847,25.0978085 C25.8521847,25.0978085 25.5172649,25.3866956 25.2261696,25.4030209 C24.4690369,25.4431244 24.217847,25.3093278 24.217847,25.3093278 C24.217847,25.3093278 24.0753279,24.7805296 24.0218832,24.5697202 C23.9720015,24.3723968 22.8781675,24.1189996 22.479114,23.8031403 C22.0836235,23.483732 21.8698448,22.6649821 21.5798185,22.4545276 C21.2876543,22.2415887 20.7674596,22.0463948 20.6488125,22.2167458 C20.5312342,22.3906459 20.6131827,23.3133809 20.8447762,23.4766341 C21.2260148,23.7428076 21.8702011,23.7995913 22.0312477,24.3709772 C22.0476374,24.4288256 22.5931293,24.4998053 22.5763833,25.308618 C22.5763833,25.308618 22.221867,25.5534977 21.9304155,25.5428507 C21.1715013,25.5180079 20.9327818,25.3547548 20.9327818,25.3547548 C20.9327818,25.3547548 20.8650852,24.932426 20.8294554,24.7159382 C20.7998827,24.5171953 19.7024857,24.0629257 19.3330049,23.7151256 C18.9660182,23.3673254 18.6506947,22.6397844 18.5527128,22.2955332 C18.2890525,21.3727982 17.2379741,20.9646654 17.0434356,20.8972347 C16.6336932,20.7517265 15.1860554,20.858196 14.1894906,20.5927322 C13.1954199,20.3265586 11.5742652,19.4293762 11.2311504,19.4677052 C10.988868,19.4936128 10.5363698,19.8091172 10.194324,20.074581 C9.67056632,20.4798746 7.94608523,20.9355637 7.89264057,21.2553269 C7.83919591,21.5747352 7.86769973,21.7504098 7.83919591,21.9260843 C7.80356613,22.1368938 8.28100511,22.7366715 8.63730286,23.0709855 C8.97685461,23.3868448 9.24300903,23.1575807 9.54942509,23.6672143 C9.58149189,23.7169001 10.3094082,23.7928483 10.3653469,24.5995316 C10.3653469,24.5995316 10.030427,24.8586072 9.73897549,24.8728031 C8.98077389,24.9118419 8.83184143,24.7450398 8.83184143,24.7450398 C8.83184143,24.7450398 8.65974962,24.344005 8.57174407,24.1452621 C8.40428413,23.8826375 7.75760372,24.2801233 7.4137764,23.8435987 C7.30866856,23.7140609 7.21781264,22.6106827 6.58003967,22.3118585 C6.01352626,22.0439105 6.11899039,21.6127093 6.29713926,21.3060773 C7.46579587,19.2962895 6.84761928,19.1199051 6.72469656,18.9974653 C6.51804387,18.7902048 6.89928245,19.9663371 4.13940012,20.5288505 C3.79735428,20.6012497 3.96303273,21.2173528 3.80448023,21.4998517 C3.64521514,21.7837702 3.30922637,22.0889825 3.22157712,22.2415887 C3.1146878,22.4261357 3.36409622,22.7047307 3.71683099,23.0095882 C4.06814057,23.3112516 4.25697837,23.2970556 4.36885586,23.8797983 C4.3795448,23.936582 4.90330248,24.2304376 4.81422805,25.0332171 C4.81422805,25.0332171 4.44082801,25.235509 4.14902015,25.1964702 C3.3993697,25.1041967 3.27965366,24.915036 3.27965366,24.915036 C3.27965366,24.915036 3.28250404,24.3791399 3.26753953,24.1601678 C3.19984296,23.8549554 2.08819399,23.6796358 1.9136081,23.1558062 C1.86016344,22.9975216 2.05434571,22.265012 2.21788637,21.5303729 C2.44591693,20.513235 1.97916688,19.7594315 2.29805337,19.5997273 C3.11041223,19.1951435 4.14367569,18.3373548 3.90317471,17.1935183 C3.79628539,16.693112 3.21195708,15.6873308 3.61101056,14.3915979 L3.6209869,14.4022448 Z" id="Shape"></path>
                <path d="M0.0377225916,34.7105655 L1.41926582,34.7105655 L1.41926582,36.4114583 C1.55596422,36.2686005 1.71114818,36.1614587 1.88482236,36.0900298 C2.05849655,36.0186008 2.25065575,35.9828869 2.46130573,35.9828869 C2.89605144,35.9828869 3.25571968,36.1385773 3.54032125,36.4499628 C3.82492282,36.7613483 3.96722147,37.2083304 3.96722147,37.7909226 C3.96722147,38.1793174 3.90223468,38.5213899 3.77225916,38.8171503 C3.64228364,39.1129107 3.46244952,39.3338906 3.2327514,39.4800967 C3.00305329,39.6263028 2.74814822,39.6994048 2.46802857,39.6994048 C2.22824614,39.6994048 2.00863563,39.648066 1.80919043,39.5453869 C1.6590463,39.4650294 1.49545887,39.3143612 1.31842325,39.093378 L1.31842325,39.6190476 L0.0377225916,39.6190476 L0.0377225916,34.7105655 Z M1.40918157,37.8311012 C1.40918157,38.1369063 1.46688535,38.3584443 1.58229465,38.4957217 C1.69770395,38.6329992 1.84392421,38.7016369 2.02095983,38.7016369 C2.18454971,38.7016369 2.32180629,38.6341153 2.43273367,38.4990699 C2.54366105,38.3640246 2.59912391,38.1369064 2.59912391,37.8177083 C2.59912391,37.5364569 2.54478151,37.3299858 2.43609509,37.1982887 C2.32740866,37.0665916 2.1957544,37.000744 2.04112835,37.000744 C1.8551289,37.000744 1.70330632,37.0693818 1.58565607,37.2066592 C1.46800581,37.3439367 1.40918157,37.5520819 1.40918157,37.8311012 L1.40918157,37.8311012 Z M8.38412611,39.6190476 L7.10678687,39.6190476 L7.10678687,39.0431548 C6.9163055,39.2797631 6.7241463,39.4482882 6.5303035,39.5487351 C6.3364607,39.649182 6.09836256,39.6994048 5.81600195,39.6994048 C5.43952113,39.6994048 5.14427944,39.5872407 4.93026803,39.3629092 C4.71625661,39.1385777 4.60925251,38.7931571 4.60925251,38.3266369 L4.60925251,36.063244 L5.9840729,36.063244 L5.9840729,38.0186012 C5.9840729,38.2418166 6.02552999,38.4002972 6.10844541,38.4940476 C6.19136082,38.5877981 6.30788885,38.6346726 6.45803299,38.6346726 C6.62162287,38.6346726 6.75551805,38.5721732 6.85972256,38.4471726 C6.96392708,38.322172 7.01602855,38.0978439 7.01602855,37.7741815 L7.01602855,36.063244 L8.38412611,36.063244 L8.38412611,39.6190476 Z M10.7371194,36.063244 L11.3892347,36.063244 L11.3892347,37.0610119 L10.7371194,37.0610119 L10.7371194,39.6190476 L9.36566047,39.6190476 L9.36566047,37.0610119 L8.85472477,37.0610119 L8.85472477,36.063244 L9.36566047,36.063244 L9.36566047,35.9025298 C9.36566047,35.7574398 9.38134694,35.5978431 9.41272034,35.4237351 C9.44409374,35.2496271 9.50291798,35.1073294 9.58919484,34.9968378 C9.67547169,34.8863462 9.79648157,34.7970614 9.9522281,34.7289807 C10.1079746,34.6609 10.3359886,34.6268601 10.6362769,34.6268601 C10.8760593,34.6268601 11.2245229,34.6547616 11.6816782,34.7105655 L11.5304143,35.5342262 C11.3668245,35.5074403 11.23461,35.4940476 11.1337669,35.4940476 C11.0105142,35.4940476 10.9219978,35.5146947 10.8682148,35.5559896 C10.8144318,35.5972844 10.7763361,35.662574 10.7539265,35.7518601 C10.7427218,35.8009675 10.7371194,35.9047611 10.7371194,36.063244 L10.7371194,36.063244 Z M13.4161704,36.063244 L14.0682857,36.063244 L14.0682857,37.0610119 L13.4161704,37.0610119 L13.4161704,39.6190476 L12.0447115,39.6190476 L12.0447115,37.0610119 L11.5337758,37.0610119 L11.5337758,36.063244 L12.0447115,36.063244 L12.0447115,35.9025298 C12.0447115,35.7574398 12.0603979,35.5978431 12.0917713,35.4237351 C12.1231447,35.2496271 12.181969,35.1073294 12.2682458,34.9968378 C12.3545227,34.8863462 12.4755326,34.7970614 12.6312791,34.7289807 C12.7870256,34.6609 13.0150396,34.6268601 13.3153279,34.6268601 C13.5551103,34.6268601 13.9035739,34.6547616 14.3607292,34.7105655 L14.2094653,35.5342262 C14.0458755,35.5074403 13.913661,35.4940476 13.8128179,35.4940476 C13.6895652,35.4940476 13.6010487,35.5146947 13.5472658,35.5559896 C13.4934828,35.5972844 13.4553871,35.662574 13.4329775,35.7518601 C13.4217727,35.8009675 13.4161704,35.9047611 13.4161704,36.063244 L13.4161704,36.063244 Z M15.8195851,37.2150298 L14.511993,37.077753 C14.5612941,36.8500733 14.6324434,36.6709456 14.7254432,36.5403646 C14.8184429,36.4097836 14.9523381,36.2965035 15.1271327,36.2005208 C15.2526263,36.1313241 15.4251775,36.0777532 15.6447913,36.0398065 C15.8644051,36.0018599 16.101943,35.9828869 16.3574121,35.9828869 C16.7675073,35.9828869 17.0969231,36.0057661 17.3456693,36.0515253 C17.5944156,36.0972845 17.801701,36.1927076 17.9675318,36.3377976 C18.0840616,36.4382445 18.1759395,36.5805422 18.2431682,36.7646949 C18.3103969,36.9488476 18.3440108,37.1246271 18.3440108,37.2920387 L18.3440108,38.8623512 C18.3440108,39.0297627 18.3546552,39.1608998 18.3759442,39.2557664 C18.3972333,39.3506329 18.4437325,39.4717255 18.5154431,39.6190476 L17.2313811,39.6190476 C17.179839,39.5275293 17.1462252,39.4577755 17.1305385,39.4097842 C17.1148518,39.3617929 17.0991653,39.2864588 17.0834786,39.1837798 C16.904202,39.3556556 16.7260486,39.4784223 16.549013,39.5520833 C16.3069896,39.6502981 16.0257537,39.6994048 15.7052968,39.6994048 C15.2795149,39.6994048 14.9562617,39.6011915 14.7355274,39.4047619 C14.5147931,39.2083324 14.4044276,38.9661473 14.4044276,38.6781994 C14.4044276,38.4081088 14.4839804,38.1860128 14.6430884,38.0119048 C14.8021964,37.8377967 15.0957573,37.7083338 15.5237802,37.6235119 C16.0369594,37.5208328 16.3697365,37.4488469 16.5221216,37.4075521 C16.6745067,37.3662572 16.8358532,37.3121283 17.006166,37.2451637 C17.006166,37.0777521 16.9714317,36.9605658 16.901962,36.8936012 C16.8324923,36.8266366 16.710362,36.7931548 16.5355673,36.7931548 C16.3114716,36.7931548 16.1434023,36.8288687 16.0313545,36.9002976 C15.9439571,36.9561015 15.873368,37.0610111 15.8195851,37.2150298 L15.8195851,37.2150298 Z M17.006166,37.9315476 C16.8179256,37.9985122 16.6218448,38.0576634 16.4179176,38.109003 C16.140039,38.1826641 15.9641264,38.255208 15.8901749,38.3266369 C15.8139823,38.400298 15.7758866,38.4840025 15.7758866,38.577753 C15.7758866,38.6848964 15.8134221,38.7725071 15.8884941,38.8405878 C15.9635662,38.9086685 16.0739317,38.9427083 16.2195939,38.9427083 C16.371979,38.9427083 16.5137174,38.9058783 16.6448134,38.8322173 C16.7759094,38.7585562 16.8689078,38.6687133 16.9238112,38.562686 C16.9787147,38.4566587 17.006166,38.3188253 17.006166,38.1491815 L17.006166,37.9315476 Z M19.2112569,34.7105655 L20.5827159,34.7105655 L20.5827159,39.6190476 L19.2112569,39.6190476 L19.2112569,34.7105655 Z M21.2886139,37.8511905 C21.2886139,37.308777 21.4723696,36.8617949 21.8398866,36.5102307 C22.2074036,36.1586664 22.7037682,35.9828869 23.3289952,35.9828869 C24.0438606,35.9828869 24.5839232,36.1893581 24.9491992,36.6023065 C25.2427646,36.9348975 25.3895451,37.3444916 25.3895451,37.8311012 C25.3895451,38.3779789 25.2074701,38.8260771 24.8433145,39.1754092 C24.479159,39.5247413 23.9755114,39.6994048 23.3323566,39.6994048 C22.7586716,39.6994048 22.2948004,39.5543169 21.9407292,39.2641369 C21.5059835,38.9047601 21.2886139,38.4337827 21.2886139,37.8511905 L21.2886139,37.8511905 Z M22.6600728,37.8478423 C22.6600728,38.1648081 22.7244994,38.3991808 22.8533544,38.5509673 C22.9822095,38.7027537 23.1441162,38.7786458 23.3390795,38.7786458 C23.5362837,38.7786458 23.6981905,38.7038698 23.8248045,38.5543155 C23.9514186,38.4047612 24.0147247,38.1648082 24.0147247,37.8344494 C24.0147247,37.5264122 23.9508584,37.2970618 23.8231238,37.1463914 C23.6953893,36.995721 23.5374041,36.9203869 23.3491637,36.9203869 C23.1497185,36.9203869 22.9850107,36.996837 22.8550351,37.1497396 C22.7250596,37.3026421 22.6600728,37.5353407 22.6600728,37.8478423 L22.6600728,37.8478423 Z M26.0517447,38.2529762 L27.513962,38.2529762 L27.513962,39.6190476 L26.0517447,39.6190476 L26.0517447,38.2529762 Z M28.340871,36.063244 L29.6148489,36.063244 L29.6148489,36.6424851 C29.8053302,36.4058768 29.9980497,36.2367937 30.1930129,36.1352307 C30.3879762,36.0336676 30.6255141,35.9828869 30.9056338,35.9828869 C31.2843556,35.9828869 31.5807177,36.095051 31.7947291,36.3193824 C32.0087405,36.5437139 32.1157446,36.8902506 32.1157446,37.359003 L32.1157446,39.6190476 L30.7409242,39.6190476 L30.7409242,37.6636905 C30.7409242,37.4404751 30.6994672,37.2825525 30.6165517,37.1899182 C30.5336363,37.0972838 30.4171083,37.0509673 30.2669642,37.0509673 C30.1011333,37.0509673 29.9666779,37.1134666 29.8635939,37.2384673 C29.7605098,37.3634679 29.7089686,37.587796 29.7089686,37.9114583 L29.7089686,39.6190476 L28.340871,39.6190476 L28.340871,36.063244 Z M32.9796293,34.7105655 L34.3510883,34.7105655 L34.3510883,39.6190476 L32.9796293,39.6190476 L32.9796293,34.7105655 Z" id="buffalo.nl"></path>
            </g>
        </g>
    </g>
</svg>