<?xml version="1.0" encoding="UTF-8" standalone="no"?>
<svg width="69px" height="80px" viewBox="0 0 69 80" version="1.1" xmlns="http://www.w3.org/2000/svg" xmlns:xlink="http://www.w3.org/1999/xlink">
    <!-- Generator: Sketch 40.3 (33839) - http://www.bohemiancoding.com/sketch -->
    <title>buffalo_h80w69</title>
    <desc>Created with Sketch.</desc>
    <defs></defs>
    <g id="Page-1" stroke="none" stroke-width="1" fill="none" fill-rule="evenodd">
        <g id="Desktop-HD" transform="translate(-805.000000, -536.000000)" fill="#FFFFFF">
            <g id="buffalo_h80w69" transform="translate(805.000000, 536.000000)">
                <path d="M19.6781903,22.0344536 C19.1964758,22.1593778 18.7140486,22.2757843 18.2187947,22.4021281 C24.0891564,12.6211367 29.3602253,3.84379713 29.3602253,3.84379713 L29.8761444,2.97429681 C30.9086953,1.26084883 32.7970733,0.19047619 34.7994666,0.19047619 C36.80186,0.19047619 38.6852499,1.26084883 39.7135252,2.97429681 L48.6808268,17.9126672 C48.0608687,17.4406528 47.3931668,16.9934812 46.6584808,16.6087716 C42.495498,9.66625519 39.324448,4.39246958 39.324448,4.39246958 L38.8071037,3.52296926 C37.9633906,2.12254139 36.4270347,1.25162148 34.7994666,1.25162148 C33.1633474,1.25162148 31.6312671,2.12254139 30.787554,3.52296926 L19.6796155,22.0344536 L19.6781903,22.0344536 Z M4.06949866,48.0449346 L3.37828104,49.2019024 L3.39395814,49.1692518 C3.07899093,49.7967116 2.91153099,50.5157351 2.91153099,51.2560526 C2.91153099,52.4925175 3.39609592,53.6551637 4.27258838,54.528213 C5.15620679,55.405521 6.32486339,55.8867628 7.56477955,55.8867628 L62.0355789,55.8867628 C64.6009227,55.8867628 66.6888275,53.8091894 66.6888275,51.2553428 C66.6888275,50.5157351 66.5249305,49.7967116 66.2113885,49.168542 L66.2327664,49.2026122 L61.5652659,41.437442 C61.6436514,41.3664624 61.714911,41.3096787 61.7719186,41.245797 C61.9358156,41.068348 62.0997125,40.8270173 62.2778614,40.5643927 L67.1377626,48.6702651 L67.1520146,48.691559 L67.1591405,48.7128529 C67.551068,49.4865307 67.7577207,50.366678 67.7577207,51.2752171 C67.7577207,52.7870829 67.1662665,54.2208712 66.0831213,55.2926634 C65.0071021,56.3644557 63.5747852,56.9606845 62.0498308,56.9606845 L7.56406695,56.9606845 C6.03483703,56.9606845 4.59966971,56.3644557 3.52151273,55.2926634 C2.44406835,54.1988675 1.84905111,52.7721772 1.84905111,51.2532134 C1.84905111,50.3503526 2.0557038,49.464527 2.44905651,48.6908492 L2.45760766,48.6745239 L2.46188323,48.65323 L3.24573827,47.354303 C3.47733181,47.6240255 3.76237001,47.8511603 4.06878607,48.0357073 L4.06949866,48.0449346 Z M61.3693021,29.6789585 C59.5108531,28.541865 53.9084273,27.7483129 53.8585457,33.3528635 C53.8499945,34.0697577 54.7065343,34.5950068 55.3941889,34.6304966 C56.1994219,34.6588885 56.9904028,34.5240272 57.1542998,33.5729003 C57.3680785,32.2739733 57.3965823,29.6619234 61.3799911,29.6903152 L61.3693021,29.6789585 Z M56.644794,38.9829668 C57.0937292,39.5138944 58.2395827,39.1959057 57.8369663,38.9290223 C57.4379128,38.6663977 57.0388593,37.8756848 56.93197,37.5037516 C56.6683097,37.7166904 56.1837447,38.4548785 56.6398059,38.9801276 L56.644794,38.9829668 Z M7.24197379,28.8044896 C6.02058512,29.5455168 5.01368769,30.4980633 5.11843923,31.2887762 C5.22390336,32.0823284 6.10039581,33.6914363 5.64718508,34.7284485 C4.63957506,37.05658 3.36402913,37.1559514 2.99062909,37.7379843 C3.47305624,36.8933269 2.99062909,35.4595386 3.36402913,34.5651954 C3.73742916,33.6637542 4.69444491,32.9823499 4.53482352,32.0241251 C4.37092656,31.0659002 2.72483097,28.2125196 8.46122468,26.2605801 C14.1904924,24.2944447 23.5397453,22.3992889 26.2974898,21.1784394 C29.0552344,19.95759 36.9222886,15.9259477 41.9033311,16.3092376 C48.3523203,16.806095 51.3024656,22.5696399 53.5756453,24.2944447 C58.1148785,27.7298582 64.9344174,26.1754045 65.6826427,30.8529614 C66.1600816,33.8624972 65.625635,34.820722 64.9344174,35.7150652 C64.2431998,36.6165064 63.1244248,37.617319 63.7087531,38.9375399 C64.2930814,40.2577608 62.8037569,38.4619764 62.6469859,38.1922539 C62.4830889,37.9296293 61.4712033,39.9383525 60.9438826,40.5203853 C60.409436,41.1024182 58.7134587,42.259386 58.7633404,43.1608271 C58.8203481,44.0551703 58.9129855,45.6522117 56.3761455,44.9637094 C55.7846913,44.8004563 54.3309965,44.2468153 54.3309965,44.2468153 C54.3309965,44.2468153 52.820294,45.609624 53.3191109,46.9390722 C53.3974964,47.1520111 50.8749083,45.7792652 49.7917632,44.6925673 C48.4891386,43.3936403 48.8582631,42.1302031 48.7798776,42.0996818 C48.395076,41.9719185 46.8986255,42.2061513 46.7347285,42.4190901 C46.3998087,42.8691009 46.7632324,43.3162725 46.7632324,43.6896253 C46.7632324,44.0587193 46.82024,44.3738688 46.6064613,44.7472216 C46.3926827,45.1205744 47.2442343,46.3868508 48.0416287,46.8624142 C48.8326097,47.3379777 50.0012663,47.3379777 50.4288236,48.4495185 C50.4715793,48.5616663 51.5932046,48.5822504 51.7043695,50.1956171 C51.7043695,50.1956171 51.0345297,50.7733912 50.4523392,50.8060418 C48.9380738,50.8862488 48.435694,50.6186556 48.435694,50.6186556 C48.435694,50.6186556 48.1506558,49.5610593 48.0437664,49.1394404 C47.9440031,48.7447937 45.7563349,48.2379992 44.958228,47.6062806 C44.167247,46.967464 43.7396897,45.3299643 43.1596369,44.9090551 C42.5753086,44.4831774 41.5349192,44.0927895 41.2976249,44.4334917 C41.0624684,44.7812918 41.2263654,46.6267619 41.6895525,46.9532681 C42.4520296,47.4856153 43.7404023,47.5991826 44.0624954,48.7419545 C44.0952748,48.8576513 45.1862585,48.9996105 45.1527665,50.617236 C45.1527665,50.617236 44.443734,51.1069954 43.8608309,51.0857015 C42.3430025,51.0360157 41.8655635,50.7095095 41.8655635,50.7095095 C41.8655635,50.7095095 41.7301704,49.8648521 41.6589108,49.4318764 C41.5997654,49.0343905 39.4049713,48.1258514 38.6660098,47.4302512 C37.9320364,46.7346509 37.3013894,45.2795687 37.1054257,44.5910664 C36.578105,42.7455964 34.4759483,41.9293308 34.0868712,41.7944695 C33.2673863,41.5034531 30.3721109,41.7163919 28.3789813,41.1854644 C26.3908398,40.6531172 23.1485304,38.8587525 22.4623009,38.9354105 C21.977736,38.9872256 21.0727397,39.6182344 20.388648,40.1491619 C19.3411326,40.9597492 15.8921705,41.8711275 15.7852811,42.5106538 C15.6783918,43.1494704 15.7353995,43.5008195 15.6783918,43.8521686 C15.6071323,44.2737875 16.5620102,45.4733431 17.2746057,46.1419711 C17.9537092,46.7736897 18.4860181,46.3151614 19.0988502,47.3344287 C19.1629838,47.4338001 20.6188164,47.5856965 20.7306939,49.1990632 C20.7306939,49.1990632 20.0608541,49.7172144 19.477951,49.7456063 C17.9615478,49.8236839 17.6636829,49.4900797 17.6636829,49.4900797 C17.6636829,49.4900797 17.3194992,48.68801 17.1434881,48.2905241 C16.8085683,47.765275 15.5152074,48.5602467 14.8275528,47.6871974 C14.6173371,47.4281218 14.4356253,45.2213654 13.1600793,44.6237171 C12.0270525,44.0878209 12.2379808,43.2254186 12.5942785,42.6121547 C14.9315917,38.5925789 13.6952386,38.2398102 13.4493931,37.9949305 C13.0360877,37.5804096 13.7985649,39.9326741 8.27880023,41.0577011 C7.59470856,41.2024995 7.92606546,42.4347056 7.60896047,42.9997034 C7.29043028,43.5675403 6.61845274,44.1779651 6.44315425,44.4831774 C6.2293756,44.8522714 6.72819244,45.4094614 7.43366198,46.0191763 C8.13628113,46.6225031 8.51395674,46.5941113 8.73771173,47.7595966 C8.75908959,47.873164 9.80660497,48.4608752 9.62845609,50.0664342 C9.62845609,50.0664342 8.88165602,50.471018 8.29804031,50.3929404 C6.7987394,50.2083934 6.55930731,49.830072 6.55930731,49.830072 C6.55930731,49.830072 6.56500807,48.7582798 6.53507906,48.3203356 C6.39968592,47.7099108 4.17638799,47.3592715 3.8272162,46.3116124 C3.72032687,45.9950433 4.10869141,44.530024 4.43577275,43.0607459 C4.89183386,41.02647 3.95833377,39.5188629 4.59610673,39.1994547 C6.22082445,38.390287 8.28735138,36.6747096 7.80634942,34.3870366 C7.59257077,33.3862239 6.42391417,31.3746616 7.22202112,28.7831957 L7.24197379,28.8044896 Z" id="Shape"></path>
                <path d="M0.0754451832,69.421131 L2.83853165,69.421131 L2.83853165,72.8229167 C3.11192843,72.537201 3.42229635,72.3229174 3.76964473,72.1800595 C4.1169931,72.0372017 4.5013115,71.9657738 4.92261146,71.9657738 C5.79210287,71.9657738 6.51143936,72.2771546 7.08064249,72.8999256 C7.64984563,73.5226966 7.93444293,74.4166608 7.93444293,75.5818452 C7.93444293,76.3586348 7.80446936,77.0427798 7.54451832,77.6343006 C7.28456728,78.2258214 6.92489904,78.6677813 6.46550281,78.9601935 C6.00610657,79.2526056 5.49629645,79.3988095 4.93605714,79.3988095 C4.45649229,79.3988095 4.01727126,79.296132 3.61838087,79.0907738 C3.3180926,78.9300587 2.99091775,78.6287224 2.6368465,78.186756 L2.6368465,79.2380952 L0.0754451832,79.2380952 L0.0754451832,69.421131 Z M2.81836313,75.6622024 C2.81836313,76.2738126 2.9337707,76.7168885 3.1645893,76.9914435 C3.39540789,77.2659984 3.68784842,77.4032738 4.04191967,77.4032738 C4.36909943,77.4032738 4.64361257,77.2682305 4.86546734,76.9981399 C5.0873221,76.7280492 5.19824782,76.2738127 5.19824782,75.6354167 C5.19824782,75.0729139 5.08956303,74.6599716 4.87219018,74.3965774 C4.65481732,74.1331832 4.3915088,74.0014881 4.0822567,74.0014881 C3.7102578,74.0014881 3.40661264,74.1387635 3.17131213,74.4133185 C2.93601162,74.6878734 2.81836313,75.1041639 2.81836313,75.6622024 L2.81836313,75.6622024 Z M16.7682522,79.2380952 L14.2135737,79.2380952 L14.2135737,78.0863095 C13.832611,78.5595262 13.4482926,78.8965764 13.060607,79.0974702 C12.6729214,79.2983641 12.1967251,79.3988095 11.6320039,79.3988095 C10.8790423,79.3988095 10.2885589,79.1744814 9.86053605,78.7258185 C9.43251322,78.2771555 9.21850501,77.5863142 9.21850501,76.6532738 L9.21850501,72.1264881 L11.9681458,72.1264881 L11.9681458,76.0372024 C11.9681458,76.4836332 12.05106,76.8005943 12.2168908,76.9880952 C12.3827216,77.1755962 12.6157777,77.2693452 12.916066,77.2693452 C13.2432457,77.2693452 13.5110361,77.1443465 13.7194451,76.8943452 C13.9278542,76.644344 14.0320571,76.1956878 14.0320571,75.5483631 L14.0320571,72.1264881 L16.7682522,72.1264881 L16.7682522,79.2380952 Z M21.4742389,72.1264881 L22.7784695,72.1264881 L22.7784695,74.1220238 L21.4742389,74.1220238 L21.4742389,79.2380952 L18.7313209,79.2380952 L18.7313209,74.1220238 L17.7094495,74.1220238 L17.7094495,72.1264881 L18.7313209,72.1264881 L18.7313209,71.8050595 C18.7313209,71.5148795 18.7626939,71.1956863 18.8254407,70.8474702 C18.8881875,70.4992542 19.005836,70.2146588 19.1783897,69.9936756 C19.3509434,69.7726923 19.5929631,69.5941227 19.9044562,69.4579613 C20.2159492,69.3217999 20.6719772,69.2537202 21.2725537,69.2537202 C21.7521186,69.2537202 22.4490458,69.3095233 23.3633564,69.421131 L23.0608287,71.0684524 C22.7336489,71.0148807 22.4692199,70.9880952 22.2675338,70.9880952 C22.0210285,70.9880952 21.8439955,71.0293895 21.7364296,71.1119792 C21.6288636,71.1945689 21.5526722,71.3251479 21.5078531,71.5037202 C21.4854435,71.601935 21.4742389,71.8095222 21.4742389,72.1264881 L21.4742389,72.1264881 Z M26.8323409,72.1264881 L28.1365715,72.1264881 L28.1365715,74.1220238 L26.8323409,74.1220238 L26.8323409,79.2380952 L24.0894229,79.2380952 L24.0894229,74.1220238 L23.0675515,74.1220238 L23.0675515,72.1264881 L24.0894229,72.1264881 L24.0894229,71.8050595 C24.0894229,71.5148795 24.1207958,71.1956863 24.1835426,70.8474702 C24.2462895,70.4992542 24.3639379,70.2146588 24.5364916,69.9936756 C24.7090454,69.7726923 24.9510651,69.5941227 25.2625582,69.4579613 C25.5740512,69.3217999 26.0300792,69.2537202 26.6306557,69.2537202 C27.1102206,69.2537202 27.8071478,69.3095233 28.7214584,69.421131 L28.4189307,71.0684524 C28.0917509,71.0148807 27.8273219,70.9880952 27.6256358,70.9880952 C27.3791305,70.9880952 27.2020975,71.0293895 27.0945316,71.1119792 C26.9869656,71.1945689 26.9107742,71.3251479 26.8659551,71.5037202 C26.8435455,71.601935 26.8323409,71.8095222 26.8323409,72.1264881 L26.8323409,72.1264881 Z M31.6391701,74.4300595 L29.0239861,74.155506 C29.1225882,73.7001465 29.2648869,73.3418912 29.4508863,73.0807292 C29.6368858,72.8195671 29.9046761,72.5930069 30.2542655,72.4010417 C30.5052527,72.2626481 30.8503549,72.1555063 31.2895825,72.0796131 C31.7288102,72.0037199 32.203886,71.9657738 32.7148242,71.9657738 C33.5350146,71.9657738 34.1938461,72.0115323 34.6913386,72.1030506 C35.1888311,72.1945689 35.603402,72.3854152 35.9350637,72.6755952 C36.1681232,72.8764891 36.351879,73.1610845 36.4863364,73.5293899 C36.6207938,73.8976953 36.6880215,74.2492543 36.6880215,74.5840774 L36.6880215,77.7247024 C36.6880215,78.0595255 36.7093103,78.3217996 36.7518885,78.5115327 C36.7944667,78.7012658 36.887465,78.9434509 37.0308863,79.2380952 L34.4627621,79.2380952 C34.3596781,79.0550586 34.2924504,78.9155511 34.261077,78.8195685 C34.2297036,78.7235858 34.1983306,78.5729177 34.1669572,78.3675595 C33.8084041,78.7113112 33.4520972,78.9568445 33.098026,79.1041667 C32.6139792,79.3005962 32.0515074,79.3988095 31.4105936,79.3988095 C30.5590299,79.3988095 29.9125234,79.2023829 29.4710548,78.8095238 C29.0295862,78.4166647 28.8088553,77.9322945 28.8088553,77.3563988 C28.8088553,76.8162175 28.9679608,76.3720256 29.2861768,76.0238095 C29.6043927,75.6755935 30.1915147,75.4166675 31.0475604,75.2470238 C32.0739188,75.0416656 32.7394731,74.8976939 33.0442433,74.8151042 C33.3490135,74.7325145 33.6717065,74.6242566 34.012332,74.4903274 C34.012332,74.1555043 33.9428633,73.9211316 33.803924,73.7872024 C33.6649846,73.6532731 33.420724,73.5863095 33.0711346,73.5863095 C32.6229432,73.5863095 32.2868046,73.6577374 32.0627089,73.8005952 C31.8879142,73.9122029 31.7467361,74.1220223 31.6391701,74.4300595 L31.6391701,74.4300595 Z M34.012332,75.8630952 C33.6358512,75.9970245 33.2436895,76.1153269 32.8358353,76.218006 C32.2800779,76.3653281 31.9282529,76.510416 31.7803497,76.6532738 C31.6279646,76.800596 31.5517732,76.968005 31.5517732,77.155506 C31.5517732,77.3697927 31.6268442,77.5450142 31.7769883,77.6811756 C31.9271324,77.817337 32.1478634,77.8854167 32.4391878,77.8854167 C32.743958,77.8854167 33.0274349,77.8117567 33.2896269,77.6644345 C33.5518189,77.5171124 33.7378155,77.3374267 33.8476224,77.125372 C33.9574293,76.9133174 34.012332,76.6376505 34.012332,76.2983631 L34.012332,75.8630952 Z M38.4225138,69.421131 L41.1654317,69.421131 L41.1654317,79.2380952 L38.4225138,79.2380952 L38.4225138,69.421131 Z M42.5772277,75.702381 C42.5772277,74.6175541 42.9447392,73.7235898 43.6797732,73.0204613 C44.4148071,72.3173328 45.4075363,71.9657738 46.6579905,71.9657738 C48.0877212,71.9657738 49.1678464,72.3787161 49.8983984,73.2046131 C50.4855292,73.869795 50.7790902,74.6889832 50.7790902,75.6622024 C50.7790902,76.7559578 50.4149401,77.6521542 49.686629,78.3508185 C48.9583179,79.0494827 47.9510227,79.3988095 46.6647133,79.3988095 C45.5173432,79.3988095 44.5896008,79.1086339 43.8814583,78.5282738 C43.0119669,77.8095202 42.5772277,76.8675653 42.5772277,75.702381 L42.5772277,75.702381 Z M45.3201457,75.6956845 C45.3201457,76.3296163 45.4489988,76.7983616 45.7067089,77.1019345 C45.9644189,77.4055075 46.2882324,77.5572917 46.678159,77.5572917 C47.0725674,77.5572917 47.3963809,77.4077396 47.6496091,77.108631 C47.9028372,76.8095223 48.0294494,76.3296164 48.0294494,75.6688988 C48.0294494,75.0528243 47.9017168,74.5941235 47.6462477,74.2927827 C47.3907785,73.9914419 47.0748083,73.8407738 46.6983275,73.8407738 C46.2994371,73.8407738 45.9700213,73.9936741 45.7100703,74.2994792 C45.4501192,74.6052843 45.3201457,75.0706814 45.3201457,75.6956845 L45.3201457,75.6956845 Z M52.1034893,76.5059524 L55.0279239,76.5059524 L55.0279239,79.2380952 L52.1034893,79.2380952 L52.1034893,76.5059524 Z M56.6817421,72.1264881 L59.2296977,72.1264881 L59.2296977,73.2849702 C59.6106605,72.8117536 59.9960993,72.4735873 60.3860259,72.2704613 C60.7759524,72.0673353 61.2510282,71.9657738 61.8112676,71.9657738 C62.5687111,71.9657738 63.1614354,72.1901019 63.5894582,72.6387649 C64.0174811,73.0874278 64.2314893,73.7805013 64.2314893,74.718006 L64.2314893,79.2380952 L61.4818485,79.2380952 L61.4818485,75.327381 C61.4818485,74.8809501 61.3989343,74.5651051 61.2331035,74.3798363 C61.0672726,74.1945675 60.8342166,74.1019345 60.5339283,74.1019345 C60.2022666,74.1019345 59.9333558,74.2269333 59.7271877,74.4769345 C59.5210197,74.7269358 59.4179372,75.175592 59.4179372,75.8229167 L59.4179372,79.2380952 L56.6817421,79.2380952 L56.6817421,72.1264881 Z M65.9592587,69.421131 L68.7021766,69.421131 L68.7021766,79.2380952 L65.9592587,79.2380952 L65.9592587,69.421131 Z" id="buffalo.nl"></path>
            </g>
        </g>
    </g>
</svg>