<?xml version="1.0" encoding="UTF-8" standalone="no"?>
<svg width="96px" height="80px" viewBox="0 0 96 80" version="1.1" xmlns="http://www.w3.org/2000/svg" xmlns:xlink="http://www.w3.org/1999/xlink">
    <!-- Generator: Sketch 40.3 (33839) - http://www.bohemiancoding.com/sketch -->
    <title>cta_h80w96</title>
    <desc>Created with Sketch.</desc>
    <defs>
        <path d="M16.6164588,40.4712989 L16.6164588,79.0214974 L95.3259421,79.0214974 L95.3259421,0 L16.6164588,0 L16.6164588,12.5644181 C16.5639858,12.5696862 16.513262,12.5731983 16.4625381,12.5793444 C16.4651617,12.5731983 8.74551051,14.0482662 1.23696956e-05,10.5361997 C1.23696956e-05,12.2922329 -0.0664534161,28.0965324 9.54484904,36.4903715 C12.1308928,38.9136974 14.494801,40.0761914 16.6164588,40.4712989 L16.6164588,40.4712989 Z" id="path-1"></path>
        <mask id="mask-2" maskContentUnits="userSpaceOnUse" maskUnits="objectBoundingBox" x="0" y="0" width="95.3259421" height="79.0214974" fill="white">
            <use xlink:href="#path-1"></use>
        </mask>
        <mask id="mask-4" maskContentUnits="userSpaceOnUse" maskUnits="objectBoundingBox" x="0" y="0" width="95.3259421" height="79.0214974" fill="white">
            <use xlink:href="#path-1"></use>
        </mask>
    </defs>
    <g id="Page-1" stroke="none" stroke-width="1" fill="none" fill-rule="evenodd">
        <g id="Desktop-HD" transform="translate(-809.000000, -99.000000)">
            <g id="cta_h80w96" transform="translate(809.000000, 99.000000)">
                <path d="M70.9541042,10.9917495 C70.9541042,10.9917495 67.6520819,10.6785807 65.8665833,10.6785807 C61.1258987,10.6785807 52.2107926,11.4069619 45.7996315,16.2883475 C37.7409985,22.4241673 35.9395737,31.222801 34.9716175,35.9528804 C34.812356,36.7358022 33.8780218,39.0784098 33.5736553,39.4857051 C33.334763,39.7847988 33.0958707,40.1067644 32.8720198,40.4296097 C30.4193924,43.9888251 29.0231997,48.6520482 28.6931744,54.3269118 C28.5604565,56.1214741 28.56665,58.0866959 28.7091006,60.180352 C28.926758,63.5090892 29.3549945,65.7997953 29.452321,66.2765859 C30.3335681,71.4183589 31.7394934,76.7158366 32.5242988,79.0214974 L43.1647381,79.0214974 C42.709958,77.9957819 38.1922394,67.0489514 36.9092994,60.5084754 C35.8316298,55.0192258 36.2421706,51.0553542 38.3231878,46.8442905 C39.8733333,44.4937657 42.0189399,43.8559923 43.1647381,43.6862126 C44.1353486,43.5428235 45.3191926,43.4979595 46.5826673,43.451336 C51.3074258,43.2727595 57.1885999,43.0510783 61.6284573,37.8741177 C70.9337541,27.0319701 70.9691455,13.3932961 70.9647216,12.8179806 L70.9541042,10.9917495 L70.9541042,10.9917495 Z M49.3715135,28.1984356 C46.2101723,31.7822822 45.6288678,33.8425102 45.6288678,33.8425102 C45.6288678,33.8425102 44.3742409,35.9449632 43.6292509,34.6307102 C42.7833952,33.1370009 44.0362525,29.7361293 48.7636654,25.6491015 C53.8821538,21.2216346 59.9411699,19.0514457 59.9411699,19.0514457 C59.9411699,19.0514457 53.8290666,23.1446313 49.3715135,28.1984356 Z" id="Combined-Shape" fill="#FFFFFF"></path>
                <path d="M34.6431187,32.7437047 C34.1299514,31.5923894 33.6798502,29.6437401 33.6798502,29.6437401 C33.2694892,27.5032049 32.4772766,24.1710496 31.1071028,21.1648375 C30.7528965,20.1011413 30.0444839,18.8727212 29.0786237,17.689863 C28.7822999,17.3043389 28.4721533,16.9363386 28.1438645,16.6033859 C26.2570679,14.7265843 23.7292443,13.1249067 20.9647071,12.8182397 C18.9500506,12.59043 17.4917573,12.5991919 16.2615382,12.7174777 C16.2649939,12.7113444 8.63919088,14.1833457 1.22193165e-05,10.6785807 C1.22193165e-05,12.4309632 -0.0656455385,28.2024055 9.42881181,36.5787938 C12.5682893,39.5490821 15.3760224,40.6224163 17.8157265,40.7082831 C20.4282141,41.1726644 23.4769802,41.01495 26.8488517,39.6060345 C26.845396,39.6121678 30.7658553,38.1673285 32.5878581,39.1469103 C32.9766211,39.516663 33.345514,39.93373 33.6738028,40.3998638 C35.2720509,42.3274845 35.9891027,44.199029 35.6348964,46.920479 C35.3100632,49.413243 34.5696856,51.6291307 33.8534977,54.434695 L36.2335914,64.5879991 C37.9199591,61.2514629 39.4387267,57.5784692 40.3337456,53.8003326 C41.4464719,49.0995666 41.7592101,45.4414682 40.4546941,41.3619217 C39.7756547,39.2380342 34.9722714,33.0994384 34.6448465,32.7445809 L34.6431187,32.7437047 Z M29.1520567,66.9134107 C27.002629,71.5440814 23.4190977,77.1376862 22.4618767,79.0214974 L33.692809,79.0214974 C33.3757511,77.7334963 29.1520567,66.9125345 29.1520567,66.9125345 L29.1520567,66.9134107 Z M26.7158083,30.9221031 C25.2108634,31.333913 19.9668819,30.4489599 16.6485734,28.8087299 C7.79946272,24.4330308 5.18351942,19.4404931 5.18351942,19.4404931 C5.18351942,19.4404931 11.1462805,24.4584404 16.7470601,26.1126894 C22.3452478,27.7686909 26.0255379,28.2479675 26.5628949,28.2970342 C27.1002518,28.3478533 27.6471118,28.456501 27.95985,28.8069775 C28.5663204,29.4790162 28.0090934,30.5663695 26.7158083,30.9221031 Z" id="Combined-Shape" fill="#FFFFFF"></path>
                <mask id="mask-3" fill="white">
                    <use xlink:href="#path-1"></use>
                </mask>
                <g id="a" stroke="#FFFFFF" mask="url(#mask-2)" stroke-width="4">
                    <use mask="url(#mask-4)" xlink:href="#path-1"></use>
                </g>
                <path d="M58.6411063,70.8439851 C57.3135434,71.1699617 55.8374117,71.5464909 53.462916,71.5464909 C48.80602,71.5464909 43.4262625,69.1827244 43.4262625,62.5429113 C43.4262625,56.4330281 47.6834995,53.3929037 53.4368513,53.3929037 C55.2127273,53.3929037 56.9399492,53.7955807 58.6150416,54.2976196 L58.2397097,58.0934172 C56.7392508,57.2654016 55.288315,56.8609814 53.6870725,56.8609814 C50.3855418,56.8609814 48.2308586,59.2753004 48.2308586,62.5437829 C48.2308586,65.9900708 50.6592213,68.0766699 54.0606668,68.0766699 C55.5871904,68.0766699 57.1397787,67.6731213 58.4160809,67.1702108 L58.6419752,70.8439851 L58.6411063,70.8439851 Z M63.7671672,57.163425 L59.4647514,57.163425 L59.4647514,53.6944756 L72.7290856,53.6944756 L72.7290856,57.163425 L68.4240632,57.163425 L68.4240632,71.2449189 L63.7671672,71.2449189 L63.7671672,57.163425 L63.7671672,57.163425 Z M82.238363,53.6944756 L76.5319277,53.6944756 L69.900195,71.2449189 L74.6292034,71.2449189 L76.0062893,67.4970591 L82.5641719,67.4970591 L83.8648013,71.2449189 L88.9708793,71.2449189 L82.2392318,53.6953472 L82.238363,53.6944756 Z M77.0836309,64.1797673 L79.3356224,57.3150826 L79.3860142,57.3150826 L81.4625033,64.1797673 L77.0836309,64.1797673 L77.0836309,64.1797673 Z" id="Shape" fill="#FFFFFF" mask="url(#mask-3)"></path>
            </g>
        </g>
    </g>
</svg>