<?xml version="1.0" encoding="UTF-8" standalone="no"?>
<svg width="128px" height="29px" viewBox="0 0 128 29" version="1.1" xmlns="http://www.w3.org/2000/svg" xmlns:xlink="http://www.w3.org/1999/xlink">
    <!-- Generator: Sketch 40.3 (33839) - http://www.bohemiancoding.com/sketch -->
    <title>evean_h20w128</title>
    <desc>Created with Sketch.</desc>
    <defs></defs>
    <g id="Page-1" stroke="none" stroke-width="1" fill="none" fill-rule="evenodd">
        <g id="Desktop-HD" transform="translate(-325.000000, -793.000000)" fill="#FFFFFF">
            <g id="evean_h20w128" transform="translate(325.000000, 793.000000)">
                <path d="M127.887012,14.4608108 C127.887012,6.68724324 121.544691,0.384054054 113.720099,0.384054054 C105.896296,0.384054054 99.5531852,6.68724324 99.5531852,14.4608108 C99.5531852,22.2359459 105.896296,28.5391351 113.720099,28.5391351 C121.544691,28.5391351 127.887012,22.2375135 127.887012,14.4623784 L127.887012,14.4608108 Z M124.468148,10.9902162 L122.864198,9.80121622 L123.333531,6.98272973 L123.313778,6.95921622 C123.147852,6.77110811 120.240198,4.263 120.058469,4.20813514 L120.026864,4.2002973 C119.750321,4.2002973 115.886617,6.01083784 115.444148,6.21462162 L115.412543,6.22245946 L115.404642,6.25381081 C115.396741,6.293 114.606617,10.6821892 115.831309,13.2294865 C116.194765,13.9819189 117.016494,14.4913784 117.593284,14.5462432 C118.256988,14.6089459 118.976,14.2013784 119.141926,14.0916486 L119.736889,14.5619189 L114.893432,20.4951622 L116.189235,21.6238108 L116.228741,21.5689459 C116.248494,21.5375946 118.369975,18.9197568 119.073185,18.0889459 C119.776395,17.2502973 121.825185,14.8440811 121.846519,14.8205676 L121.882864,14.7782432 L119.318914,12.2466216 L119.279407,12.3093243 C119.271506,12.3171622 118.72079,13.1244595 117.991506,13.1244595 C117.872988,13.1244595 117.754469,13.1009459 117.635951,13.0586216 C116.848198,12.7686216 116.727309,11.639973 116.640395,10.0880811 C116.600889,8.57694595 116.885333,7.48748649 116.935901,7.31348649 C117.963062,6.78835135 119.545679,6.02259459 119.769284,6.02259459 C119.943111,6.03827027 120.851753,7.01016216 121.452247,7.70772973 L121.02558,10.3765135 L124.216099,13.2114595 L127.481679,11.2269189 C127.331556,10.5716757 127.130864,9.93524324 126.889086,9.31840541 L126.878815,9.32624324 C126.341531,9.67424324 124.698074,10.7762432 124.437333,10.9565135 L124.468148,10.9902162 Z M105.801481,19.6196757 L106.421728,15.3041622 L106.425679,15.2775135 L104.682667,13.1236757 C104.698469,12.1125946 104.785383,11.0192162 104.888099,10.9275135 C105.054025,10.7997568 107.39279,10.2503243 107.90637,10.2503243 C107.953778,10.2503243 107.96958,10.2565946 107.96958,10.2565946 C108.167111,10.3561351 109.383901,11.6548649 109.865877,12.749027 C110.363654,13.8776757 110.490074,16.0409189 110.347852,16.1859189 C110.189827,16.3426757 109.391802,16.6718649 109.099457,16.7815946 L109.059951,16.7972703 L108.767605,20.434027 L114.733037,23.6161892 L115.38884,22.2837568 L110.249877,19.1564595 L110.297284,17.9180811 L111.940741,17.0088919 L111.942321,16.9775405 C111.945481,16.9383514 112.324741,12.6902432 110.448988,10.5191622 L110.14084,10.1664595 C109.224296,9.10051351 108.603259,8.40294595 108.325926,8.40294595 C107.761778,8.44762162 103.703704,9.66875676 103.277037,10.0935676 C103.174321,10.1954595 102.831407,13.7695135 102.836938,13.8008649 C102.855901,13.9105946 104.085333,15.0862703 104.828049,15.7995135 L104.535704,17.4948378 C104.349235,17.4634865 103.729778,17.3427838 102.579358,17.0378919 C101.839802,16.8576216 100.235062,16.4814054 99.6653827,16.3638378 L99.641679,16.356 C99.7483457,17.1632973 99.9205926,17.9470811 100.15921,18.7042162 C101.020444,18.8296216 105.650568,19.6290811 105.697975,19.6369189 L105.761185,19.6486757 L105.801481,19.6196757 Z M17.0982716,15.446027 C17.0571852,12.3869189 16.6826667,5.85486486 9.31871605,5.85486486 C2.3308642,5.85486486 0,11.4769459 0,15.6521622 C0,17.5959459 0.541234568,20.3658378 2.3308642,22.2257568 C3.86923457,23.8387838 6.28148148,24.2518378 8.15407407,24.2518378 C12.0233086,24.2518378 15.4761481,22.4334595 16.6826667,21.5634595 C16.9323457,21.3988649 17.0982716,21.2342703 16.9750123,20.9442703 L16.2662716,18.8774324 L15.9755062,18.7943514 C14.1819259,19.8681351 12.1434074,20.4873243 10.0258765,20.4873243 C7.56859259,20.4873243 5.9014321,19.4919189 5.4905679,16.2235405 L17.0974815,15.4397568 L17.0982716,15.446027 Z M11.2750617,12.9653514 L5.4502716,13.4199459 C5.65807407,10.1123784 6.9894321,8.74859459 8.61076543,8.74859459 C11.1494321,8.74859459 11.2323951,11.560027 11.2734815,12.9653514 L11.2750617,12.9653514 Z M31.6760494,6.30945946 L27.0095802,17.3137838 L22.8819753,6.30945946 L16.8485926,6.30945946 L24.2544198,23.7564865 L28.3440988,23.7564865 L36.7209877,6.30945946 L31.6760494,6.30945946 Z M41.497284,16.2321622 L53.1041975,15.446027 C53.062321,12.3869189 52.6878025,5.85486486 45.324642,5.85486486 C38.3352099,5.85486486 36.0051358,11.4769459 36.0051358,15.6521622 C36.0051358,17.5959459 36.5424198,20.3658378 38.3280988,22.2257568 C39.8688395,23.8387838 42.278716,24.2518378 44.1513086,24.2518378 C48.0150123,24.2518378 51.4678519,22.4334595 52.6767407,21.5634595 C52.921679,21.3988649 53.0876049,21.2342703 52.9690864,20.9442703 L52.2579753,18.8774324 L51.9656296,18.7943514 C50.1720494,19.8681351 48.1335309,20.4873243 46.016,20.4873243 C43.558716,20.4873243 41.8915556,19.4919189 41.4806914,16.2235405 L41.497284,16.2321622 Z M41.4554074,13.4207297 C41.6632099,10.1131622 42.9945679,8.74937838 44.6174815,8.74937838 C47.1537778,8.74937838 47.2327901,11.560027 47.2801975,12.9661351 L41.4490864,13.4207297 L41.4554074,13.4207297 Z M73.5004444,20.3611351 C73.1369877,20.4371622 72.7482469,20.4896757 72.358716,20.4896757 C71.3947654,20.4896757 71.3552593,19.952 71.3947654,18.9612973 L71.5211852,12.7176757 C71.5606914,10.8992973 71.5606914,9.74086486 70.9364938,8.41783784 C70.3913086,7.30172973 68.6451358,5.85486486 64.8209383,5.85486486 C63.1537778,5.85486486 59.8668642,6.18562162 57.0382222,7.75632432 C56.5404444,8.08708108 56.4140247,8.21091892 56.4535309,8.66551351 L56.5799506,11.146973 L58.073284,11.5184865 C58.6500741,10.8992973 60.1118025,9.28627027 63.398716,9.28627027 C63.8964938,9.28627027 65.0184691,9.32781081 65.721679,9.90545946 C66.258963,10.3600541 66.258963,10.8162162 66.258963,13.2961081 C57.1962469,14.4137838 55.4105679,15.2398919 55.4105679,19.1243243 C55.4105679,23.6726216 58.7764938,24.1687568 59.9853827,24.1687568 C62.3557531,24.1687568 64.6866173,23.3011081 66.7251358,22.514973 C67.0569877,23.1357297 67.641679,24.1687568 69.5537778,24.1687568 C70.8811852,24.1687568 72.2480988,23.769027 73.2357531,23.3951622 L73.2278519,23.3873243 C73.6015802,23.1757027 73.6434568,23.0111081 73.6434568,22.6427297 L73.6434568,20.4794865 L73.4775309,20.3540811 L73.5004444,20.3611351 Z M66.285037,19.8697027 C64.537284,20.3242973 63.872,20.4967297 62.6662716,20.4967297 C61.0014815,20.4967297 60.5013333,19.9637568 60.5013333,18.5529459 C60.5013333,17.149973 60.876642,16.9461892 62.1661235,16.6561892 C62.4979753,16.5778108 64.204642,16.2407838 66.2826667,15.9586216 L66.2826667,19.8853784 L66.285037,19.8697027 Z M93.5893333,23.7572703 L93.5893333,13.05 C93.5893333,10.9416216 93.5893333,9.32937838 92.7518025,8.08864865 C92.1276049,7.13791892 90.7527901,5.85643243 88.2955062,5.85643243 C85.7592099,5.85643243 83.2624198,7.05562162 81.1369877,8.41940541 L81.216,6.31102703 L75.8518519,6.31102703 L75.8518519,23.7580541 L81.2191605,23.7580541 L81.2191605,11.7661622 C81.9247407,11.2284865 83.7965432,9.94778378 85.8769383,9.94778378 C88.2473086,9.94778378 88.2473086,11.4354054 88.2473086,14.2468378 L88.2473086,23.7541351 L93.5727407,23.7541351 L93.5893333,23.7572703 Z" id="Combined-Shape"></path>
            </g>
        </g>
    </g>
</svg>