<?xml version="1.0" encoding="UTF-8" standalone="no"?>
<svg width="256px" height="58px" viewBox="0 0 256 58" version="1.1" xmlns="http://www.w3.org/2000/svg" xmlns:xlink="http://www.w3.org/1999/xlink">
    <!-- Generator: Sketch 40.3 (33839) - http://www.bohemiancoding.com/sketch -->
    <title>evean_h58w256</title>
    <desc>Created with Sketch.</desc>
    <defs></defs>
    <g id="Page-1" stroke="none" stroke-width="1" fill="none" fill-rule="evenodd">
        <g id="Desktop-HD" transform="translate(-325.000000, -725.000000)" fill="#FFFFFF">
            <g id="evean_h58w256" transform="translate(325.000000, 725.000000)">
                <path d="M255.774025,28.9216216 C255.774025,13.3744865 243.089383,0.768108108 227.440198,0.768108108 C211.792593,0.768108108 199.10637,13.3744865 199.10637,28.9216216 C199.10637,44.4718919 211.792593,57.0782703 227.440198,57.0782703 C243.089383,57.0782703 255.774025,44.475027 255.774025,28.9247568 L255.774025,28.9216216 Z M248.936296,21.9804324 L245.728395,19.6024324 L246.667062,13.9654595 L246.627556,13.9184324 C246.295704,13.5422162 240.480395,8.526 240.116938,8.41627027 L240.053728,8.40059459 C239.500642,8.40059459 231.773235,12.0216757 230.888296,12.4292432 L230.825086,12.4449189 L230.809284,12.5076216 C230.793481,12.586 229.213235,21.3643784 231.662617,26.458973 C232.389531,27.9638378 234.032988,28.9827568 235.186568,29.0924865 C236.513975,29.2178919 237.952,28.4027568 238.283852,28.1832973 L239.473778,29.1238378 L229.786864,40.9903243 L232.378469,43.2476216 L232.457481,43.1378919 C232.496988,43.0751892 236.739951,37.8395135 238.14637,36.1778919 C239.55279,34.5005946 243.65037,29.6881622 243.693037,29.6411351 L243.765728,29.5564865 L238.637827,24.4932432 L238.558815,24.6186486 C238.543012,24.6343243 237.44158,26.2489189 235.983012,26.2489189 C235.745975,26.2489189 235.508938,26.2018919 235.271901,26.1172432 C233.696395,25.5372432 233.454617,23.2799459 233.28079,20.1761622 C233.201778,17.1538919 233.770667,14.974973 233.871802,14.626973 C235.926123,13.5767027 239.091358,12.0451892 239.538568,12.0451892 C239.886222,12.0765405 241.703506,14.0203243 242.904494,15.4154595 L242.05116,20.753027 L248.432198,26.4229189 L254.963358,22.4538378 C254.663111,21.1433514 254.261728,19.8704865 253.778173,18.6368108 L253.75763,18.6524865 C252.683062,19.3484865 249.396148,21.5524865 248.874667,21.913027 L248.936296,21.9804324 Z M211.602963,39.2393514 L212.843457,30.6083243 L212.851358,30.555027 L209.365333,26.2473514 C209.396938,24.2251892 209.570765,22.0384324 209.776198,21.855027 C210.108049,21.5995135 214.78558,20.5006486 215.812741,20.5006486 C215.907556,20.5006486 215.93916,20.5131892 215.93916,20.5131892 C216.334222,20.7122703 218.767802,23.3097297 219.731753,25.4980541 C220.727309,27.7553514 220.980148,32.0818378 220.695704,32.3718378 C220.379654,32.6853514 218.783605,33.3437297 218.198914,33.5631892 L218.119901,33.5945405 L217.53521,40.8680541 L229.466074,47.2323784 L230.777679,44.5675135 L220.499753,38.3129189 L220.594568,35.8361622 L223.881481,34.0177838 L223.884642,33.9550811 C223.890963,33.8767027 224.649481,25.3804865 220.897975,21.0383243 L220.281679,20.3329189 C218.448593,18.201027 217.206519,16.8058919 216.651852,16.8058919 C215.523556,16.8952432 207.407407,19.3375135 206.554074,20.1871351 C206.348642,20.3909189 205.662815,27.539027 205.673877,27.6017297 C205.711802,27.8211892 208.170667,30.1725405 209.656099,31.599027 L209.071407,34.9896757 C208.698469,34.926973 207.459556,34.6855676 205.158716,34.0757838 C203.679605,33.7152432 200.470123,32.9628108 199.330765,32.7276757 L199.283358,32.712 C199.496691,34.3265946 199.841185,35.8941622 200.31842,37.4084324 C202.040889,37.6592432 211.301136,39.2581622 211.395951,39.2738378 L211.52237,39.2973514 L211.602963,39.2393514 Z M34.1965432,30.8920541 C34.1143704,24.7738378 33.3653333,11.7097297 18.6374321,11.7097297 C4.6617284,11.7097297 0,22.9538919 0,31.3043243 C0,35.1918919 1.08246914,40.7316757 4.6617284,44.4515135 C7.73846914,47.6775676 12.562963,48.5036757 16.3081481,48.5036757 C24.0466173,48.5036757 30.9522963,44.8669189 33.3653333,43.1269189 C33.8646914,42.7977297 34.1965432,42.4685405 33.9500247,41.8885405 L32.5325432,37.7548649 L31.9510123,37.5887027 C28.3638519,39.7362703 24.2868148,40.9746486 20.0517531,40.9746486 C15.1371852,40.9746486 11.8028642,38.9838378 10.9811358,32.4470811 L34.194963,30.8795135 L34.1965432,30.8920541 Z M22.5501235,25.9307027 L10.9005432,26.8398919 C11.3161481,20.2247568 13.9788642,17.4971892 17.2215309,17.4971892 C22.2988642,17.4971892 22.4647901,23.1200541 22.546963,25.9307027 L22.5501235,25.9307027 Z M63.3520988,12.6189189 L54.0191605,34.6275676 L45.7639506,12.6189189 L33.6971852,12.6189189 L48.5088395,47.512973 L56.6881975,47.512973 L73.4419753,12.6189189 L63.3520988,12.6189189 Z M82.9945679,32.4643243 L106.208395,30.8920541 C106.124642,24.7738378 105.375605,11.7097297 90.649284,11.7097297 C76.6704198,11.7097297 72.0102716,22.9538919 72.0102716,31.3043243 C72.0102716,35.1918919 73.0848395,40.7316757 76.6561975,44.4515135 C79.737679,47.6775676 84.5574321,48.5036757 88.3026173,48.5036757 C96.0300247,48.5036757 102.935704,44.8669189 105.353481,43.1269189 C105.843358,42.7977297 106.17521,42.4685405 105.938173,41.8885405 L104.515951,37.7548649 L103.931259,37.5887027 C100.344099,39.7362703 96.2670617,40.9746486 92.032,40.9746486 C87.1174321,40.9746486 83.7831111,38.9838378 82.9613827,32.4470811 L82.9945679,32.4643243 Z M82.9108148,26.8414595 C83.3264198,20.2263243 85.9891358,17.4987568 89.234963,17.4987568 C94.3075556,17.4987568 94.4655802,23.1200541 94.5603951,25.9322703 L82.8981728,26.8414595 L82.9108148,26.8414595 Z M147.000889,40.7222703 C146.273975,40.8743243 145.496494,40.9793514 144.717432,40.9793514 C142.789531,40.9793514 142.710519,39.904 142.789531,37.9225946 L143.04237,25.4353514 C143.121383,21.7985946 143.121383,19.4817297 141.872988,16.8356757 C140.782617,14.6034595 137.290272,11.7097297 129.641877,11.7097297 C126.307556,11.7097297 119.733728,12.3712432 114.076444,15.5126486 C113.080889,16.1741622 112.828049,16.4218378 112.907062,17.331027 L113.159901,22.2939459 L116.146568,23.036973 C117.300148,21.7985946 120.223605,18.5725405 126.797432,18.5725405 C127.792988,18.5725405 130.036938,18.6556216 131.443358,19.8109189 C132.517926,20.7201081 132.517926,21.6324324 132.517926,26.5922162 C114.392494,28.8275676 110.821136,30.4797838 110.821136,38.2486486 C110.821136,47.3452432 117.552988,48.3375135 119.970765,48.3375135 C124.711506,48.3375135 129.373235,46.6022162 133.450272,45.0299459 C134.113975,46.2714595 135.283358,48.3375135 139.107556,48.3375135 C141.76237,48.3375135 144.496198,47.5380541 146.471506,46.7903243 L146.455704,46.7746486 C147.20316,46.3514054 147.286914,46.0222162 147.286914,45.2854595 L147.286914,40.958973 L146.955062,40.7081622 L147.000889,40.7222703 Z M132.570074,39.7394054 C129.074568,40.6485946 127.744,40.9934595 125.332543,40.9934595 C122.002963,40.9934595 121.002667,39.9275135 121.002667,37.1058919 C121.002667,34.2999459 121.753284,33.8923784 124.332247,33.3123784 C124.995951,33.1556216 128.409284,32.4815676 132.565333,31.9172432 L132.565333,39.7707568 L132.570074,39.7394054 Z M187.178667,47.5145405 L187.178667,26.1 C187.178667,21.8832432 187.178667,18.6587568 185.503605,16.1772973 C184.25521,14.2758378 181.50558,11.7128649 176.591012,11.7128649 C171.51842,11.7128649 166.52484,14.1112432 162.273975,16.8388108 L162.432,12.6220541 L151.703704,12.6220541 L151.703704,47.5161081 L162.438321,47.5161081 L162.438321,23.5323243 C163.849481,22.456973 167.593086,19.8955676 171.753877,19.8955676 C176.494617,19.8955676 176.494617,22.8708108 176.494617,28.4936757 L176.494617,47.5082703 L187.145481,47.5082703 L187.178667,47.5145405 Z" id="Combined-Shape"></path>
            </g>
        </g>
    </g>
</svg>