<?xml version="1.0" encoding="UTF-8" standalone="no"?>
<svg width="256px" height="55px" viewBox="0 0 256 55" version="1.1" xmlns="http://www.w3.org/2000/svg" xmlns:xlink="http://www.w3.org/1999/xlink">
    <!-- Generator: Sketch 40.3 (33839) - http://www.bohemiancoding.com/sketch -->
    <title>interbank_h55w256</title>
    <desc>Created with Sketch.</desc>
    <defs></defs>
    <g id="Page-1" stroke="none" stroke-width="1" fill="none" fill-rule="evenodd">
        <g id="Desktop-HD" transform="translate(-115.000000, -104.000000)" fill="#FFFFFF">
            <g id="interbank_h55w256" transform="translate(115.000000, 104.000000)">
                <path d="M161.802692,39.9265516 C162.438312,40.188815 163.199839,40.3636573 163.918043,40.3636573 C166.669014,40.3636573 167.305312,37.6962635 167.305312,33.5434098 C167.305312,30.0032034 166.754982,26.8511469 163.961365,26.8511469 C162.779476,26.8511469 161.802692,27.6861936 161.802692,28.9534504 L161.802692,39.9265516 L161.802692,39.9265516 Z M154.69782,14.3478261 L161.802692,14.3478261 L161.802692,22.7430528 C162.737508,22.1779625 164.217915,21.6932998 165.866873,21.6932998 C171.114297,21.6932998 174.374307,25.2782658 174.374307,32.5817773 C174.374307,41.107786 170.478,45.4347826 163.582294,45.4347826 C160.364253,45.4347826 156.556621,44.6046315 154.69782,43.5989387 L154.69782,14.3478261 L154.69782,14.3478261 Z M188.930629,27.160268 C188.464237,26.9868245 187.743325,26.8525456 186.983153,26.8525456 C184.232181,26.8525456 183.301426,30.2640681 183.301426,34.0224776 C183.301426,37.3913386 183.895079,40.188815 186.348886,40.188815 C187.997167,40.188815 188.930629,38.9649191 188.930629,37.6962635 L188.930629,27.160268 L188.930629,27.160268 Z M195.946148,40.0139727 L196.411187,44.7368122 L190.413067,44.738211 L190.113872,42.6799677 L189.86003,42.6366068 C188.589465,44.6955495 186.601374,45.3921211 184.400055,45.3921211 C177.925389,45.3921211 176.277107,40.0139727 176.277107,34.5470045 C176.277107,26.8525456 180.042094,21.6932998 187.743325,21.6932998 C189.269085,21.6932998 192.52571,22.0856458 195.946148,23.4438206 L195.946148,40.0139727 L195.946148,40.0139727 Z M200.343371,44.7368122 L200.343371,26.8525456 L199.834333,22.3507067 L205.716024,22.3507067 L206.13774,24.7530396 C207.492242,22.8759329 209.482364,21.6932998 212.316596,21.6932998 C216.466745,21.6932998 219.087072,24.0984301 219.087072,29.433917 L219.087072,44.7368122 L211.978139,44.7368122 L211.978139,30.7011738 C211.978139,28.691187 211.766943,27.2882526 210.116631,27.2882526 C208.379674,27.2882526 207.367013,28.691187 207.367013,30.5724899 L207.367013,44.7368122 L200.343371,44.7368122 L200.343371,44.7368122 Z M230.299448,35.2911332 L230.299448,44.7340148 L223.148546,44.7340148 L223.148546,14.3478261 L230.299448,14.3478261 L230.299448,35.2911332 Z M243.070075,22.7458502 C240.982478,26.0524674 239.514932,28.2946447 237.346782,31.6677019 C237.095647,32.0460605 237.11257,32.3167164 237.326475,32.7041669 C239.6273,36.7178461 241.100261,39.5880569 244.037383,44.7340148 L236.169631,44.7340148 C234.260739,40.4587715 233.393614,38.4662689 230.968914,33.0174842 C230.725226,32.4719763 230.757041,32.0691397 230.996668,31.6621069 C232.608396,28.4575977 233.394968,26.8469507 235.236169,23.1409938 C235.368844,22.8759329 235.569887,22.7626351 235.950312,22.7626351 C238.619377,22.7388566 240.247351,22.7458502 243.070075,22.7458502 Z M145.469475,44.738211 L138.403187,44.738211 L138.403187,26.6336431 L137.85015,22.3507067 L143.606612,22.3507067 L144.156942,25.4538074 C145.302954,22.7024894 147.418305,21.6932998 149.236492,21.6932998 C150.296536,21.6932998 151.646299,21.9555632 152.74899,22.5241502 L151.607715,28.6044652 C150.715545,28.1219005 149.661593,27.8582384 148.559579,27.8582384 C146.740039,27.8582384 145.513474,29.0415709 145.469475,31.0515577 L145.469475,44.738211 Z M133.917289,38.1319705 C132.562111,39.0537389 130.70331,39.9692131 128.671219,39.9692131 C126.087445,39.9692131 124.651714,38.3515724 124.481132,36.3842471 C128.62722,36.122683 135.570986,34.8561256 135.570986,28.5163447 C135.570986,23.9242872 132.604079,21.6932998 128.160827,21.6932998 C120.924634,21.6932998 117.285554,27.8155769 117.285554,34.1567565 C117.285554,40.8007629 120.205077,45.4347826 127.657204,45.4347826 C132.394237,45.4347826 135.570986,43.1611337 135.781506,42.9436299 L133.917289,38.1319705 Z M127.782433,26.8084854 C128.796448,26.8084854 129.432745,27.5106519 129.432745,28.6044652 C129.432745,30.7445347 126.427255,31.8390473 124.144029,31.9677312 C124.268581,28.9534504 125.667082,26.8084854 127.782433,26.8084854 Z M110.642336,14.3478261 L110.642336,22.3507067 L115.932406,22.3507067 L115.932406,28.0778403 L110.642336,28.0778403 L110.642336,36.9087739 C110.642336,39.3146036 111.742996,39.9265516 113.181435,39.9265516 C113.984929,39.9265516 114.746456,39.6209273 115.46669,39.2250844 L116.99042,43.8171419 C115.677887,44.6955495 113.350663,45.4340832 110.980116,45.4340832 C103.785892,45.4340832 103.490758,41.107786 103.490758,36.7360297 L103.490758,14.3478261 L110.642336,14.3478261 Z M80.6815209,44.738211 L80.6815209,26.8525456 L80.1731597,22.3507067 L86.0562046,22.3507067 L86.477921,24.7530396 C87.8330994,22.8759329 89.8218677,21.6932998 92.6567765,21.6932998 C96.805572,21.6932998 99.4279303,24.0984301 99.4279303,29.433917 L99.4279303,44.738211 L92.3189972,44.738211 L92.3189972,30.7025725 C92.3189972,28.691187 92.1091544,27.2882526 90.4574884,27.2882526 C88.7232391,27.2882526 87.7065168,28.691187 87.7065168,30.5724899 L87.7065168,44.738211 L80.6815209,44.738211 Z M69.3831776,44.7389104 L76.4921106,44.7389104 L76.4921106,22.3521054 L69.3831776,22.3521054 L69.3831776,44.7389104 Z" id="Fill-5"></path>
                <path d="M74.1690324,19.1304348 C71.5263872,19.1304348 69.3831776,17.5250582 69.3831776,15.5440841 C69.3831776,13.5625041 71.5263872,11.9565217 74.1690324,11.9565217 C76.8108696,11.9565217 78.953271,13.5625041 78.953271,15.5440841 C78.953271,17.5250582 76.8108696,19.1304348 74.1690324,19.1304348" id="Fill-12"></path>
                <path d="M251.215761,45.4347826 C248.572308,45.4347826 246.429907,43.2914115 246.429907,40.6505587 C246.429907,38.0121287 248.572308,35.8695652 251.215761,35.8695652 C253.85679,35.8695652 256,38.0121287 256,40.6505587 C256,43.2914115 253.85679,45.4347826 251.215761,45.4347826" id="Fill-13"></path>
                <path d="M10.565062,0.194026473 C4.29982988,0.345545379 0.318455296,4.38307859 0.194080052,10.5987818 C0.0697048074,16.814485 0,18.1130225 0,26.1846609 C0,33.5658942 0.112757777,41.128813 0.194080052,44.4032668 C0.35262432,50.7800874 4.57386545,54.655132 10.565062,54.8066509 C16.5993115,54.9588554 19.3929708,55.0006773 28.0056148,54.9999917 C34.6111704,54.9993061 38.2002846,54.9478857 44.4450153,54.8052797 C49.9667294,54.6784426 54.5638298,51.1955645 54.8166806,44.4032668 C54.9403724,41.083563 54.95404,39.4497641 55.0107606,28.6363877 C55.0702147,17.264928 54.9690744,16.2625722 54.8166806,10.5987818 C54.6649701,4.93499134 51.1776796,0.346230985 44.4450153,0.194026473 C40.4178542,0.102840887 38.5809275,0 27.9031077,0 C17.225288,0 10.565062,0.194026473 10.565062,0.194026473 Z M28.0848869,20.3693516 C25.8276813,20.3693516 23.9982718,18.5346702 23.9982718,16.2714851 C23.9982718,14.0062431 25.8276813,12.1708761 28.0848869,12.1708761 C30.3414092,12.1708761 32.1715021,14.0062431 32.1715021,16.2714851 C32.1715021,18.5346702 30.3414092,20.3693516 28.0848869,20.3693516 Z M28.0842036,9.49289944 C24.2374549,9.49289944 21.1198732,12.619948 21.1198732,16.4819661 L21.1198732,38.3377113 C21.1198732,42.1928733 24.2374549,45.3219787 28.0842036,45.3219787 C31.9295854,45.3219787 35.0485339,42.1928733 35.0485339,38.3377113 L35.0485339,16.4792237 C35.0485339,12.619948 31.9295854,9.49289944 28.0842036,9.49289944 Z" id="Combined-Shape"></path>
            </g>
        </g>
    </g>
</svg>