<?xml version="1.0" encoding="UTF-8" standalone="no"?>
<svg width="128px" height="28px" viewBox="0 0 128 28" version="1.1" xmlns="http://www.w3.org/2000/svg" xmlns:xlink="http://www.w3.org/1999/xlink">
    <!-- Generator: Sketch 40.3 (33839) - http://www.bohemiancoding.com/sketch -->
    <title>interbank_h28w128</title>
    <desc>Created with Sketch.</desc>
    <defs></defs>
    <g id="Page-1" stroke="none" stroke-width="1" fill="none" fill-rule="evenodd">
        <g id="Desktop-HD" transform="translate(-115.000000, -179.000000)" fill="#FFFFFF">
            <g id="interbank_h28w128" transform="translate(115.000000, 179.000000)">
                <path d="M80.9013458,20.3262444 C81.2191562,20.4597604 81.5999193,20.548771 81.9590213,20.548771 C83.3345071,20.548771 83.6526559,19.1908251 83.6526559,17.076645 C83.6526559,15.2743581 83.377491,13.6696748 81.9806825,13.6696748 C81.3897381,13.6696748 80.9013458,14.0947895 80.9013458,14.7399384 L80.9013458,20.3262444 L80.9013458,20.3262444 Z M77.34891,7.30434783 L80.9013458,7.30434783 L80.9013458,11.5782814 C81.3687538,11.2905991 82.1089574,11.0438617 82.9334366,11.0438617 C85.5571487,11.0438617 87.1871535,12.8689353 87.1871535,16.5870866 C87.1871535,20.9276001 85.2389999,23.1304348 81.7911471,23.1304348 C80.1821265,23.1304348 78.2783106,22.7078124 77.34891,22.1958233 L77.34891,7.30434783 L77.34891,7.30434783 Z M94.4653146,13.8270455 C94.2321183,13.738747 93.8716625,13.6703869 93.4915763,13.6703869 C92.1160905,13.6703869 91.6507132,15.4071619 91.6507132,17.3205341 C91.6507132,19.0355906 91.9475393,20.4597604 93.1744429,20.4597604 C93.9985836,20.4597604 94.4653146,19.8366861 94.4653146,19.1908251 L94.4653146,13.8270455 L94.4653146,13.8270455 Z M97.9730742,20.3707497 L98.2055936,22.7751044 L95.2065336,22.7758165 L95.056936,21.7279836 L94.9300149,21.7059089 C94.2947327,22.7540979 93.300687,23.1087162 92.2000276,23.1087162 C88.9626945,23.1087162 88.1385537,20.3707497 88.1385537,17.5875659 C88.1385537,13.6703869 90.0210469,11.0438617 93.8716625,11.0438617 C94.6345427,11.0438617 96.2628552,11.2436015 97.9730742,11.9350359 L97.9730742,20.3707497 L97.9730742,20.3707497 Z M100.171685,22.7751044 L100.171685,13.6703869 L99.9171663,11.3785416 L102.858012,11.3785416 L103.06887,12.6015474 C103.746121,11.6459295 104.741182,11.0438617 106.158298,11.0438617 C108.233372,11.0438617 109.543536,12.2682917 109.543536,14.9845395 L109.543536,22.7751044 L105.98907,22.7751044 L105.98907,15.6296885 C105.98907,14.6064225 105.883471,13.8922013 105.058315,13.8922013 C104.189837,13.8922013 103.683506,14.6064225 103.683506,15.5641767 L103.683506,22.7751044 L100.171685,22.7751044 L100.171685,22.7751044 Z M115.149724,17.9663951 L115.149724,22.7736802 L111.574273,22.7736802 L111.574273,7.30434783 L115.149724,7.30434783 L115.149724,17.9663951 Z M121.535038,11.5797056 C120.491239,13.2630743 119.757466,14.4045464 118.673391,16.1217391 C118.547824,16.3143581 118.556285,16.4521465 118.663237,16.649394 C119.81365,18.6927217 120.55013,20.1539199 122.018692,22.7736802 L118.084816,22.7736802 C117.130369,20.5971927 116.696807,19.5828278 115.484457,16.8089011 C115.362613,16.5311879 115.37852,16.3261075 115.498334,16.1188908 C116.304198,14.4875043 116.697484,13.6675385 117.618085,11.7808696 C117.684422,11.6459295 117.784944,11.5882506 117.975156,11.5882506 C119.309689,11.5761452 120.123676,11.5797056 121.535038,11.5797056 Z M72.7347373,22.7758165 L69.2015935,22.7758165 L69.2015935,13.5589456 L68.9250748,11.3785416 L71.803306,11.3785416 L72.0784708,12.958302 C72.6514771,11.5576309 73.7091526,11.0438617 74.6182458,11.0438617 C75.1482681,11.0438617 75.8231497,11.1773776 76.3744948,11.4668401 L75.8038577,14.5622732 C75.3577725,14.3166039 74.8307963,14.1823759 74.2797896,14.1823759 C73.3700195,14.1823759 72.756737,14.7847997 72.7347373,15.8080657 L72.7347373,22.7758165 Z M66.9586446,19.4126395 C66.2810554,19.8819035 65.3516548,20.347963 64.3356094,20.347963 C63.0437223,20.347963 62.3258568,19.5244368 62.2405658,18.5228894 C64.3136098,18.3897295 67.785493,17.7449367 67.785493,14.5174118 C67.785493,12.1796371 66.3020397,11.0438617 64.0804135,11.0438617 C60.4623172,11.0438617 58.6427769,14.1606573 58.6427769,17.3888942 C58.6427769,20.7712975 60.1025383,23.1304348 63.8286021,23.1304348 C66.1971183,23.1304348 67.785493,21.9729408 67.8907528,21.8622116 L66.9586446,19.4126395 Z M63.8912165,13.6479562 C64.3982238,13.6479562 64.7163726,14.0054228 64.7163726,14.5622732 C64.7163726,15.6517631 63.2136273,16.2089695 62.0720147,16.2744813 C62.1342906,14.7399384 62.833541,13.6479562 63.8912165,13.6479562 Z M55.3211682,7.30434783 L55.3211682,11.3785416 L57.9662031,11.3785416 L57.9662031,14.2941732 L55.3211682,14.2941732 L55.3211682,18.7899213 C55.3211682,20.0147073 55.8714979,20.3262444 56.5907173,20.3262444 C56.9924647,20.3262444 57.3732279,20.1706539 57.7333452,19.9691339 L58.49521,22.3069086 C57.8389436,22.7540979 56.6753313,23.1300787 55.4900579,23.1300787 C51.8929459,23.1300787 51.745379,20.9276001 51.745379,18.7019788 L51.745379,7.30434783 L55.3211682,7.30434783 Z M40.3407604,22.7758165 L40.3407604,13.6703869 L40.0865799,11.3785416 L43.0281023,11.3785416 L43.2389605,12.6015474 C43.9165497,11.6459295 44.9109339,11.0438617 46.3283882,11.0438617 C48.402786,11.0438617 49.7139651,12.2682917 49.7139651,14.9845395 L49.7139651,22.7758165 L46.1594986,22.7758165 L46.1594986,15.6304005 C46.1594986,14.6064225 46.0545772,13.8922013 45.2287442,13.8922013 C44.3616195,13.8922013 43.8532584,14.6064225 43.8532584,15.5641767 L43.8532584,22.7758165 L40.3407604,22.7758165 Z M34.6915888,22.7761725 L38.2460553,22.7761725 L38.2460553,11.3792537 L34.6915888,11.3792537 L34.6915888,22.7761725 Z" id="Fill-5"></path>
                <path d="M37.0845162,9.73913043 C35.7631936,9.73913043 34.6915888,8.92184781 34.6915888,7.91335189 C34.6915888,6.90454756 35.7631936,6.08695652 37.0845162,6.08695652 C38.4054348,6.08695652 39.4766355,6.90454756 39.4766355,7.91335189 C39.4766355,8.92184781 38.4054348,9.73913043 37.0845162,9.73913043" id="Fill-12"></path>
                <path d="M125.607881,23.1304348 C124.286154,23.1304348 123.214953,22.0392641 123.214953,20.6948299 C123.214953,19.3516291 124.286154,18.2608696 125.607881,18.2608696 C126.928395,18.2608696 128,19.3516291 128,20.6948299 C128,22.0392641 126.928395,23.1304348 125.607881,23.1304348" id="Fill-13"></path>
                <path d="M5.28253099,0.0987771134 C2.14991494,0.175914011 0.159227648,2.23138546 0.0970400259,5.39574345 C0.0348524037,8.56010143 0,9.22117512 0,13.3303728 C0,17.0880916 0.0563788883,20.9383048 0.0970400259,22.6052995 C0.17631216,25.8516808 2.28693272,27.8244308 5.28253099,27.9015677 C8.29965574,27.9790537 9.69648541,28.0003448 14.0028074,27.9999958 C17.3055852,27.9996468 19.1001423,27.9734691 22.2225076,27.9008696 C24.9833647,27.836298 27.2819149,26.0631965 27.4083403,22.6052995 C27.4701862,20.9152684 27.47702,20.0835163 27.5053803,14.5785246 C27.5351074,8.78941791 27.4845372,8.27912766 27.4083403,5.39574345 C27.3324851,2.51235923 25.5888398,0.176263047 22.2225076,0.0987771134 C20.2089271,0.0523553604 19.2904637,0 13.9515539,0 C8.61264399,0 5.28253099,0.0987771134 5.28253099,0.0987771134 Z M14.0424435,10.3698517 C12.9138406,10.3698517 11.9991359,9.43583209 11.9991359,8.28366513 C11.9991359,7.13045106 12.9138406,6.19608239 14.0424435,6.19608239 C15.1707046,6.19608239 16.0857511,7.13045106 16.0857511,8.28366513 C16.0857511,9.43583209 15.1707046,10.3698517 14.0424435,10.3698517 Z M14.0421018,4.8327488 C12.1187275,4.8327488 10.5599366,6.4247008 10.5599366,8.3908191 L10.5599366,19.5173803 C10.5599366,21.4800082 12.1187275,23.0730073 14.0421018,23.0730073 C15.9647927,23.0730073 17.5242669,21.4800082 17.5242669,19.5173803 L17.5242669,8.38942296 C17.5242669,6.4247008 15.9647927,4.8327488 14.0421018,4.8327488 Z" id="Combined-Shape"></path>
            </g>
        </g>
    </g>
</svg>