<?xml version="1.0" encoding="UTF-8" standalone="no"?>
<svg width="237px" height="80px" viewBox="0 0 237 80" version="1.1" xmlns="http://www.w3.org/2000/svg" xmlns:xlink="http://www.w3.org/1999/xlink">
    <!-- Generator: Sketch 40.3 (33839) - http://www.bohemiancoding.com/sketch -->
    <title>veh_h80w237</title>
    <desc>Created with Sketch.</desc>
    <defs></defs>
    <g id="Page-1" stroke="none" stroke-width="1" fill="none" fill-rule="evenodd">
        <g id="Desktop-HD" transform="translate(-1010.000000, -536.000000)" fill="#FFFFFF">
            <g id="veh_h80w237" transform="translate(1010.000000, 536.000000)">
                <path d="M206.761763,58.7792593 C206.761763,58.7792593 199.47105,58.3081481 193.978575,57.5377778 C188.5098,56.7703704 182.167088,55.3362963 182.119688,55.3244444 L179.201625,76.4355556 C179.201625,76.4355556 185.571,77.8755556 191.060513,78.6474074 C196.551506,79.4177778 203.8437,79.8888889 203.8437,79.8888889 L206.764725,58.7777778 L206.761763,58.7777778 L206.761763,58.7792593 Z M224.02425,12.0888889 C220.032281,8.2162963 214.407975,3.51851852 214.407975,3.51851852 L199.724344,18.8666667 L209.684269,37.6696296 L209.669456,37.6740741 L217.623769,36.2518519 L232.302956,20.8992593 C232.302956,20.8992593 227.992519,15.9614815 223.993144,12.0874074 L224.02425,12.0888889 Z" id="Shape"></path>
                <path d="M217.640062,36.2459259 L209.68575,37.6681481 L206.761762,58.7792593 L225.798787,68.1007407 C225.798787,68.1007407 229.1316,62.4459259 231.556406,57.4251852 C233.981212,52.4059259 236.678569,45.5674074 236.678569,45.5674074 L217.641544,36.2459259 L217.640062,36.2459259 Z M185.03775,34.2133333 L199.722862,18.8651852 L189.7659,0.0622222222 C189.7659,0.0622222222 183.766837,2.66666667 178.878712,5.29185185 C173.984662,7.91703704 167.810812,11.8518519 167.810812,11.8518519 L177.770737,30.6592593 L185.03775,34.2177778 L185.03775,34.2133333 L185.03775,34.2133333 Z" id="Shape"></path>
                <path d="M161.2785,59.0518519 C161.2785,59.0518519 159.471375,51.92 158.502637,46.4251852 C157.5339,40.9288889 156.928069,34.3807407 156.928069,34.3807407 L177.769256,30.6548148 L196.803319,39.9733333 L196.806281,39.9777778 L182.121169,55.322963 L161.279981,59.0503704" id="Shape"></path>
                <path d="M0.5925,18.3644444 C0.5184375,18.2014815 0.48436875,18.0237037 0.48436875,17.8355556 C0.48436875,17.4948148 0.60286875,17.1985185 0.835425,16.917037 C1.06798125,16.6355556 1.3834875,16.4874074 1.7804625,16.4874074 C2.03671875,16.4874074 2.2752,16.5614815 2.4973875,16.6948148 C2.719575,16.8281481 2.8884375,17.0355556 3.00545625,17.2874074 L8.17501875,29.7318519 L13.3445813,17.2874074 C13.5815813,16.7392593 13.9815188,16.4725926 14.5740188,16.4725926 C14.9739563,16.4725926 15.2850188,16.6059259 15.5220188,16.8874074 C15.7590188,17.1688889 15.8627063,17.4651852 15.8627063,17.8059259 C15.8627063,17.9837037 15.8182688,18.1614815 15.7590188,18.3244444 L9.4059375,33.6296296 C9.154125,34.1688889 8.739375,34.4385185 8.1853875,34.4385185 C7.578075,34.4385185 7.16925,34.1688889 6.9589125,33.6281481 L0.5925,18.3555556 L0.5925,18.3644444 Z M17.5305938,22.8414815 C17.5305938,21.9733333 17.6935313,21.1496296 18.0194063,20.3748148 C18.3482438,19.6 18.8044688,18.922963 19.3866,18.3451852 C19.9702125,17.7718519 20.6412188,17.32 21.4011,16.9896296 C22.1565375,16.6637037 22.9815938,16.4962963 23.8688625,16.4962963 C24.73095,16.4962963 25.5486,16.6622222 26.31885,16.9896296 C27.0891,17.32 27.758625,17.7718519 28.33335,18.3466667 C28.9036313,18.9244444 29.358375,19.6 29.6961,20.3762963 C30.0367875,21.1496296 30.2041688,21.9733333 30.2041688,22.8414815 L30.2041688,25.557037 C30.2041688,25.9422222 30.0856688,26.2533333 29.8338563,26.52 C29.5820438,26.7866667 29.2709813,26.9051852 28.8858563,26.9051852 L20.2057313,26.9051852 L20.2057313,28.1051852 C20.2057313,28.6088889 20.3094188,29.0681481 20.5019813,29.5125926 C20.7093563,29.9718519 20.9759813,30.357037 21.3018563,30.6977778 C21.6277313,31.0385185 22.0276688,31.3051852 22.4720438,31.4977778 C22.9312313,31.6903704 23.4052313,31.7792593 23.8940438,31.7792593 C24.6494813,31.7792593 25.3160438,31.5866667 25.9085438,31.2014815 C26.5158563,30.8162963 26.9602313,30.2977778 27.2564813,29.6311111 L27.3009188,29.5274074 C27.4046063,29.2755556 27.5527313,29.0681481 27.7749188,28.92 C27.9971063,28.7718519 28.2489188,28.6977778 28.5303563,28.6977778 C28.9006688,28.6977778 29.2265438,28.8311111 29.4783563,29.1125926 C29.7449813,29.3792593 29.8634813,29.6903704 29.8634813,30.0459259 C29.8634813,30.2088889 29.8042313,30.4311111 29.6857313,30.682963 C29.1969188,31.8237037 28.4414813,32.7274074 27.4194188,33.4385185 C26.3973563,34.1496296 25.2271688,34.4903704 23.9236688,34.4903704 C23.0645438,34.4903704 22.2498563,34.3274074 21.4796063,34.0014815 C20.7093563,33.6755556 20.0427938,33.2162963 19.4651063,32.6385185 C18.9022313,32.0607407 18.4430438,31.3940741 18.1023563,30.6088889 C17.7616688,29.8385185 17.5987313,29.0088889 17.5987313,28.1496296 L17.5987313,22.8903704 L17.5305938,22.8414815 Z M20.1924,24.2162963 L27.5438438,24.2162963 L27.5438438,22.8414815 C27.5438438,22.3481481 27.4446,21.8785185 27.2475938,21.4340741 C27.047625,20.9866667 26.7854438,20.5925926 26.4580875,20.2518519 C26.1322125,19.9111111 25.7411625,19.6444444 25.2879,19.4577778 C24.8287125,19.2696296 24.3591563,19.1762963 23.8688625,19.1762963 C23.3548688,19.1762963 22.876425,19.2696296 22.43205,19.4577778 C21.987675,19.6459259 21.5981063,19.9111111 21.2618625,20.2518519 C20.921175,20.5925926 20.6589938,20.9866667 20.4723563,21.4325926 C20.2946063,21.877037 20.2057313,22.3481481 20.2057313,22.84 L20.2057313,24.2177778 L20.1924,24.2162963 Z M34.8419625,18.0118519 C35.425575,17.4725926 36.0610313,17.0903704 36.7498125,16.8666667 C37.4385938,16.6444444 38.2266188,16.5318519 39.1138875,16.5318519 C39.928575,16.5911111 40.580325,16.6948148 41.0572875,16.842963 C41.53425,16.9762963 41.9727,17.1837037 42.369675,17.4503704 C42.76665,17.717037 42.9651375,18.1022222 42.9651375,18.5911111 C42.9651375,18.9911111 42.8362688,19.317037 42.5800125,19.5540741 C42.322275,19.7911111 42.00825,19.9244444 41.6320125,19.9244444 C41.3313188,19.9244444 41.0617313,19.8355556 40.829175,19.6725926 C40.2218625,19.3466667 39.6041813,19.1688889 38.9731688,19.1688889 C37.9511063,19.1688889 37.0919813,19.5096296 36.4106063,20.2059259 C35.7292313,20.8874074 35.3589188,21.7318519 35.3144813,22.7244444 L35.3144813,33.08 C35.3144813,33.4503704 35.1959813,33.7762963 34.9293563,34.0281481 C34.6775438,34.28 34.3664813,34.4133333 33.9813563,34.4133333 C33.6406688,34.4133333 33.3296063,34.28 33.0629813,34.0281481 C32.7963563,33.7614815 32.6630438,33.4503704 32.6630438,33.0651852 L32.6630438,24.2962963 C32.6630438,23.3140741 32.7371063,22.4681481 32.8556063,21.762963 C32.9889188,21.0562963 33.1518563,20.4592593 33.3740438,19.9644444 C33.5814188,19.4696296 33.8332313,19.0651852 34.0998563,18.7496296 C34.3664813,18.4296296 34.6331063,18.1659259 34.8997313,17.9540741 L34.8419625,18.0118519 Z M44.07015,22.8414815 C44.07015,21.9733333 44.2330875,21.1496296 44.5589625,20.3748148 C44.8848375,19.6 45.3410625,18.922963 45.924675,18.3451852 C46.5082875,17.7718519 47.1792938,17.32 47.939175,16.9896296 C48.6946125,16.6637037 49.5181875,16.4962963 50.4069375,16.4962963 C51.269025,16.4962963 52.086675,16.6622222 52.856925,16.9896296 C53.627175,17.32 54.2981813,17.7718519 54.871425,18.3466667 C55.4417063,18.9244444 55.89645,19.6 56.234175,20.3762963 C56.5748625,21.1496296 56.743725,21.9733333 56.743725,22.8414815 L56.743725,25.557037 C56.743725,25.9422222 56.6148563,26.2533333 56.3586,26.52 C56.1008625,26.7866667 55.7853563,26.9051852 55.4135625,26.9051852 L46.730475,26.9051852 L46.730475,28.1051852 C46.730475,28.6088889 46.8297188,29.0681481 47.026725,29.5125926 C47.2252125,29.9718519 47.488875,30.357037 47.81475,30.6977778 C48.140625,31.0385185 48.5331563,31.3051852 48.9879,31.4977778 C49.444125,31.6903704 49.9166438,31.7792593 50.4069375,31.7792593 C51.1534875,31.7792593 51.8244938,31.5866667 52.4214375,31.2014815 C53.0139375,30.8162963 53.4642375,30.2977778 53.769375,29.6311111 L53.8019625,29.5274074 C53.8952813,29.2755556 54.053775,29.0681481 54.2759625,28.92 C54.49815,28.7718519 54.747,28.6977778 55.0284375,28.6977778 C55.39875,28.6977778 55.7157375,28.8311111 55.973475,29.1125926 C56.2297313,29.3792593 56.3586,29.6903704 56.3586,30.0459259 C56.3586,30.2088889 56.29935,30.4311111 56.1838125,30.682963 C55.695,31.8237037 54.9336375,32.7274074 53.9071313,33.4385185 C52.880625,34.1496296 51.7148813,34.4903704 50.4069375,34.4903704 C49.5418875,34.4903704 48.7257188,34.3274074 47.9554688,34.0014815 C47.1852188,33.6755556 46.5142125,33.2162963 45.9409688,32.6385185 C45.3706875,32.0607407 44.9144625,31.3940741 44.5782188,30.6088889 C44.2375313,29.8385185 44.0686688,29.0088889 44.0686688,28.1496296 L44.0686688,22.8903704 L44.07015,22.8414815 Z M46.730475,24.2162963 L54.0819188,24.2162963 L54.0819188,22.8414815 C54.0819188,22.3481481 53.9930438,21.8785185 53.7856688,21.4340741 C53.5931063,20.9866667 53.3264813,20.5925926 53.0006063,20.2518519 C52.6747313,19.9111111 52.2896063,19.6444444 51.8304188,19.4577778 C51.3860438,19.2696296 50.9120438,19.1762963 50.4232313,19.1762963 C49.9196063,19.1762963 49.4307938,19.2696296 48.9864188,19.4577778 C48.5420438,19.6459259 48.1569188,19.9111111 47.8162313,20.2518519 C47.4755438,20.5925926 47.2237313,20.9866667 47.0311688,21.4325926 C46.8534188,21.877037 46.7497313,22.3481481 46.7497313,22.84 L46.7497313,24.2177778 L46.730475,24.2162963 Z M59.528475,22.8414815 C59.528475,21.9733333 59.6914125,21.1496296 60.0172875,20.3748148 C60.346125,19.6 60.80235,18.922963 61.383,18.3451852 C61.9680938,17.7718519 62.6391,17.32 63.3975,16.9896296 C64.1559,16.6637037 64.9779938,16.4962963 65.8652625,16.4962963 C66.7288313,16.4962963 67.545,16.6622222 68.31525,16.9896296 C69.0855,17.32 69.7579875,17.7718519 70.32975,18.3466667 C70.9015125,18.9244444 71.3562563,19.6 71.6925,20.3762963 C72.0331875,21.1496296 72.20205,21.9733333 72.20205,22.8414815 L72.20205,33.1022222 C72.20205,33.477037 72.0687375,33.7940741 71.8021125,34.0533333 C71.5310438,34.3111111 71.2214625,34.4385185 70.8718875,34.4385185 C70.4986125,34.4385185 70.1831063,34.3111111 69.92685,34.0533333 C69.6705938,33.7940741 69.541725,33.4755556 69.541725,33.1022222 L69.541725,22.8414815 C69.541725,22.3481481 69.4424813,21.8785185 69.245475,21.4340741 C69.0455063,20.9866667 68.783325,20.5925926 68.4559688,20.2518519 C68.1300938,19.9111111 67.7375625,19.6444444 67.2857813,19.4577778 C66.8265938,19.2696296 66.3555563,19.1762963 65.8637813,19.1762963 C65.35275,19.1762963 64.8713438,19.2696296 64.4299313,19.4577778 C63.9855563,19.6459259 63.5959875,19.9111111 63.2567813,20.2518519 C62.9190563,20.5925926 62.656875,20.9866667 62.4687563,21.4325926 C62.2821188,21.877037 62.1902813,22.3481481 62.1902813,22.84 L62.1902813,33.1022222 C62.1902813,33.477037 62.0569688,33.7940741 61.7873813,34.0533333 C61.5177938,34.3111111 61.2096938,34.4385185 60.8586375,34.4385185 C60.4853625,34.4385185 60.1698563,34.3111111 59.9136,34.0533333 C59.6573438,33.7940741 59.528475,33.4755556 59.528475,33.1022222 L59.528475,22.8414815 L59.528475,22.8414815 Z M75.30675,12.2311111 C75.30675,11.8548148 75.4341375,11.5377778 75.691875,11.2785185 C75.9481313,11.0207407 76.2636375,10.8903704 76.6369125,10.8903704 C76.9879688,10.8903704 77.2960688,11.0237037 77.5656563,11.2903704 C77.8322813,11.557037 77.9655938,11.8681481 77.9655938,12.2533333 L77.9655938,13.2755556 C77.9655938,13.6607407 77.8382063,13.9718519 77.5804688,14.2385185 C77.3256938,14.5051852 77.0101875,14.6237037 76.6369125,14.6237037 C76.2873375,14.6237037 75.9777563,14.5051852 75.70965,14.2385185 C75.4400625,13.9866667 75.30675,13.6607407 75.30675,13.2903704 L75.30675,12.2681481 L75.30675,12.2311111 Z M75.30675,17.8355556 C75.30675,17.4503704 75.4341375,17.1392593 75.691875,16.8725926 C75.9481313,16.6059259 76.2636375,16.4874074 76.6369125,16.4874074 C76.9879688,16.4874074 77.2960688,16.6059259 77.5656563,16.8725926 C77.8322813,17.1244444 77.9655938,17.4503704 77.9655938,17.8207407 L77.9655938,33.0948148 C77.9655938,33.4651852 77.8382063,33.7762963 77.5804688,34.042963 C77.3256938,34.2948148 77.0101875,34.4281481 76.6369125,34.4281481 C76.2873375,34.4281481 75.9777563,34.2948148 75.70965,34.042963 C75.4400625,33.7762963 75.30675,33.4651852 75.30675,33.0948148 L75.30675,17.8355556 L75.30675,17.8355556 Z M80.858475,22.8281481 C80.858475,21.9540741 81.0214125,21.1392593 81.3472875,20.3540741 C81.676125,19.5688889 82.13235,18.9022222 82.7144813,18.3244444 C83.3069813,17.7466667 83.9735438,17.3022222 84.7289813,16.9614815 C85.4992313,16.6355556 86.3139188,16.4577778 87.2026688,16.4577778 C88.0766063,16.4577778 88.8912938,16.6207407 89.6615438,16.9466667 C90.4317938,17.2725926 91.1131688,17.717037 91.6760438,18.2948148 C92.2537313,18.8725926 92.7129188,19.5392593 93.0387938,20.3244444 C93.3794813,21.0948148 93.5572313,21.9244444 93.5572313,22.7837037 L93.5572313,34.1022222 C93.5572313,34.9614815 93.3942938,35.7911111 93.0536063,36.5614815 C92.7129188,37.3318519 92.2685438,38.0133333 91.6908563,38.5911111 C91.1279813,39.1688889 90.4466063,39.6133333 89.6763563,39.9392593 C88.9061063,40.2651852 88.0914188,40.4281481 87.2322938,40.4281481 C86.8619813,40.4281481 86.5509188,40.2948148 86.2842938,40.042963 C86.0324813,39.7762963 85.8991688,39.4651852 85.8991688,39.08 C85.8991688,38.6948148 86.0324813,38.3837037 86.2842938,38.117037 C86.5509188,37.8503704 86.8619813,37.7318519 87.2322938,37.7318519 C87.7211063,37.7318519 88.1951063,37.642963 88.6542938,37.4503704 C89.1134813,37.2577778 89.4986063,36.9911111 89.8244813,36.6651852 C90.1651688,36.3244444 90.4169813,35.9244444 90.6243563,35.48 C90.8317313,35.0207407 90.9206063,34.5614815 90.9206063,34.0577778 L90.9206063,33.1837037 C89.8244813,33.9540741 88.6098563,34.3392593 87.2471063,34.3392593 C86.3879813,34.3392593 85.5732938,34.1762963 84.8030438,33.8503704 C84.0327938,33.5244444 83.3662313,33.0651852 82.7885438,32.4874074 C82.2108563,31.9096296 81.7664813,31.2281481 81.4257938,30.4577778 C81.0851063,29.6725926 80.9221688,28.8577778 80.9221688,27.9837037 L80.9221688,22.7985185 L80.858475,22.8281481 Z M83.5202813,28.0725926 C83.5202813,28.5614815 83.6180438,29.0355556 83.8165313,29.48 C84.0150188,29.9244444 84.2757188,30.3096296 84.6045563,30.6503704 C84.9304313,30.9911111 85.3229625,31.2577778 85.7777063,31.4355556 C86.2220813,31.6133333 86.6960813,31.717037 87.1848938,31.717037 C87.6737063,31.717037 88.1328938,31.6281481 88.5772688,31.4503704 C89.0216438,31.2725926 89.4067688,31.0207407 89.7326438,30.7096296 C90.0585188,30.3837037 90.3251438,30.0133333 90.5177063,29.5985185 C90.7102688,29.1688889 90.8139563,28.7096296 90.8435813,28.2207407 L90.8435813,22.8148148 C90.8435813,22.322963 90.7398938,21.8518519 90.5473313,21.4074074 C90.3399563,20.962963 90.0881438,20.5674074 89.7474563,20.2266667 C89.4215813,19.8859259 89.0216438,19.6192593 88.5772688,19.4266667 C88.1180813,19.2414815 87.6440813,19.1451852 87.1552688,19.1451852 C86.6368313,19.1451852 86.1628313,19.2414815 85.7184563,19.4266667 C85.2740813,19.6192593 84.8889563,19.882963 84.5482688,20.2237037 C84.2075813,20.5644444 83.9409563,20.9644444 83.7632063,21.4088889 C83.5706438,21.8533333 83.4817688,22.3274074 83.4817688,22.8162963 L83.4817688,28.0755556 L83.5202813,28.0725926 Z M96.7182188,12.2059259 C96.7182188,11.8207407 96.8470875,11.5096296 97.1033438,11.242963 C97.3610813,10.9762963 97.6751063,10.8577778 98.0513438,10.8577778 C98.3994375,10.8577778 98.7090188,10.9911111 98.977125,11.242963 C99.24375,11.4948148 99.380025,11.8207407 99.380025,12.1911111 L99.380025,13.2133333 C99.380025,13.5837037 99.2511563,13.9096296 98.9949,14.1614815 C98.7371625,14.4133333 98.4216563,14.5466667 98.0498625,14.5466667 C97.6988063,14.5466667 97.389225,14.4133333 97.1211188,14.1614815 C96.8544938,13.8948148 96.7182188,13.5837037 96.7182188,13.1985185 L96.7182188,12.1762963 L96.7182188,12.2059259 Z M96.7182188,17.8059259 C96.7182188,17.4207407 96.8470875,17.1096296 97.1033438,16.842963 C97.3610813,16.5762963 97.6751063,16.442963 98.0513438,16.442963 C98.3994375,16.442963 98.7090188,16.5762963 98.977125,16.8281481 C99.24375,17.08 99.380025,17.4059259 99.380025,17.7762963 L99.380025,33.0503704 C99.380025,33.4207407 99.2511563,33.7466667 98.9949,33.9985185 C98.7371625,34.2651852 98.4216563,34.3837037 98.0498625,34.3837037 C97.6988063,34.3837037 97.389225,34.2651852 97.1211188,33.9985185 C96.8544938,33.7466667 96.7182188,33.4207407 96.7182188,33.0503704 L96.7182188,17.7911111 L96.7182188,17.8059259 Z M102.6921,22.7985185 C102.6921,21.9244444 102.855038,21.1096296 103.180913,20.3244444 C103.506788,19.5392593 103.965975,18.8725926 104.546625,18.2948148 C105.131719,17.717037 105.802725,17.2725926 106.561125,16.9318519 C107.319525,16.6059259 108.141619,16.442963 109.028888,16.442963 C109.892456,16.442963 110.708625,16.6059259 111.480356,16.9318519 C112.250606,17.2577778 112.931981,17.717037 113.494856,18.28 C114.072544,18.8577778 114.531731,19.5244444 114.857606,20.3096296 C115.198294,21.08 115.376044,21.9096296 115.376044,22.7688889 L115.376044,33.0355556 C115.376044,33.4207407 115.242731,33.7318519 114.976106,33.9837037 C114.709481,34.2355556 114.398419,34.3688889 114.042919,34.3688889 C113.672606,34.3688889 113.361544,34.2355556 113.094919,33.9837037 C112.843106,33.717037 112.709794,33.4059259 112.709794,33.0355556 L112.709794,22.8133333 C112.709794,22.3244444 112.620919,21.8503704 112.413544,21.4059259 C112.220981,20.9614815 111.954356,20.5614815 111.628481,20.2207407 C111.302606,19.88 110.917481,19.6133333 110.458294,19.4207407 C109.999106,19.2281481 109.525106,19.1392593 109.036294,19.1392593 C108.532669,19.1392593 108.043856,19.2281481 107.599481,19.4207407 C107.155106,19.6133333 106.769981,19.88 106.429294,20.2207407 C106.088606,20.5614815 105.836794,20.9466667 105.644231,21.3911111 C105.466481,21.8355556 105.362794,22.3096296 105.362794,22.7985185 L105.362794,33.0503704 C105.362794,33.4207407 105.229481,33.7466667 104.962856,33.9985185 C104.696231,34.2503704 104.385169,34.3837037 104.044481,34.3837037 C103.674169,34.3837037 103.363106,34.2503704 103.096481,33.9985185 C102.844669,33.7318519 102.711356,33.4207407 102.711356,33.0503704 L102.711356,22.8148148 L102.6921,22.7985185 Z M117.7416,22.7985185 C117.7416,21.9244444 117.904538,21.1096296 118.230413,20.3244444 C118.556288,19.5392593 119.012513,18.8725926 119.596125,18.2948148 C120.178256,17.717037 120.850744,17.2725926 121.610625,16.9318519 C122.366063,16.6059259 123.189638,16.442963 124.076906,16.442963 C124.940475,16.442963 125.758125,16.6059259 126.528375,16.9318519 C127.298625,17.2577778 127.969631,17.717037 128.542875,18.28 C129.113156,18.8577778 129.5679,19.5244444 129.905625,20.3096296 C130.246313,21.08 130.415175,21.9096296 130.415175,22.7688889 L130.415175,34.0874074 C130.415175,34.9466667 130.244831,35.7762963 129.907106,36.5466667 C129.581231,37.317037 129.122044,37.9985185 128.544356,38.5762963 C127.981481,39.1540741 127.300106,39.5985185 126.529856,39.9392593 C125.759606,40.2651852 124.944919,40.4281481 124.085794,40.4281481 C123.715481,40.4281481 123.404419,40.2948148 123.137794,40.042963 C122.885981,39.7762963 122.752669,39.4651852 122.752669,39.08 C122.752669,38.6948148 122.885981,38.3837037 123.137794,38.117037 C123.404419,37.8651852 123.715481,37.7318519 124.085794,37.7318519 C124.574606,37.7318519 125.048606,37.642963 125.507794,37.4503704 C125.966981,37.2725926 126.352106,37.0059259 126.677981,36.6651852 C127.003856,36.3244444 127.270481,35.9244444 127.463044,35.48 C127.670419,35.0355556 127.759294,34.5614815 127.759294,34.0725926 L127.759294,33.1837037 C126.663169,33.9540741 125.433731,34.3392593 124.085794,34.3392593 C123.226669,34.3392593 122.411981,34.1762963 121.641731,33.8503704 C120.871481,33.5096296 120.204919,33.0651852 119.627231,32.4874074 C119.064356,31.9096296 118.605169,31.2281481 118.264481,30.4577778 C117.923794,29.6874074 117.760856,28.8577778 117.760856,27.9837037 L117.760856,22.7985185 L117.7416,22.7985185 Z M120.400444,28.042963 C120.400444,28.5318519 120.499688,29.0059259 120.696694,29.4503704 C120.896663,29.8948148 121.158844,30.28 121.4862,30.6207407 C121.812075,30.9614815 122.203125,31.2281481 122.65935,31.4059259 C123.115575,31.5985185 123.588094,31.6874074 124.076906,31.6874074 C124.565719,31.6874074 125.033794,31.5985185 125.478169,31.4207407 C125.922544,31.242963 126.307669,30.9911111 126.633544,30.68 C126.959419,30.3688889 127.226044,29.9985185 127.433419,29.5688889 C127.640794,29.1540741 127.744481,28.6948148 127.774106,28.1911111 L127.774106,22.8148148 C127.774106,22.3214815 127.685231,21.8518519 127.477856,21.4074074 C127.285294,20.962963 127.018669,20.562963 126.692794,20.2222222 C126.366919,19.8814815 125.981794,19.6148148 125.522606,19.4296296 C125.063419,19.2474074 124.589419,19.1481481 124.100606,19.1481481 C123.596981,19.1481481 123.108169,19.2474074 122.663794,19.4296296 C122.234231,19.6222222 121.834294,19.8888889 121.493606,20.2296296 C121.152919,20.5703704 120.901106,20.962963 120.708544,21.4088889 C120.530794,21.8533333 120.427106,22.3274074 120.427106,22.8162963 L120.427106,28.0755556 L120.400444,28.042963 Z M1.285725,53.0666667 C1.285725,52.162963 1.4605125,51.3037037 1.81305,50.4859259 C2.16410625,49.6711111 2.64255,48.96 3.2498625,48.3377778 C3.8542125,47.7155556 4.568175,47.2266667 5.3947125,46.8711111 C6.2182875,46.5155556 7.09074375,46.3377778 8.01208125,46.3377778 C8.93045625,46.3377778 9.80439375,46.5155556 10.6190813,46.8562963 C11.4337688,47.2118519 12.1595813,47.7007407 12.7817063,48.322963 C13.4038313,48.9451852 13.8778313,49.6562963 14.2333313,50.4859259 C14.5740188,51.3007407 14.7517688,52.16 14.7517688,53.0637037 L14.7517688,55.5525926 C14.7517688,56.0859259 14.5592063,56.5451852 14.1888938,56.9007407 C13.8185813,57.2562963 13.3742063,57.4488889 12.9002063,57.4488889 L5.0214375,57.4488889 L5.0214375,58.037037 C5.0214375,58.8666667 5.31324375,59.5703704 5.895375,60.1407407 C6.4730625,60.7185185 7.1781375,61.002963 8.00319375,61.002963 C8.28759375,61.002963 8.64013125,60.9437037 9.05488125,60.8133333 C9.46963125,60.68 9.83994375,60.4577778 10.1806313,60.117037 C10.3731938,59.8503704 10.6457438,59.5985185 10.9953188,59.3614815 C11.3478563,59.1244444 11.7063188,59.0059259 12.069225,59.0059259 C12.4099125,59.0059259 12.7239375,59.1096296 13.017225,59.3318519 C13.2394125,59.4948148 13.4171625,59.717037 13.5652875,59.9688889 C13.7134125,60.2207407 13.787475,60.5022222 13.787475,60.7837037 C13.787475,60.9318519 13.75785,61.1096296 13.6986,61.3318519 C13.63935,61.5540741 13.550475,61.7614815 13.4216063,61.9540741 C12.8883563,62.6651852 12.1921688,63.3022222 11.3182313,63.88 C10.4442938,64.4577778 9.34816875,64.7392593 8.01504375,64.7392593 C7.08185625,64.7392593 6.22273125,64.5614815 5.40804375,64.2059259 C4.59335625,63.8503704 3.88235625,63.3614815 3.26023125,62.7392593 C2.65291875,62.117037 2.16410625,61.3911111 1.80860625,60.5911111 C1.45310625,59.7762963 1.27535625,58.917037 1.27535625,57.9837037 L1.27535625,53.037037 L1.285725,53.0666667 Z M5.030325,53.6533333 L11.0293875,53.6533333 L11.0293875,53.0607407 C11.0293875,52.2311111 10.7390625,51.5244444 10.15545,50.957037 C9.5777625,50.3792593 8.8608375,50.0977778 8.01208125,50.0977778 C7.15295625,50.0977778 6.44195625,50.3792593 5.87908125,50.957037 C5.30139375,51.5259259 5.01995625,52.2311111 5.01995625,53.0607407 L5.01995625,53.642963 L5.030325,53.6533333 Z M17.1617625,42.482963 C17.1617625,41.92 17.3498813,41.4488889 17.7246375,41.0755556 C18.100875,40.6903704 18.5541375,40.5125926 19.0873875,40.5125926 C19.6206375,40.5125926 20.0827875,40.6903704 20.470875,41.0755556 C20.856,41.4488889 21.051525,41.92 21.051525,42.482963 L21.051525,43.4755556 C21.051525,44.0088889 20.8634063,44.4681481 20.48865,44.8414815 C20.1124125,45.2266667 19.6443375,45.4192593 19.0888688,45.4192593 C18.5793188,45.4192593 18.1305,45.2266667 17.7438938,44.8488889 C17.3439563,44.4711111 17.1513938,44.0148148 17.1513938,43.477037 L17.1513938,42.4844444 L17.1617625,42.482963 Z M17.1617625,48.3051852 C17.1617625,47.7422222 17.3498813,47.2681481 17.7246375,46.8977778 C18.100875,46.5125926 18.5541375,46.3348148 19.0873875,46.3348148 C19.6206375,46.3348148 20.0827875,46.5125926 20.470875,46.8977778 C20.856,47.2681481 21.051525,47.7422222 21.051525,48.3051852 L21.051525,62.8088889 C21.051525,63.3718519 20.8634063,63.8311111 20.48865,64.2162963 C20.1124125,64.5896296 19.6443375,64.7792593 19.0888688,64.7792593 C18.5793188,64.7792593 18.1305,64.5911111 17.7438938,64.2162963 C17.3439563,63.8355556 17.1513938,63.3718519 17.1513938,62.8088889 L17.1513938,48.3051852 L17.1617625,48.3051852 Z M23.6200125,53.1051852 C23.6200125,52.1718519 23.7948,51.2977778 24.1458563,50.482963 C24.5013563,49.6681481 24.9901688,48.9422222 25.6122938,48.32 C26.2344188,47.6977778 26.9454188,47.2088889 27.7601063,46.8681481 C28.5747938,46.5125926 29.4635438,46.3348148 30.3967313,46.3348148 C31.3151063,46.3348148 32.1890438,46.5125926 33.0037313,46.8681481 C33.8184188,47.2237037 34.5294188,47.7125926 35.1515438,48.3348148 C35.7736688,48.957037 36.2624813,49.682963 36.6327938,50.4977778 C37.0031063,51.3274074 37.1808563,52.1866667 37.1808563,53.12 L37.1808563,63.8459259 C37.1808563,64.7792593 37.0031063,65.6533333 36.6327938,66.482963 C36.2624813,67.3125926 35.7884813,68.0385185 35.1663563,68.6459259 C34.5442313,69.2533333 33.8332313,69.7422222 33.0185438,70.0977778 C32.2038563,70.4533333 31.3447313,70.6311111 30.4263563,70.6311111 C29.8782938,70.6311111 29.4042938,70.4385185 29.0339813,70.0577778 C28.6636688,69.677037 28.4711063,69.2133333 28.4711063,68.6503704 C28.4711063,68.1022222 28.6636688,67.6577778 29.0339813,67.2725926 C29.4191063,66.8874074 29.8782938,66.7096296 30.4411688,66.7096296 C31.1521688,66.7096296 31.7742938,66.4577778 32.3223563,65.9540741 C32.8704188,65.4503704 33.1814813,64.842963 33.2555438,64.1318519 C32.3816063,64.5614815 31.4484188,64.7837037 30.4559813,64.7837037 C29.5376063,64.7837037 28.6636688,64.6059259 27.8489813,64.2503704 C27.0342938,63.8948148 26.3084813,63.4059259 25.6863563,62.7837037 C25.0642313,62.1614815 24.5902313,61.4355556 24.2347313,60.6207407 C23.8940438,59.8059259 23.7162938,58.9318519 23.7162938,57.9985185 L23.7162938,53.0948148 L23.6200125,53.1051852 Z M27.5082938,58.0088889 C27.5082938,58.3940741 27.5971688,58.7644444 27.7452938,59.1051852 C27.9082313,59.4459259 28.1156063,59.7422222 28.3674188,59.9985185 C28.6192313,60.2503704 28.9302938,60.4577778 29.2857938,60.5911111 C29.6412938,60.7392593 30.0116063,60.8133333 30.3967313,60.8133333 C31.1521688,60.8133333 31.8039188,60.5614815 32.3371688,60.042963 C32.8852313,59.5392593 33.1814813,58.9022222 33.2259188,58.1466667 L33.2259188,53.0948148 C33.2259188,52.3096296 32.9592938,51.642963 32.3964188,51.0948148 C31.8483563,50.5466667 31.1817938,50.28 30.3967313,50.28 C29.5820438,50.28 28.8858563,50.5614815 28.3526063,51.1096296 C27.8045438,51.6577778 27.5379188,52.3244444 27.5379188,53.1096296 L27.5379188,58.0133333 L27.5082938,58.0088889 Z M39.6545438,53.0607407 C39.6545438,52.157037 39.8322938,51.2977778 40.1877938,50.482963 C40.5432938,49.6681481 41.0172938,48.9451852 41.6246063,48.32 C42.2319188,47.6977778 42.9429188,47.2088889 43.7724188,46.8577778 C44.6019188,46.5022222 45.4758563,46.3244444 46.3942313,46.3244444 C47.3126063,46.3244444 48.1865438,46.5022222 49.0160438,46.8577778 C49.8455438,47.2133333 50.5713563,47.7022222 51.1786688,48.3244444 C51.8007938,48.9466667 52.2896063,49.6725926 52.6451063,50.4874074 C53.0006063,51.317037 53.1783563,52.1762963 53.1783563,53.08 L53.1783563,55.5688889 C53.1783563,56.1022222 52.9857938,56.5466667 52.6154813,56.917037 C52.2451688,57.2874074 51.8156063,57.4651852 51.3267938,57.4651852 L43.400625,57.4651852 L43.400625,58.042963 C43.400625,58.8725926 43.69095,59.5688889 44.2716,60.1466667 C44.8537313,60.7096296 45.5558438,61.0059259 46.3809,61.0059259 C46.671225,61.0059259 47.0222813,60.9466667 47.43555,60.8133333 C47.8473375,60.6948148 48.2206125,60.4577778 48.5613,60.117037 C48.7538625,59.8503704 49.029375,59.5985185 49.3804313,59.3614815 C49.7314875,59.1244444 50.0914313,59.0059259 50.4528563,59.0059259 C50.7935438,59.0059259 51.1194188,59.1096296 51.4008563,59.3318519 C51.6230438,59.4948148 51.8007938,59.717037 51.9489188,59.9688889 C52.0970438,60.2207407 52.1711063,60.5022222 52.1711063,60.7985185 C52.1711063,60.9466667 52.1414813,61.1244444 52.0822313,61.3466667 C52.0229813,61.5688889 51.9341063,61.7762963 51.8156063,61.9688889 C51.2823563,62.68 50.5861688,63.317037 49.7122313,63.8948148 C48.8382938,64.4725926 47.7421688,64.7540741 46.4090438,64.7540741 C45.4906688,64.7540741 44.6315438,64.5762963 43.8168563,64.2207407 C43.0169813,63.8651852 42.2911688,63.3762963 41.6838563,62.7540741 C41.0617313,62.1318519 40.5877313,61.4059259 40.2322313,60.6059259 C39.8767313,59.7911111 39.7137938,58.9318519 39.7137938,57.9985185 L39.7137938,53.037037 L39.6545438,53.0607407 Z M43.4021063,53.6459259 L49.4011688,53.6459259 L49.4011688,53.0681481 C49.4011688,52.2385185 49.1197313,51.5274074 48.5272313,50.9644444 C47.9495438,50.3866667 47.2385438,50.1051852 46.3942313,50.1051852 C45.5499188,50.1051852 44.8389188,50.3866667 44.2760438,50.9644444 C43.7131688,51.5274074 43.4317313,52.2385185 43.4317313,53.0681481 L43.4317313,53.6459259 L43.4021063,53.6459259 Z M55.6816688,53.0977778 C55.6816688,52.1792593 55.8594188,51.3051852 56.2149188,50.4755556 C56.5704188,49.6607407 57.0592313,48.9496296 57.6665438,48.3274074 C58.2886688,47.7051852 58.9996688,47.2162963 59.8143563,46.8607407 C60.6290438,46.5051852 61.5029813,46.3274074 62.4509813,46.3274074 C63.3693563,46.3274074 64.2432938,46.5051852 65.0727938,46.8607407 C65.9022938,47.2162963 66.6281063,47.7051852 67.2354188,48.3274074 C67.8575438,48.9496296 68.3463563,49.6755556 68.6870438,50.4903704 C69.0425438,51.32 69.2202938,52.1792593 69.2202938,53.1125926 L69.2202938,62.8162963 C69.2202938,63.3792593 69.0277313,63.8533333 68.6426063,64.2237037 C68.2574813,64.6088889 67.7982938,64.8014815 67.2650438,64.8014815 C66.7317938,64.8014815 66.2726063,64.6237037 65.9022938,64.2385185 C65.5319813,63.8533333 65.3394188,63.3940741 65.3394188,62.8311111 L65.3394188,53.1274074 C65.3394188,52.7422222 65.2653563,52.3718519 65.1024188,52.0311111 C64.9394813,51.6903704 64.7469188,51.3940741 64.4802938,51.1422222 C64.2136688,50.8903704 63.9322313,50.682963 63.5767313,50.5496296 C63.2360438,50.4014815 62.8657313,50.3274074 62.4806063,50.3274074 C61.6807313,50.3274074 60.9993563,50.6088889 60.4512938,51.157037 C59.8884188,51.7051852 59.6217938,52.3718519 59.6217938,53.157037 L59.6217938,62.8607407 C59.6217938,63.4237037 59.4292313,63.8977778 59.0441063,64.2681481 C58.6589813,64.6533333 58.2146063,64.8459259 57.6961688,64.8459259 C57.1481063,64.8459259 56.6741063,64.6681481 56.3037938,64.282963 C55.9334813,63.8977778 55.7409188,63.4385185 55.7409188,62.8755556 L55.7409188,53.1718519 L55.6816688,53.0977778 Z M78.9669188,42.5940741 C78.9669188,42.0311111 79.1594813,41.5718519 79.5297938,41.1866667 C79.9149188,40.8162963 80.3741063,40.6237037 80.9369813,40.6237037 C81.4554188,40.6237037 81.8997938,40.8162963 82.2849188,41.2014815 C82.6700438,41.5866667 82.8774188,42.0459259 82.8774188,42.6088889 L82.8774188,47.0088889 C83.3217938,46.8162963 83.7661688,46.6681481 84.2401688,46.5348148 C84.7141688,46.4162963 85.2177938,46.357037 85.7510438,46.357037 C86.6694188,46.357037 87.5433563,46.5348148 88.3728563,46.8903704 C89.2023563,47.2459259 89.9133563,47.7348148 90.5354813,48.357037 C91.1576063,48.9792593 91.6464188,49.7051852 91.9871063,50.52 C92.3426063,51.3348148 92.5203563,52.2088889 92.5203563,53.1422222 L92.5203563,62.8459259 C92.5203563,63.4088889 92.3277938,63.8681481 91.9426688,64.2533333 C91.5575438,64.6237037 91.0983563,64.8162963 90.5651063,64.8162963 C90.0318563,64.8162963 89.5874813,64.6237037 89.2023563,64.2533333 C88.8320438,63.8681481 88.6394813,63.4088889 88.6394813,62.8459259 L88.6394813,53.1422222 C88.6394813,52.357037 88.3580438,51.6903704 87.7803563,51.1422222 C87.2174813,50.5940741 86.5361063,50.3274074 85.7658563,50.3274074 C84.9659813,50.3274074 84.2994188,50.5940741 83.7661688,51.1125926 C83.2329188,51.6311111 82.9514813,52.282963 82.8922313,53.0681481 L82.8922313,62.8459259 C82.8922313,63.4088889 82.6996688,63.8681481 82.3145438,64.2533333 C81.9294188,64.6237037 81.4850438,64.8162963 80.9666063,64.8162963 C80.4185438,64.8162963 79.9445438,64.6237037 79.5742313,64.2533333 C79.2039188,63.882963 79.0113563,63.4088889 79.0113563,62.8459259 L79.0113563,42.6074074 L78.9669188,42.5940741 Z M94.9940438,48.3125926 C94.9940438,47.7496296 95.1866063,47.2903704 95.5569188,46.9051852 C95.9420438,46.5348148 96.4012313,46.3422222 96.9641063,46.3422222 C97.4825438,46.3422222 97.9269188,46.5348148 98.3120438,46.9051852 C98.6971688,47.2755556 98.8897313,47.7496296 98.8897313,48.3125926 L98.8897313,58.0162963 C98.8897313,58.7866667 99.1711688,59.4533333 99.7340438,60.0014815 C100.296919,60.5496296 100.978294,60.8311111 101.778169,60.8311111 C102.163294,60.8311111 102.533606,60.757037 102.889106,60.6088889 C103.244606,60.4755556 103.540856,60.2681481 103.792669,60.0162963 C104.059294,59.7644444 104.251856,59.4681481 104.414794,59.1274074 C104.577731,58.7866667 104.651794,58.4311111 104.651794,58.0311111 L104.651794,48.2962963 C104.651794,47.7333333 104.844356,47.2681481 105.214669,46.8888889 C105.599794,46.5111111 106.044169,46.322963 106.577419,46.322963 C107.110669,46.322963 107.569856,46.5155556 107.969794,46.8859259 C108.354919,47.2592593 108.547481,47.7303704 108.547481,48.2933333 L108.547481,57.9911111 C108.547481,58.9244444 108.369731,59.7985185 108.029044,60.6133333 C107.673544,61.4281481 107.199544,62.1511111 106.577419,62.7762963 C105.970106,63.3985185 105.244294,63.8874074 104.414794,64.237037 C103.600106,64.5925926 102.726169,64.7703704 101.807794,64.7703704 C100.874606,64.7703704 99.9858563,64.5925926 99.1711688,64.237037 C98.3712938,63.8814815 97.6454813,63.3985185 97.0381688,62.7762963 C96.4308563,62.1540741 95.9420438,61.4340741 95.5865438,60.6162963 C95.2310438,59.7940741 95.0532938,58.9274074 95.0532938,57.9940741 L95.0532938,48.2962963 L94.9940438,48.3125926 Z M111.080419,42.4903704 C111.080419,41.9422222 111.272981,41.4681481 111.643294,41.082963 C112.028419,40.7125926 112.472794,40.52 113.006044,40.52 C113.539294,40.52 113.998481,40.7125926 114.398419,41.082963 C114.798356,41.4533333 114.990919,41.9274074 114.990919,42.4903704 L114.990919,43.482963 C114.990919,44.0162963 114.813169,44.4755556 114.428044,44.8459259 C114.057731,45.2162963 113.583731,45.4088889 113.035669,45.4088889 C112.532044,45.4088889 112.087669,45.2162963 111.702544,44.8459259 C111.317419,44.4607407 111.124856,44.0162963 111.124856,43.4681481 L111.124856,42.4755556 L111.080419,42.4903704 Z M111.080419,48.3125926 C111.080419,47.7496296 111.272981,47.2903704 111.643294,46.9051852 C112.028419,46.5348148 112.472794,46.3422222 113.006044,46.3422222 C113.539294,46.3422222 113.998481,46.5348148 114.398419,46.9051852 C114.783544,47.2755556 114.990919,47.7496296 114.990919,48.3125926 L114.990919,62.8162963 C114.990919,63.3792593 114.813169,63.8385185 114.428044,64.2237037 C114.057731,64.5940741 113.583731,64.7866667 113.035669,64.7866667 C112.532044,64.7866667 112.087669,64.5940741 111.702544,64.2237037 C111.317419,63.8385185 111.124856,63.3792593 111.124856,62.8162963 L111.124856,48.3125926 L111.080419,48.3125926 Z M117.538669,51.7644444 C117.538669,50.9644444 117.701606,50.2385185 118.012669,49.5718519 C118.338544,48.9051852 118.782919,48.3422222 119.345794,47.8681481 C119.923481,47.3940741 120.604856,47.0237037 121.389919,46.7422222 C122.174981,46.4755556 123.034106,46.3422222 123.952481,46.3422222 C124.707919,46.3718519 125.433731,46.4903704 126.144731,46.7125926 C126.752044,46.9051852 127.374169,47.2014815 128.011106,47.6014815 C128.648044,47.9866667 129.166481,48.5496296 129.581231,49.2755556 C129.803419,49.6459259 129.907106,50.0162963 129.907106,50.3718519 C129.907106,50.9051852 129.729356,51.3644444 129.359044,51.7496296 C129.003544,52.1348148 128.559169,52.3125926 128.025919,52.3125926 C127.759294,52.3125926 127.492669,52.2385185 127.196419,52.1051852 C126.900169,51.9718519 126.663169,51.7792593 126.470606,51.4977778 L126.470606,51.5422222 C126.129919,51.0977778 125.789231,50.7866667 125.418919,50.5792593 C125.063419,50.3866667 124.589419,50.282963 124.011731,50.282963 C123.256294,50.282963 122.648981,50.4162963 122.189794,50.6977778 C121.730606,50.9792593 121.508419,51.32 121.508419,51.7348148 C121.508419,52.2977778 121.730606,52.682963 122.174981,52.9051852 C122.619356,53.1274074 123.241481,53.2311111 124.011731,53.2311111 C124.930106,53.2311111 125.804044,53.3644444 126.633544,53.6014815 C127.463044,53.8533333 128.174044,54.2237037 128.796169,54.7125926 C129.418294,55.2014815 129.892294,55.7940741 130.247794,56.5051852 C130.603294,57.2162963 130.781044,58.0459259 130.781044,58.9940741 C130.781044,59.9718519 130.603294,60.8162963 130.232981,61.5422222 C129.862669,62.2681481 129.373856,62.8607407 128.766544,63.3348148 C128.144419,63.8237037 127.418606,64.1792593 126.589106,64.4162963 C125.744794,64.6681481 124.870856,64.7866667 123.952481,64.7866667 C123.759919,64.7866667 123.389606,64.757037 122.856356,64.6977778 C122.323106,64.6385185 121.730606,64.4755556 121.078856,64.2088889 C120.427106,63.9422222 119.760544,63.5244444 119.093981,62.9496296 C118.427419,62.3718519 117.873431,61.5866667 117.434981,60.5896296 C117.346106,60.397037 117.294263,60.1451852 117.294263,59.8607407 C117.294263,59.3274074 117.482381,58.8637037 117.857138,58.4681481 C118.231894,58.082963 118.70145,57.8903704 119.256919,57.8903704 C119.671669,57.8903704 120.034575,58.002963 120.353044,58.2311111 C120.664106,58.4533333 120.890738,58.7496296 121.037381,59.0903704 C121.289194,59.6533333 121.689131,60.082963 122.281631,60.3881481 C122.859319,60.6992593 123.445894,60.8474074 124.029506,60.8474074 C124.799756,60.8474074 125.475206,60.72 126.044006,60.4622222 C126.614288,60.2103704 126.903131,59.7214815 126.903131,59.0162963 C126.903131,58.3111111 126.621694,57.8162963 126.081038,57.5644444 C125.532975,57.3125926 124.8516,57.1792593 124.032469,57.1792593 C123.114094,57.1792593 122.254969,57.0903704 121.469906,56.9125926 C120.684844,56.7244444 120.003469,56.4266667 119.433188,56.0118519 C118.870313,55.597037 118.425938,55.0340741 118.114875,54.3377778 C117.797888,53.6414815 117.640875,52.7822222 117.640875,51.76 L117.538669,51.7644444 Z" id="Shape"></path>
            </g>
        </g>
    </g>
</svg>