<svg xmlns="http://www.w3.org/2000/svg" width="648" height="150"><g fill="none" fill-rule="evenodd"><path fill="#57B0B6" d="M75 0C33.6 0 0 33.6 0 75s33.6 75 75 75 75-33.6 75-75S116.3 0 75 0zm-9.5 118.3c-2.7-1.3-9.3-3.8-11.6-4.9V96.8c1.7-.2 3.7-.8 5.9-1.7 2.2-.9 4.5-1.9 6.7-3 2.3-1.1 4.4-2.2 6.4-3.3 2-1.1 3.6-2.1 4.7-2.7h8.6c2.5 0 4.9.5 7.2 1.4 2.3 1 4.3 2.3 6 4 1.7 1.7 3.1 3.7 4.1 6 1 2.3 1.5 4.7 1.5 7.3 0 2.6-.4 5.1-1.5 7.2-1.7 2.8-12 18.8-38 6.3zm-22-82.2c1 .6 2 1 3.2 1.4v32.2c-2.4 1.3-4.3 3-5.9 5.2-1.5 2.2-2.3 4.8-2.3 7.8 0 2.8.8 5.4 2.3 7.7 1.5 2.3 3.5 4 5.9 5.1v17.9c-.9.2-1.8.6-2.6 1-12-9.5-19.1-24-19.1-39.3-.1-15.4 6.7-29.4 18.5-39zm4.2 41.5c1.4-1.4 3-2.1 4.9-2.1 1.1 0 3.2.7 6.1 2 3 1.3 6.4 3 10.2 5.2-3.9 2.2-7.3 3.9-10.2 5.1-3 1.3-5 1.9-6.1 1.9-1.9 0-3.6-.7-4.9-2-1.4-1.4-2-3-2-4.9 0-2.1.7-3.8 2-5.2zM45.3 132c-1.4-1.4-2.1-3.1-2.1-5s.7-3.6 2.1-4.9c1.4-1.4 3-2 4.9-2 1.1 0 3.2.7 6.1 2 3 1.3 6.4 3 10.2 5-3.9 2.2-7.3 3.9-10.2 5.2-3 1.3-5 2-6.1 2-1.9-.2-3.5-.9-4.9-2.3zm60.9-43.6c-3.1-3.5-6.6-6.1-10.6-7.8.9-.6 1.8-1.2 2.7-1.9.9-.7 1.8-1.5 2.6-2.4 3.2-3.1 5.6-6.6 7.2-10.7 1.7-4 2.5-8.3 2.5-12.7 0-6.5-1.7-12.3-5-17.4C117.4 44.7 125 58.9 125 75c0 13-5.1 24.9-13.4 33.9.2-1.3.4-2.7.4-4.1 0-6.1-1.9-11.6-5.8-16.4zM74.8 27.2h2.7c3.5 0 6.9.7 10.1 2 3.2 1.4 5.9 3.2 8.3 5.5 2.3 2.3 4.2 5.1 5.5 8.2 1.4 3.1 2 6.4 2 10 0 3.5-.7 6.9-2 10-1.4 3.1-3.2 5.9-5.5 8.2-2.3 2.3-5.1 4.2-8.2 5.6-3.1 1.4-6.5 2.1-10 2.1H77c-1.4-.8-3-1.8-5-2.9-2-1.1-4.1-2.2-6.3-3.2s-4.4-1.9-6.5-2.7c-2.1-.8-3.9-1.3-5.4-1.5V37.3c1.7-.4 3.6-1.1 5.6-2 2-.9 4-1.9 6-2.9 1.9-1 3.7-2 5.4-2.9 1.7-1 3-1.7 4-2.3zm-18.4 1.5c-3 1.3-5 2-6.1 2-1.9 0-3.6-.7-4.9-2-1.4-1.4-2.1-3-2.1-4.9 0-1.9.7-3.6 2.1-5 1.4-1.4 3-2.1 4.9-2.1 1.1 0 3.2.7 6.1 2 3 1.3 6.4 3 10.2 5.2-3.8 1.8-7.2 3.5-10.2 4.8zM7.2 75c0-23.2 11.7-43.8 29.6-56-.5 1.5-.8 3-.8 4.6 0 2.8.8 5.3 2.3 7.5-13 10.9-20.4 26.7-20.4 43.8 0 17 7.7 33.2 20.7 44-1.7 2.3-2.5 5-2.5 7.9 0 1.4.2 2.7.6 3.9C18.8 118.6 7.2 98.1 7.2 75zM75 142.9c-6.6 0-13.1-1-19.1-2.8.1 0 .1 0 .2-.1 2.4-.8 11.8-5.4 13.9-6.6 1.5-.8 1.7-.8 2.7-1.4 16.5.9 29.3-6.8 29.6-6.9 17.7-9.8 29.9-28.6 29.9-50.1 0-31.5-26-56.7-55.8-57.1h-4.9c-2.2-1.1-6.1-3.2-8.5-4.3-2.4-1.1-4.7-2.1-7.1-3-.4-.1-.8-.3-1.2-.4 6.4-2 13.1-3.1 20.2-3.1 37.4 0 67.8 30.4 67.8 67.8s-30.3 68-67.7 68z"/><path fill="#445D87" d="M234.1 85.5c0 2.5-.5 4.6-1.4 6.4-.9 1.8-2.2 3.3-3.7 4.4-1.6 1.2-3.4 2-5.4 2.5-2.1.5-4.2.8-6.5.8H191V51.9h26.4c1.8 0 3.5.3 5.2.8 1.7.5 3.2 1.3 4.6 2.4 1.4 1.1 2.5 2.5 3.3 4.2.8 1.7 1.3 3.7 1.3 6 0 1.8-.4 3.4-1.1 4.9-.7 1.5-1.7 2.8-3 3.8 1.9 1 3.4 2.4 4.7 4.4 1.1 2 1.7 4.3 1.7 7.1zm-10.9-20c0-1.8-.6-3.2-1.7-4.2-1.2-1-2.7-1.5-4.7-1.5h-17.4v10.5h17.2c1.9 0 3.5-.4 4.7-1.1 1.3-.7 1.9-2 1.9-3.7zm2.5 19.7c0-2.1-.9-3.7-2.6-4.8-1.7-1.1-4-1.6-6.9-1.6h-16.8v13h17.1c6.1 0 9.2-2.2 9.2-6.6zm70.5-19c0 3.5-.8 6.4-2.4 8.6-1.6 2.2-3.8 3.9-6.7 5l10.7 19.9h-9.1l-10.3-18.6h-14.1v18.6h-8.5V52h23.3c2.4 0 4.7.3 6.7.9 2 .6 3.9 1.5 5.4 2.6 1.5 1.2 2.7 2.6 3.6 4.4 1 1.7 1.4 3.8 1.4 6.3zm-8.6.1c0-2.3-.8-3.9-2.5-4.9-1.6-1-3.7-1.5-6.2-1.5h-14.6v12.8h14.5c2.7 0 4.9-.5 6.4-1.4 1.6-.9 2.4-2.6 2.4-5zm40.6 33.4h-8.6V52h8.6v47.7zm63.6-8.2c-2.4 2.6-5.1 4.7-8.1 6.1-3 1.4-6.4 2.1-10.1 2.1-3.3 0-6.4-.6-9.2-1.9-2.9-1.3-5.4-3-7.5-5.1-2.2-2.1-3.9-4.7-5.1-7.5-1.3-2.9-1.9-6-1.9-9.2 0-3.3.6-6.4 1.9-9.2 1.3-2.9 3-5.4 5.1-7.6 2.2-2.2 4.7-3.9 7.5-5.2 2.9-1.3 6-1.9 9.2-1.9 3.7 0 7.1.8 10.2 2.3 3.1 1.5 5.8 3.6 8.2 6.1l-6.2 5.5c-1.8-1.9-3.7-3.3-5.8-4.2-2.1-.9-4.3-1.4-6.5-1.4s-4.2.4-6.1 1.2c-1.9.8-3.5 1.9-4.9 3.3-1.4 1.4-2.5 3.1-3.3 5-.8 1.9-1.2 3.9-1.2 6.1 0 2.2.4 4.2 1.2 6 .8 1.9 1.9 3.5 3.3 4.9 1.4 1.4 3 2.5 4.9 3.3 1.9.8 3.9 1.2 6.1 1.2 2.3 0 4.5-.5 6.9-1.6 2.3-1 4.4-2.6 6.4-4.6l5 6.3zm22 8.2V52h8.5v19c3.5-3.1 7-6.3 10.6-9.5 3.6-3.2 7-6.4 10.5-9.4h11.7l-26 23.2c2 1.9 4.1 3.9 6.3 6s4.5 4.2 6.7 6.3c2.3 2.1 4.5 4.2 6.7 6.3 2.2 2.1 4.3 4.1 6.3 5.9H443l-20.7-20.1v20h-8.5zM508 65.4c-1.7-1.8-3.6-3.1-5.7-4.1-2.1-.9-4.5-1.4-7.1-1.4-3.3 0-5.9.5-7.7 1.4-1.9.9-2.8 2.1-2.8 3.6 0 .8.4 1.6 1.1 2.3.8.7 1.7 1.3 2.9 1.9 1.2.6 2.5 1.1 3.9 1.6s2.8.9 4.2 1.3c2.2.6 4.3 1.3 6.5 2s4.2 1.6 5.9 2.7c1.7 1.1 3.1 2.4 4.2 4s1.7 3.6 1.7 5.9c0 2.3-.5 4.3-1.6 6-1 1.7-2.5 3.2-4.3 4.4-1.8 1.2-4 2-6.5 2.7-2.5.6-5.2.9-8.2.9-4.1 0-7.8-.7-11.2-2.1-3.4-1.4-6.8-3.7-10.1-6.9l7.3-5.7c2 2 4.1 3.7 6.2 4.9 2.2 1.2 4.8 1.9 8 1.9 1.7 0 3.3-.2 4.8-.5s2.7-.8 3.8-1.3c1-.5 1.9-1.2 2.4-1.9.6-.7.8-1.5.8-2.3 0-1-.3-1.8-1-2.5s-1.6-1.4-2.7-1.9-2.4-1-3.9-1.5c-1.5-.4-3-.8-4.6-1.2-2.2-.5-4.3-1.2-6.5-1.9s-4.1-1.6-5.8-2.6c-1.7-1-3.1-2.4-4.2-3.9s-1.7-3.5-1.7-5.9c0-1.7.4-3.4 1.1-5 .7-1.6 1.9-3.1 3.4-4.3 1.5-1.3 3.5-2.3 5.9-3.1 2.4-.8 5.3-1.2 8.6-1.2 3.9 0 7.5.7 10.8 2.1 3.3 1.4 6.5 3.6 9.9 6.7l-6.9 5.5-.9-.6zm28.9 10.5c0-3.3.6-6.4 1.9-9.3 1.3-2.9 3-5.4 5.1-7.6 2.1-2.2 4.7-3.9 7.5-5.1 2.9-1.3 6-1.9 9.2-1.9 3.9 0 7.3.7 10.2 2.1 2.9 1.4 5.3 3.2 7.3 5.4 1.9 2.2 3.4 4.8 4.4 7.7 1 2.9 1.5 5.8 1.5 8.8 0 3-.5 5.9-1.5 8.8-1 2.9-2.4 5.4-4.4 7.6-1.9 2.2-4.4 4-7.3 5.4-2.9 1.4-6.3 2.1-10.2 2.1-3.3 0-6.4-.6-9.2-1.9-2.9-1.3-5.4-3-7.5-5.1-2.2-2.1-3.9-4.7-5.1-7.5-1.3-3.2-1.9-6.3-1.9-9.5zm8.2 0c0 2.2.4 4.2 1.2 6 .8 1.9 1.9 3.5 3.3 4.9 1.4 1.4 3.1 2.5 5 3.3 1.9.8 3.9 1.2 6.1 1.2 2.1 0 4.2-.4 6.1-1.2 1.9-.8 3.5-1.9 4.9-3.3 1.4-1.4 2.5-3 3.3-4.9.8-1.9 1.3-3.9 1.3-6s-.4-4.2-1.3-6.1c-.8-1.9-2-3.5-3.3-5-1.4-1.4-3-2.5-4.9-3.3-1.9-.8-3.9-1.2-6.1-1.2-2.2 0-4.2.4-6.1 1.2-1.9.8-3.5 1.9-5 3.3-1.4 1.4-2.5 3.1-3.3 5-.8 1.9-1.2 3.9-1.2 6.1zm69-6.1v29.9h-8.5V50l33.2 31.9V52h8.3v49.1l-33-31.3z"/></g></svg>
