<?xml version="1.0" encoding="UTF-8" standalone="no"?>
<svg width="48px" height="40px" viewBox="0 0 48 40" version="1.1" xmlns="http://www.w3.org/2000/svg" xmlns:xlink="http://www.w3.org/1999/xlink">
    <!-- Generator: Sketch 40.3 (33839) - http://www.bohemiancoding.com/sketch -->
    <title>cta_h40w48</title>
    <desc>Created with Sketch.</desc>
    <defs>
        <path d="M8.30822941,20.2356495 L8.30822941,39.5107487 L47.662971,39.5107487 L47.662971,0 L8.30822941,0 L8.30822941,6.28220904 C8.28199292,6.28484309 8.25663098,6.28659913 8.23126903,6.28967219 C8.23258086,6.28659913 4.37275525,7.0241331 6.18484779e-06,5.26809983 C6.18484779e-06,6.14611646 -0.0332267081,14.0482662 4.77242452,18.2451857 C6.06544642,19.4568487 7.24740049,20.0380957 8.30822941,20.2356495 L8.30822941,20.2356495 Z" id="path-1"></path>
        <mask id="mask-2" maskContentUnits="userSpaceOnUse" maskUnits="objectBoundingBox" x="0" y="0" width="47.662971" height="39.5107487" fill="white">
            <use xlink:href="#path-1"></use>
        </mask>
        <mask id="mask-4" maskContentUnits="userSpaceOnUse" maskUnits="objectBoundingBox" x="0" y="0" width="47.662971" height="39.5107487" fill="white">
            <use xlink:href="#path-1"></use>
        </mask>
    </defs>
    <g id="Page-1" stroke="none" stroke-width="1" fill="none" fill-rule="evenodd">
        <g id="Desktop-HD" transform="translate(-927.000000, -99.000000)">
            <g id="cta_h40w48" transform="translate(927.000000, 99.000000)">
                <path d="M35.4770521,5.49587473 C35.4770521,5.49587473 33.826041,5.33929037 32.9332917,5.33929037 C30.5629493,5.33929037 26.1053963,5.70348096 22.8998157,8.14417375 C18.8704992,11.2120837 17.9697868,15.6114005 17.4858088,17.9764402 C17.406178,18.3679011 16.9390109,19.5392049 16.7868276,19.7428526 C16.6673815,19.8923994 16.5479354,20.0533822 16.4360099,20.2148049 C15.2096962,21.9944125 14.5115998,24.3260241 14.3465872,27.1634559 C14.2802282,28.0607371 14.283325,29.0433479 14.3545503,30.090176 C14.463379,31.7545446 14.6774973,32.8998976 14.7261605,33.1382929 C15.166784,35.7091795 15.8697467,38.3579183 16.2621494,39.5107487 L21.582369,39.5107487 C21.354979,38.9978909 19.0961197,33.5244757 18.4546497,30.2542377 C17.9158149,27.5096129 18.1210853,25.5276771 19.1615939,23.4221452 C19.9366666,22.2468828 21.00947,21.9279961 21.582369,21.8431063 C22.0676743,21.7714118 22.6595963,21.7489797 23.2913337,21.725668 C25.6537129,21.6363798 28.5943,21.5255391 30.8142286,18.9370589 C35.466877,13.5159851 35.4845728,6.69664807 35.4823608,6.40899028 L35.4770521,5.49587473 L35.4770521,5.49587473 Z M24.6857568,14.0992178 C23.1050862,15.8911411 22.8144339,16.9212551 22.8144339,16.9212551 C22.8144339,16.9212551 22.1871204,17.9724816 21.8146254,17.3153551 C21.3916976,16.5685004 22.0181263,14.8680646 24.3818327,12.8245507 C26.9410769,10.6108173 29.970585,9.52572286 29.970585,9.52572286 C29.970585,9.52572286 26.9145333,11.5723157 24.6857568,14.0992178 Z" id="Combined-Shape" fill="#FFFFFF"></path>
                <path d="M17.3215593,16.3718524 C17.0649757,15.7961947 16.8399251,14.8218701 16.8399251,14.8218701 C16.6347446,13.7516025 16.2386383,12.0855248 15.5535514,10.5824187 C15.3764483,10.0505707 15.0222419,9.4363606 14.5393118,8.84493151 C14.3911499,8.65216944 14.2360767,8.46816928 14.0719323,8.30169295 C13.128534,7.36329213 11.8646221,6.56245334 10.4823535,6.40911987 C9.47502531,6.29521501 8.74587863,6.29959596 8.13076911,6.35873887 C8.13249694,6.3556722 4.31959544,7.09167284 6.10965827e-06,5.33929037 C6.10965827e-06,6.2154816 -0.0328227693,14.1012028 4.71440591,18.2893969 C6.28414467,19.774541 7.6880112,20.3112082 8.90786323,20.3541415 C10.214107,20.5863322 11.7384901,20.507475 13.4244258,19.8030173 C13.422698,19.8060839 15.3829276,19.0836642 16.293929,19.5734551 C16.4883105,19.7583315 16.672757,19.966865 16.8369014,20.1999319 C17.6360254,21.1637422 17.9945513,22.0995145 17.8174482,23.4602395 C17.6550316,24.7066215 17.2848428,25.8145653 16.9267489,27.2173475 L18.1167957,32.2939996 C18.9599796,30.6257314 19.7193634,28.7892346 20.1668728,26.9001663 C20.7232359,24.5497833 20.8796051,22.7207341 20.2273471,20.6809609 C19.8878273,19.6190171 17.4861357,16.5497192 17.3224232,16.3722905 L17.3215593,16.3718524 Z M14.5760283,33.4567053 C13.5013145,35.7720407 11.7095489,38.5688431 11.2309384,39.5107487 L16.8464045,39.5107487 C16.6878756,38.8667481 14.5760283,33.4562672 14.5760283,33.4562672 L14.5760283,33.4567053 Z M13.3579042,15.4610516 C12.6054317,15.6669565 9.98344097,15.2244799 8.32428671,14.4043649 C3.89973136,12.2165154 2.59175971,9.72024656 2.59175971,9.72024656 C2.59175971,9.72024656 5.57314026,12.2292202 8.37353003,13.0563447 C11.1726239,13.8843454 13.012769,14.1239837 13.2814474,14.1485171 C13.5501259,14.1739266 13.8235559,14.2282505 13.979925,14.4034887 C14.2831602,14.7395081 14.0045467,15.2831847 13.3579042,15.4610516 Z" id="Combined-Shape" fill="#FFFFFF"></path>
                <mask id="mask-3" fill="white">
                    <use xlink:href="#path-1"></use>
                </mask>
                <g id="a" stroke="#FFFFFF" mask="url(#mask-2)" stroke-width="4">
                    <use mask="url(#mask-4)" xlink:href="#path-1"></use>
                </g>
                <path d="M29.3205532,35.4219925 C28.6567717,35.5849809 27.9187058,35.7732454 26.731458,35.7732454 C24.40301,35.7732454 21.7131312,34.5913622 21.7131312,31.2714556 C21.7131312,28.2165141 23.8417498,26.6964518 26.7184256,26.6964518 C27.6063636,26.6964518 28.4699746,26.8977903 29.3075208,27.1488098 L29.1198548,29.0467086 C28.3696254,28.6327008 27.6441575,28.4304907 26.8435363,28.4304907 C25.1927709,28.4304907 24.1154293,29.6376502 24.1154293,31.2718914 C24.1154293,32.9950354 25.3296107,34.038335 27.0303334,34.038335 C27.7935952,34.038335 28.5698893,33.8365607 29.2080405,33.5851054 L29.3209876,35.4219925 L29.3205532,35.4219925 Z M31.8835836,28.5817125 L29.7323757,28.5817125 L29.7323757,26.8472378 L36.3645428,26.8472378 L36.3645428,28.5817125 L34.2120316,28.5817125 L34.2120316,35.6224595 L31.8835836,35.6224595 L31.8835836,28.5817125 L31.8835836,28.5817125 Z M41.1191815,26.8472378 L38.2659639,26.8472378 L34.9500975,35.6224595 L37.3146017,35.6224595 L38.0031446,33.7485295 L41.282086,33.7485295 L41.9324006,35.6224595 L44.4854396,35.6224595 L41.1196159,26.8476736 L41.1191815,26.8472378 Z M38.5418154,32.0898836 L39.6678112,28.6575413 L39.6930071,28.6575413 L40.7312516,32.0898836 L38.5418154,32.0898836 L38.5418154,32.0898836 Z" id="Shape" fill="#FFFFFF" mask="url(#mask-3)"></path>
            </g>
        </g>
    </g>
</svg>