<?xml version="1.0" encoding="UTF-8" standalone="no"?>
<svg width="119px" height="40px" viewBox="0 0 119 40" version="1.1" xmlns="http://www.w3.org/2000/svg" xmlns:xlink="http://www.w3.org/1999/xlink">
    <!-- Generator: Sketch 40.3 (33839) - http://www.bohemiancoding.com/sketch -->
    <title>veh_h40w119</title>
    <desc>Created with Sketch.</desc>
    <defs></defs>
    <g id="Page-1" stroke="none" stroke-width="1" fill="none" fill-rule="evenodd">
        <g id="Desktop-HD" transform="translate(-1009.000000, -623.000000)" fill="#FFFFFF">
            <g id="veh_h40w119" transform="translate(1009.000000, 623.000000)">
                <path d="M103.817088,29.3896296 C103.817088,29.3896296 100.15635,29.1540741 97.398525,28.7688889 C94.6526,28.3851852 91.4678625,27.6681481 91.4440625,27.6622222 L89.978875,38.2177778 C89.978875,38.2177778 93.177,38.9377778 95.9333375,39.3237037 C98.6904188,39.7088889 102.3519,39.9444444 102.3519,39.9444444 L103.818575,29.3888889 L103.817088,29.3888889 L103.817088,29.3896296 Z M112.48475,6.04444444 C110.480344,4.10814815 107.656325,1.75925926 107.656325,1.75925926 L100.283531,9.43333333 L105.284506,18.8348148 L105.277069,18.837037 L109.271006,18.1259259 L116.641569,10.4496296 C116.641569,10.4496296 114.477256,7.98074074 112.469131,6.0437037 L112.48475,6.04444444 Z" id="Shape"></path>
                <path d="M109.279187,18.122963 L105.28525,18.8340741 L103.817087,29.3896296 L113.375762,34.0503704 C113.375762,34.0503704 115.0492,31.222963 116.266719,28.7125926 C117.484237,26.202963 118.838606,22.7837037 118.838606,22.7837037 L109.279931,18.122963 L109.279187,18.122963 Z M92.90925,17.1066667 L100.282787,9.43259259 L95.2833,0.0311111111 C95.2833,0.0311111111 92.2711125,1.33333333 89.8167375,2.64592593 C87.3593875,3.95851852 84.2594375,5.92592593 84.2594375,5.92592593 L89.2604125,15.3296296 L92.90925,17.1088889 L92.90925,17.1066667 L92.90925,17.1066667 Z" id="Shape"></path>
                <path d="M80.9795,29.5259259 C80.9795,29.5259259 80.072125,25.96 79.5857125,23.2125926 C79.0993,20.4644444 78.7951063,17.1903704 78.7951063,17.1903704 L89.2596688,15.3274074 L98.8168563,19.9866667 L98.8183438,19.9888889 L91.4448063,27.6614815 L80.9802438,29.5251852" id="Shape"></path>
                <path d="M0.2975,9.18222222 C0.2603125,9.10074074 0.24320625,9.01185185 0.24320625,8.91777778 C0.24320625,8.74740741 0.30270625,8.59925926 0.419475,8.45851852 C0.53624375,8.31777778 0.6946625,8.2437037 0.8939875,8.2437037 C1.02265625,8.2437037 1.1424,8.28074074 1.2539625,8.34740741 C1.365525,8.41407407 1.4503125,8.51777778 1.50906875,8.6437037 L4.10475625,14.8659259 L6.70044375,8.6437037 C6.81944375,8.36962963 7.02025625,8.2362963 7.31775625,8.2362963 C7.51856875,8.2362963 7.67475625,8.30296296 7.79375625,8.4437037 C7.91275625,8.58444444 7.96481875,8.73259259 7.96481875,8.90296296 C7.96481875,8.99185185 7.94250625,9.08074074 7.91275625,9.16222222 L4.7228125,16.8148148 C4.596375,17.0844444 4.388125,17.2192593 4.1099625,17.2192593 C3.805025,17.2192593 3.59975,17.0844444 3.4941375,16.8140741 L0.2975,9.17777778 L0.2975,9.18222222 Z M8.80228125,11.4207407 C8.80228125,10.9866667 8.88409375,10.5748148 9.04771875,10.1874074 C9.21283125,9.8 9.44190625,9.46148148 9.7342,9.17259259 C10.0272375,8.88592593 10.3641562,8.66 10.7457,8.49481481 C11.1250125,8.33185185 11.5392812,8.24814815 11.9847875,8.24814815 C12.41765,8.24814815 12.8282,8.33111111 13.21495,8.49481481 C13.6017,8.66 13.937875,8.88592593 14.22645,9.17333333 C14.5127937,9.46222222 14.741125,9.8 14.9107,10.1881481 C15.0817625,10.5748148 15.1658062,10.9866667 15.1658062,11.4207407 L15.1658062,12.7785185 C15.1658062,12.9711111 15.1063062,13.1266667 14.9798687,13.26 C14.8534312,13.3933333 14.6972437,13.4525926 14.5038687,13.4525926 L10.1454937,13.4525926 L10.1454937,14.0525926 C10.1454937,14.3044444 10.1975562,14.5340741 10.2942437,14.7562963 C10.3983687,14.9859259 10.5322437,15.1785185 10.6958687,15.3488889 C10.8594937,15.5192593 11.0603062,15.6525926 11.2834312,15.7488889 C11.5139937,15.8451852 11.7519937,15.8896296 11.9974312,15.8896296 C12.3767437,15.8896296 12.7114312,15.7933333 13.0089312,15.6007407 C13.3138687,15.4081481 13.5369937,15.1488889 13.6857437,14.8155556 L13.7080562,14.7637037 C13.7601187,14.6377778 13.8344937,14.5340741 13.9460562,14.46 C14.0576187,14.3859259 14.1840562,14.3488889 14.3253687,14.3488889 C14.5113062,14.3488889 14.6749312,14.4155556 14.8013687,14.5562963 C14.9352437,14.6896296 14.9947437,14.8451852 14.9947437,15.022963 C14.9947437,15.1044444 14.9649937,15.2155556 14.9054937,15.3414815 C14.6600562,15.9118519 14.2807437,16.3637037 13.7675562,16.7192593 C13.2543687,17.0748148 12.6668062,17.2451852 12.0123062,17.2451852 C11.5809312,17.2451852 11.1718687,17.1637037 10.7851187,17.0007407 C10.3983687,16.8377778 10.0636812,16.6081481 9.77361875,16.3192593 C9.49099375,16.0303704 9.26043125,15.697037 9.08936875,15.3044444 C8.91830625,14.9192593 8.83649375,14.5044444 8.83649375,14.0748148 L8.83649375,11.4451852 L8.80228125,11.4207407 Z M10.1388,12.1081481 L13.8300312,12.1081481 L13.8300312,11.4207407 C13.8300312,11.1740741 13.7802,10.9392593 13.6812812,10.717037 C13.580875,10.4933333 13.4492312,10.2962963 13.2848625,10.1259259 C13.1212375,9.95555556 12.9248875,9.82222222 12.6973,9.72888889 C12.4667375,9.63481481 12.2309687,9.58814815 11.9847875,9.58814815 C11.7267062,9.58814815 11.486475,9.63481481 11.26335,9.72888889 C11.040225,9.82296296 10.8446187,9.95555556 10.6757875,10.1259259 C10.504725,10.2962963 10.3730812,10.4933333 10.2793687,10.7162963 C10.1901187,10.9385185 10.1454937,11.1740741 10.1454937,11.42 L10.1454937,12.1088889 L10.1388,12.1081481 Z M17.4944875,9.00592593 C17.787525,8.7362963 18.1065937,8.54518519 18.4524375,8.43333333 C18.7982812,8.32222222 19.1939562,8.26592593 19.6394625,8.26592593 C20.048525,8.29555556 20.375775,8.34740741 20.6152625,8.42148148 C20.85475,8.48814815 21.0749,8.59185185 21.274225,8.72518519 C21.47355,8.85851852 21.5732125,9.05111111 21.5732125,9.29555556 C21.5732125,9.49555556 21.5085062,9.65851852 21.3798375,9.77703704 C21.250425,9.89555556 21.09275,9.96222222 20.9038375,9.96222222 C20.7528562,9.96222222 20.6174937,9.91777778 20.500725,9.8362963 C20.1957875,9.67333333 19.8856437,9.58444444 19.5688062,9.58444444 C19.0556187,9.58444444 18.6242437,9.75481481 18.2821187,10.102963 C17.9399937,10.4437037 17.7540562,10.8659259 17.7317437,11.3622222 L17.7317437,16.54 C17.7317437,16.7251852 17.6722437,16.8881481 17.5383687,17.0140741 C17.4119312,17.14 17.2557437,17.2066667 17.0623687,17.2066667 C16.8913062,17.2066667 16.7351187,17.14 16.6012437,17.0140741 C16.4673687,16.8807407 16.4004312,16.7251852 16.4004312,16.5325926 L16.4004312,12.1481481 C16.4004312,11.657037 16.4376187,11.2340741 16.4971187,10.8814815 C16.5640562,10.5281481 16.6458687,10.2296296 16.7574312,9.98222222 C16.8615562,9.73481481 16.9879937,9.53259259 17.1218687,9.37481481 C17.2557437,9.21481481 17.3896187,9.08296296 17.5234937,8.97703704 L17.4944875,9.00592593 Z M22.12805,11.4207407 C22.12805,10.9866667 22.2098625,10.5748148 22.3734875,10.1874074 C22.5371125,9.8 22.7661875,9.46148148 23.059225,9.17259259 C23.3522625,8.88592593 23.6891812,8.66 24.070725,8.49481481 C24.4500375,8.33185185 24.8635625,8.24814815 25.3098125,8.24814815 C25.742675,8.24814815 26.153225,8.33111111 26.539975,8.49481481 C26.926725,8.66 27.2636437,8.88592593 27.551475,9.17333333 C27.8378187,9.46222222 28.06615,9.8 28.235725,10.1881481 C28.4067875,10.5748148 28.491575,10.9866667 28.491575,11.4207407 L28.491575,12.7785185 C28.491575,12.9711111 28.4268687,13.1266667 28.2982,13.26 C28.1687875,13.3933333 28.0103687,13.4525926 27.8236875,13.4525926 L23.463825,13.4525926 L23.463825,14.0525926 C23.463825,14.3044444 23.5136562,14.5340741 23.612575,14.7562963 C23.7122375,14.9859259 23.844625,15.1785185 24.00825,15.3488889 C24.171875,15.5192593 24.3689687,15.6525926 24.5973,15.7488889 C24.826375,15.8451852 25.0636312,15.8896296 25.3098125,15.8896296 C25.6846625,15.8896296 26.0215812,15.7933333 26.3213125,15.6007407 C26.6188125,15.4081481 26.8449125,15.1488889 26.998125,14.8155556 L27.0144875,14.7637037 C27.0613437,14.6377778 27.140925,14.5340741 27.2524875,14.46 C27.36405,14.3859259 27.489,14.3488889 27.6303125,14.3488889 C27.81625,14.3488889 27.9754125,14.4155556 28.104825,14.5562963 C28.2334937,14.6896296 28.2982,14.8451852 28.2982,15.022963 C28.2982,15.1044444 28.26845,15.2155556 28.2104375,15.3414815 C27.965,15.9118519 27.5827125,16.3637037 27.0672937,16.7192593 C26.551875,17.0748148 25.9665437,17.2451852 25.3098125,17.2451852 C24.8754625,17.2451852 24.4656562,17.1637037 24.0789062,17.0007407 C23.6921562,16.8377778 23.3552375,16.6081481 23.0674062,16.3192593 C22.7810625,16.0303704 22.5519875,15.697037 22.3831562,15.3044444 C22.2120937,14.9192593 22.1273062,14.5044444 22.1273062,14.0748148 L22.1273062,11.4451852 L22.12805,11.4207407 Z M23.463825,12.1081481 L27.1550562,12.1081481 L27.1550562,11.4207407 C27.1550562,11.1740741 27.1104312,10.9392593 27.0063062,10.717037 C26.9096187,10.4933333 26.7757437,10.2962963 26.6121187,10.1259259 C26.4484937,9.95555556 26.2551187,9.82222222 26.0245562,9.72888889 C25.8014312,9.63481481 25.5634312,9.58814815 25.3179937,9.58814815 C25.0651187,9.58814815 24.8196812,9.63481481 24.5965562,9.72888889 C24.3734312,9.82296296 24.1800562,9.95555556 24.0089937,10.1259259 C23.8379312,10.2962963 23.7114937,10.4933333 23.6148062,10.7162963 C23.5255562,10.9385185 23.4734937,11.1740741 23.4734937,11.42 L23.4734937,12.1088889 L23.463825,12.1081481 Z M29.889825,11.4207407 C29.889825,10.9866667 29.9716375,10.5748148 30.1352625,10.1874074 C30.300375,9.8 30.52945,9.46148148 30.821,9.17259259 C31.1147812,8.88592593 31.4517,8.66 31.8325,8.49481481 C32.2133,8.33185185 32.6260812,8.24814815 33.0715875,8.24814815 C33.5051937,8.24814815 33.915,8.33111111 34.30175,8.49481481 C34.6885,8.66 35.0261625,8.88592593 35.31325,9.17333333 C35.6003375,9.46222222 35.8286687,9.8 35.9975,10.1881481 C36.1685625,10.5748148 36.25335,10.9866667 36.25335,11.4207407 L36.25335,16.5511111 C36.25335,16.7385185 36.1864125,16.897037 36.0525375,17.0266667 C35.9164312,17.1555556 35.7609875,17.2192593 35.5854625,17.2192593 C35.3980375,17.2192593 35.2396187,17.1555556 35.11095,17.0266667 C34.9822812,16.897037 34.917575,16.7377778 34.917575,16.5511111 L34.917575,11.4207407 C34.917575,11.1740741 34.8677437,10.9392593 34.768825,10.717037 C34.6684187,10.4933333 34.536775,10.2962963 34.3724062,10.1259259 C34.2087812,9.95555556 34.0116875,9.82222222 33.7848437,9.72888889 C33.5542812,9.63481481 33.3177687,9.58814815 33.0708437,9.58814815 C32.81425,9.58814815 32.5725312,9.63481481 32.3508937,9.72888889 C32.1277687,9.82296296 31.9321625,9.95555556 31.7618437,10.1259259 C31.5922687,10.2962963 31.460625,10.4933333 31.3661687,10.7162963 C31.2724562,10.9385185 31.2263437,11.1740741 31.2263437,11.42 L31.2263437,16.5511111 C31.2263437,16.7385185 31.1594062,16.897037 31.0240437,17.0266667 C30.8886812,17.1555556 30.7339812,17.2192593 30.5577125,17.2192593 C30.3702875,17.2192593 30.2118687,17.1555556 30.0832,17.0266667 C29.9545312,16.897037 29.889825,16.7377778 29.889825,16.5511111 L29.889825,11.4207407 L29.889825,11.4207407 Z M37.81225,6.11555556 C37.81225,5.92740741 37.8762125,5.76888889 38.005625,5.63925926 C38.1342937,5.51037037 38.2927125,5.44518519 38.4801375,5.44518519 C38.6564062,5.44518519 38.8111062,5.51185185 38.9464687,5.64518519 C39.0803437,5.77851852 39.1472812,5.93407407 39.1472812,6.12666667 L39.1472812,6.63777778 C39.1472812,6.83037037 39.0833187,6.98592593 38.9539062,7.11925926 C38.8259812,7.25259259 38.6675625,7.31185185 38.4801375,7.31185185 C38.3046125,7.31185185 38.1491687,7.25259259 38.01455,7.11925926 C37.8791875,6.99333333 37.81225,6.83037037 37.81225,6.64518519 L37.81225,6.13407407 L37.81225,6.11555556 Z M37.81225,8.91777778 C37.81225,8.72518519 37.8762125,8.56962963 38.005625,8.4362963 C38.1342937,8.30296296 38.2927125,8.2437037 38.4801375,8.2437037 C38.6564062,8.2437037 38.8111062,8.30296296 38.9464687,8.4362963 C39.0803437,8.56222222 39.1472812,8.72518519 39.1472812,8.91037037 L39.1472812,16.5474074 C39.1472812,16.7325926 39.0833187,16.8881481 38.9539062,17.0214815 C38.8259812,17.1474074 38.6675625,17.2140741 38.4801375,17.2140741 C38.3046125,17.2140741 38.1491687,17.1474074 38.01455,17.0214815 C37.8791875,16.8881481 37.81225,16.7325926 37.81225,16.5474074 L37.81225,8.91777778 L37.81225,8.91777778 Z M40.599825,11.4140741 C40.599825,10.977037 40.6816375,10.5696296 40.8452625,10.177037 C41.010375,9.78444444 41.23945,9.45111111 41.5317437,9.16222222 C41.8292437,8.87333333 42.1639312,8.65111111 42.5432437,8.48074074 C42.9299937,8.31777778 43.3390562,8.22888889 43.7853062,8.22888889 C44.2241187,8.22888889 44.6331812,8.31037037 45.0199312,8.47333333 C45.4066812,8.6362963 45.7488062,8.85851852 46.0314312,9.14740741 C46.3214937,9.4362963 46.5520562,9.76962963 46.7156812,10.1622222 C46.8867437,10.5474074 46.9759937,10.9622222 46.9759937,11.3918519 L46.9759937,17.0511111 C46.9759937,17.4807407 46.8941812,17.8955556 46.7231187,18.2807407 C46.5520562,18.6659259 46.3289312,19.0066667 46.0388687,19.2955556 C45.7562437,19.5844444 45.4141187,19.8066667 45.0273687,19.9696296 C44.6406187,20.1325926 44.2315562,20.2140741 43.8001812,20.2140741 C43.6142437,20.2140741 43.4580562,20.1474074 43.3241812,20.0214815 C43.1977437,19.8881481 43.1308062,19.7325926 43.1308062,19.54 C43.1308062,19.3474074 43.1977437,19.1918519 43.3241812,19.0585185 C43.4580562,18.9251852 43.6142437,18.8659259 43.8001812,18.8659259 C44.0456187,18.8659259 44.2836187,18.8214815 44.5141812,18.7251852 C44.7447437,18.6288889 44.9381187,18.4955556 45.1017437,18.3325926 C45.2728062,18.1622222 45.3992437,17.9622222 45.5033687,17.74 C45.6074937,17.5103704 45.6521187,17.2807407 45.6521187,17.0288889 L45.6521187,16.5918519 C45.1017437,16.977037 44.4918687,17.1696296 43.8076187,17.1696296 C43.3762437,17.1696296 42.9671812,17.0881481 42.5804312,16.9251852 C42.1936812,16.7622222 41.8589937,16.5325926 41.5689312,16.2437037 C41.2788687,15.9548148 41.0557437,15.6140741 40.8846812,15.2288889 C40.7136187,14.8362963 40.6318062,14.4288889 40.6318062,13.9918519 L40.6318062,11.3992593 L40.599825,11.4140741 Z M41.9363437,14.0362963 C41.9363437,14.2807407 41.9854312,14.5177778 42.0850937,14.74 C42.1847562,14.9622222 42.3156562,15.1548148 42.4807687,15.3251852 C42.6443937,15.4955556 42.8414875,15.6288889 43.0698187,15.7177778 C43.2929437,15.8066667 43.5309437,15.8585185 43.7763812,15.8585185 C44.0218187,15.8585185 44.2523812,15.8140741 44.4755062,15.7251852 C44.6986312,15.6362963 44.8920062,15.5103704 45.0556312,15.3548148 C45.2192562,15.1918519 45.3531312,15.0066667 45.4498187,14.7992593 C45.5465062,14.5844444 45.5985687,14.3548148 45.6134437,14.1103704 L45.6134437,11.4074074 C45.6134437,11.1614815 45.5613812,10.9259259 45.4646937,10.7037037 C45.3605687,10.4814815 45.2341312,10.2837037 45.0630687,10.1133333 C44.8994437,9.94296296 44.6986312,9.80962963 44.4755062,9.71333333 C44.2449437,9.62074074 44.0069437,9.57259259 43.7615062,9.57259259 C43.5011937,9.57259259 43.2631937,9.62074074 43.0400687,9.71333333 C42.8169437,9.80962963 42.6235687,9.94148148 42.4525062,10.1118519 C42.2814437,10.2822222 42.1475687,10.4822222 42.0583187,10.7044444 C41.9616312,10.9266667 41.9170062,11.1637037 41.9170062,11.4081481 L41.9170062,14.0377778 L41.9363437,14.0362963 Z M48.5631562,6.10296296 C48.5631562,5.91037037 48.6278625,5.75481481 48.7565312,5.62148148 C48.8859437,5.48814815 49.0436187,5.42888889 49.2325312,5.42888889 C49.4073125,5.42888889 49.5627562,5.49555556 49.697375,5.62148148 C49.83125,5.74740741 49.899675,5.91037037 49.899675,6.09555556 L49.899675,6.60666667 C49.899675,6.79185185 49.8349687,6.95481481 49.7063,7.08074074 C49.5768875,7.20666667 49.4184687,7.27333333 49.2317875,7.27333333 C49.0555187,7.27333333 48.900075,7.20666667 48.7654562,7.08074074 C48.6315812,6.94740741 48.5631562,6.79185185 48.5631562,6.59925926 L48.5631562,6.08814815 L48.5631562,6.10296296 Z M48.5631562,8.90296296 C48.5631562,8.71037037 48.6278625,8.55481481 48.7565312,8.42148148 C48.8859437,8.28814815 49.0436187,8.22148148 49.2325312,8.22148148 C49.4073125,8.22148148 49.5627562,8.28814815 49.697375,8.41407407 C49.83125,8.54 49.899675,8.70296296 49.899675,8.88814815 L49.899675,16.5251852 C49.899675,16.7103704 49.8349687,16.8733333 49.7063,16.9992593 C49.5768875,17.1325926 49.4184687,17.1918519 49.2317875,17.1918519 C49.0555187,17.1918519 48.900075,17.1325926 48.7654562,16.9992593 C48.6315812,16.8733333 48.5631562,16.7103704 48.5631562,16.5251852 L48.5631562,8.89555556 L48.5631562,8.90296296 Z M51.5627,11.3992593 C51.5627,10.9622222 51.6445125,10.5548148 51.8081375,10.1622222 C51.9717625,9.76962963 52.202325,9.4362963 52.493875,9.14740741 C52.7876562,8.85851852 53.124575,8.6362963 53.505375,8.46592593 C53.886175,8.30296296 54.2989562,8.22148148 54.7444625,8.22148148 C55.1780687,8.22148148 55.587875,8.30296296 55.9753687,8.46592593 C56.3621187,8.62888889 56.7042437,8.85851852 56.9868687,9.14 C57.2769312,9.42888889 57.5074937,9.76222222 57.6711187,10.1548148 C57.8421812,10.54 57.9314312,10.9548148 57.9314312,11.3844444 L57.9314312,16.5177778 C57.9314312,16.7103704 57.8644937,16.8659259 57.7306187,16.9918519 C57.5967437,17.1177778 57.4405562,17.1844444 57.2620562,17.1844444 C57.0761187,17.1844444 56.9199312,17.1177778 56.7860562,16.9918519 C56.6596187,16.8585185 56.5926812,16.702963 56.5926812,16.5177778 L56.5926812,11.4066667 C56.5926812,11.1622222 56.5480562,10.9251852 56.4439312,10.702963 C56.3472437,10.4807407 56.2133687,10.2807407 56.0497437,10.1103704 C55.8861187,9.94 55.6927437,9.80666667 55.4621812,9.71037037 C55.2316187,9.61407407 54.9936187,9.56962963 54.7481812,9.56962963 C54.4953062,9.56962963 54.2498687,9.61407407 54.0267437,9.71037037 C53.8036187,9.80666667 53.6102437,9.94 53.4391812,10.1103704 C53.2681187,10.2807407 53.1416812,10.4733333 53.0449937,10.6955556 C52.9557437,10.9177778 52.9036812,11.1548148 52.9036812,11.3992593 L52.9036812,16.5251852 C52.9036812,16.7103704 52.8367437,16.8733333 52.7028687,16.9992593 C52.5689937,17.1251852 52.4128062,17.1918519 52.2417437,17.1918519 C52.0558062,17.1918519 51.8996187,17.1251852 51.7657437,16.9992593 C51.6393062,16.8659259 51.5723687,16.7103704 51.5723687,16.5251852 L51.5723687,11.4074074 L51.5627,11.3992593 Z M59.1192,11.3992593 C59.1192,10.9622222 59.2010125,10.5548148 59.3646375,10.1622222 C59.5282625,9.76962963 59.7573375,9.4362963 60.050375,9.14740741 C60.3426687,8.85851852 60.6803312,8.6362963 61.061875,8.46592593 C61.4411875,8.30296296 61.8547125,8.22148148 62.3002187,8.22148148 C62.733825,8.22148148 63.144375,8.30296296 63.531125,8.46592593 C63.917875,8.62888889 64.2547937,8.85851852 64.542625,9.14 C64.8289687,9.42888889 65.0573,9.76222222 65.226875,10.1548148 C65.3979375,10.54 65.482725,10.9548148 65.482725,11.3844444 L65.482725,17.0437037 C65.482725,17.4733333 65.3971937,17.8881481 65.2276187,18.2733333 C65.0639937,18.6585185 64.8334312,18.9992593 64.5433687,19.2881481 C64.2607437,19.577037 63.9186187,19.7992593 63.5318687,19.9696296 C63.1451187,20.1325926 62.7360562,20.2140741 62.3046812,20.2140741 C62.1187437,20.2140741 61.9625562,20.1474074 61.8286812,20.0214815 C61.7022437,19.8881481 61.6353062,19.7325926 61.6353062,19.54 C61.6353062,19.3474074 61.7022437,19.1918519 61.8286812,19.0585185 C61.9625562,18.9325926 62.1187437,18.8659259 62.3046812,18.8659259 C62.5501187,18.8659259 62.7881187,18.8214815 63.0186812,18.7251852 C63.2492437,18.6362963 63.4426187,18.502963 63.6062437,18.3325926 C63.7698687,18.1622222 63.9037437,17.9622222 64.0004312,17.74 C64.1045562,17.5177778 64.1491812,17.2807407 64.1491812,17.0362963 L64.1491812,16.5918519 C63.5988062,16.977037 62.9814937,17.1696296 62.3046812,17.1696296 C61.8733062,17.1696296 61.4642437,17.0881481 61.0774937,16.9251852 C60.6907437,16.7548148 60.3560562,16.5325926 60.0659937,16.2437037 C59.7833687,15.9548148 59.5528062,15.6140741 59.3817437,15.2288889 C59.2106812,14.8437037 59.1288687,14.4288889 59.1288687,13.9918519 L59.1288687,11.3992593 L59.1192,11.3992593 Z M60.4542312,14.0214815 C60.4542312,14.2659259 60.5040625,14.502963 60.6029812,14.7251852 C60.7033875,14.9474074 60.8350312,15.14 60.9994,15.3103704 C61.163025,15.4807407 61.359375,15.6140741 61.58845,15.702963 C61.817525,15.7992593 62.0547812,15.8437037 62.3002187,15.8437037 C62.5456562,15.8437037 62.7806812,15.7992593 63.0038062,15.7103704 C63.2269312,15.6214815 63.4203062,15.4955556 63.5839312,15.34 C63.7475562,15.1844444 63.8814312,14.9992593 63.9855562,14.7844444 C64.0896812,14.577037 64.1417437,14.3474074 64.1566187,14.0955556 L64.1566187,11.4074074 C64.1566187,11.1607407 64.1119937,10.9259259 64.0078687,10.7037037 C63.9111812,10.4814815 63.7773062,10.2814815 63.6136812,10.1111111 C63.4500562,9.94074074 63.2566812,9.80740741 63.0261187,9.71481481 C62.7955562,9.6237037 62.5575562,9.57407407 62.3121187,9.57407407 C62.0592437,9.57407407 61.8138062,9.6237037 61.5906812,9.71481481 C61.3749937,9.81111111 61.1741812,9.94444444 61.0031187,10.1148148 C60.8320562,10.2851852 60.7056187,10.4814815 60.6089312,10.7044444 C60.5196812,10.9266667 60.4676187,11.1637037 60.4676187,11.4081481 L60.4676187,14.0377778 L60.4542312,14.0214815 Z M0.645575,26.5333333 C0.645575,26.0814815 0.7333375,25.6518519 0.91035,25.242963 C1.08661875,24.8355556 1.32685,24.48 1.6317875,24.1688889 C1.9352375,23.8577778 2.293725,23.6133333 2.7087375,23.4355556 C3.1222625,23.2577778 3.56033125,23.1688889 4.02294375,23.1688889 C4.48406875,23.1688889 4.92288125,23.2577778 5.33194375,23.4281481 C5.74100625,23.6059259 6.10544375,23.8503704 6.41781875,24.1614815 C6.73019375,24.4725926 6.96819375,24.8281481 7.14669375,25.242963 C7.31775625,25.6503704 7.40700625,26.08 7.40700625,26.5318519 L7.40700625,27.7762963 C7.40700625,28.042963 7.31031875,28.2725926 7.12438125,28.4503704 C6.93844375,28.6281481 6.71531875,28.7244444 6.47731875,28.7244444 L2.5213125,28.7244444 L2.5213125,29.0185185 C2.5213125,29.4333333 2.66783125,29.7851852 2.960125,30.0703704 C3.2501875,30.3592593 3.6042125,30.5014815 4.01848125,30.5014815 C4.16128125,30.5014815 4.33829375,30.4718519 4.54654375,30.4066667 C4.75479375,30.34 4.94073125,30.2288889 5.11179375,30.0585185 C5.20848125,29.9251852 5.34533125,29.7992593 5.52085625,29.6807407 C5.69786875,29.5622222 5.87785625,29.502963 6.060075,29.502963 C6.2311375,29.502963 6.3888125,29.5548148 6.536075,29.6659259 C6.6476375,29.7474074 6.7368875,29.8585185 6.8112625,29.9844444 C6.8856375,30.1103704 6.922825,30.2511111 6.922825,30.3918519 C6.922825,30.4659259 6.90795,30.5548148 6.8782,30.6659259 C6.84845,30.777037 6.803825,30.8807407 6.73911875,30.977037 C6.47136875,31.3325926 6.12180625,31.6511111 5.68299375,31.94 C5.24418125,32.2288889 4.69380625,32.3696296 4.02443125,32.3696296 C3.55586875,32.3696296 3.12449375,32.2807407 2.71543125,32.102963 C2.30636875,31.9251852 1.94936875,31.6807407 1.63699375,31.3696296 C1.33205625,31.0585185 1.08661875,30.6955556 0.90811875,30.2955556 C0.72961875,29.8881481 0.64036875,29.4585185 0.64036875,28.9918519 L0.64036875,26.5185185 L0.645575,26.5333333 Z M2.525775,26.8266667 L5.5379625,26.8266667 L5.5379625,26.5303704 C5.5379625,26.1155556 5.3921875,25.7622222 5.09915,25.4785185 C4.8090875,25.1896296 4.4491125,25.0488889 4.02294375,25.0488889 C3.59156875,25.0488889 3.23456875,25.1896296 2.95194375,25.4785185 C2.66188125,25.762963 2.52056875,26.1155556 2.52056875,26.5303704 L2.52056875,26.8214815 L2.525775,26.8266667 Z M8.6170875,21.2414815 C8.6170875,20.96 8.71154375,20.7244444 8.8997125,20.5377778 C9.088625,20.3451852 9.3162125,20.2562963 9.5839625,20.2562963 C9.8517125,20.2562963 10.0837625,20.3451852 10.278625,20.5377778 C10.472,20.7244444 10.570175,20.96 10.570175,21.2414815 L10.570175,21.7377778 C10.570175,22.0044444 10.4757187,22.2340741 10.28755,22.4207407 C10.0986375,22.6133333 9.8636125,22.7096296 9.58470625,22.7096296 C9.32885625,22.7096296 9.1035,22.6133333 8.90938125,22.4244444 C8.70856875,22.2355556 8.61188125,22.0074074 8.61188125,21.7385185 L8.61188125,21.2422222 L8.6170875,21.2414815 Z M8.6170875,24.1525926 C8.6170875,23.8711111 8.71154375,23.6340741 8.8997125,23.4488889 C9.088625,23.2562963 9.3162125,23.1674074 9.5839625,23.1674074 C9.8517125,23.1674074 10.0837625,23.2562963 10.278625,23.4488889 C10.472,23.6340741 10.570175,23.8711111 10.570175,24.1525926 L10.570175,31.4044444 C10.570175,31.6859259 10.4757187,31.9155556 10.28755,32.1081481 C10.0986375,32.2948148 9.8636125,32.3896296 9.58470625,32.3896296 C9.32885625,32.3896296 9.1035,32.2955556 8.90938125,32.1081481 C8.70856875,31.9177778 8.61188125,31.6859259 8.61188125,31.4044444 L8.61188125,24.1525926 L8.6170875,24.1525926 Z M11.8598375,26.5525926 C11.8598375,26.0859259 11.9476,25.6488889 12.1238687,25.2414815 C12.3023687,24.8340741 12.5478062,24.4711111 12.8601812,24.16 C13.1725562,23.8488889 13.5295562,23.6044444 13.9386187,23.4340741 C14.3476812,23.2562963 14.7939312,23.1674074 15.2624937,23.1674074 C15.7236187,23.1674074 16.1624312,23.2562963 16.5714937,23.4340741 C16.9805562,23.6118519 17.3375562,23.8562963 17.6499312,24.1674074 C17.9623062,24.4785185 18.2077437,24.8414815 18.3936812,25.2488889 C18.5796187,25.6637037 18.6688687,26.0933333 18.6688687,26.56 L18.6688687,31.922963 C18.6688687,32.3896296 18.5796187,32.8266667 18.3936812,33.2414815 C18.2077437,33.6562963 17.9697437,34.0192593 17.6573687,34.322963 C17.3449937,34.6266667 16.9879937,34.8711111 16.5789312,35.0488889 C16.1698687,35.2266667 15.7384937,35.3155556 15.2773687,35.3155556 C15.0021812,35.3155556 14.7641812,35.2192593 14.5782437,35.0288889 C14.3923062,34.8385185 14.2956187,34.6066667 14.2956187,34.3251852 C14.2956187,34.0511111 14.3923062,33.8288889 14.5782437,33.6362963 C14.7716187,33.4437037 15.0021812,33.3548148 15.2848062,33.3548148 C15.6418062,33.3548148 15.9541812,33.2288889 16.2293687,32.977037 C16.5045562,32.7251852 16.6607437,32.4214815 16.6979312,32.0659259 C16.2591187,32.2807407 15.7905562,32.3918519 15.2922437,32.3918519 C14.8311187,32.3918519 14.3923062,32.302963 13.9832437,32.1251852 C13.5741812,31.9474074 13.2097437,31.702963 12.8973687,31.3918519 C12.5849937,31.0807407 12.3469937,30.7177778 12.1684937,30.3103704 C11.9974312,29.902963 11.9081812,29.4659259 11.9081812,28.9992593 L11.9081812,26.5474074 L11.8598375,26.5525926 Z M13.8121812,29.0044444 C13.8121812,29.197037 13.8568062,29.3822222 13.9311812,29.5525926 C14.0129937,29.722963 14.1171187,29.8711111 14.2435562,29.9992593 C14.3699937,30.1251852 14.5261812,30.2288889 14.7046812,30.2955556 C14.8831812,30.3696296 15.0691187,30.4066667 15.2624937,30.4066667 C15.6418062,30.4066667 15.9690562,30.2807407 16.2368062,30.0214815 C16.5119937,29.7696296 16.6607437,29.4511111 16.6830562,29.0733333 L16.6830562,26.5474074 C16.6830562,26.1548148 16.5491812,25.8214815 16.2665562,25.5474074 C15.9913687,25.2733333 15.6566812,25.14 15.2624937,25.14 C14.8534312,25.14 14.5038687,25.2807407 14.2361187,25.5548148 C13.9609312,25.8288889 13.8270562,26.1622222 13.8270562,26.5548148 L13.8270562,29.0066667 L13.8121812,29.0044444 Z M19.9109312,26.5303704 C19.9109312,26.0785185 20.0001812,25.6488889 20.1786812,25.2414815 C20.3571812,24.8340741 20.5951812,24.4725926 20.9001187,24.16 C21.2050562,23.8488889 21.5620562,23.6044444 21.9785562,23.4288889 C22.3950562,23.2511111 22.8338687,23.1622222 23.2949937,23.1622222 C23.7561187,23.1622222 24.1949312,23.2511111 24.6114312,23.4288889 C25.0279312,23.6066667 25.3923687,23.8511111 25.6973062,24.1622222 C26.0096812,24.4733333 26.2551187,24.8362963 26.4336187,25.2437037 C26.6121187,25.6585185 26.7013687,26.0881481 26.7013687,26.54 L26.7013687,27.7844444 C26.7013687,28.0511111 26.6046812,28.2733333 26.4187437,28.4585185 C26.2328062,28.6437037 26.0171187,28.7325926 25.7716812,28.7325926 L21.791875,28.7325926 L21.791875,29.0214815 C21.791875,29.4362963 21.93765,29.7844444 22.2292,30.0733333 C22.5214937,30.3548148 22.8740312,30.502963 23.2883,30.502963 C23.434075,30.502963 23.6103437,30.4733333 23.81785,30.4066667 C24.0246125,30.3474074 24.2120375,30.2288889 24.3831,30.0585185 C24.4797875,29.9251852 24.618125,29.7992593 24.7943937,29.6807407 C24.9706625,29.5622222 25.1513937,29.502963 25.3328687,29.502963 C25.5039312,29.502963 25.6675562,29.5548148 25.8088687,29.6659259 C25.9204312,29.7474074 26.0096812,29.8585185 26.0840562,29.9844444 C26.1584312,30.1103704 26.1956187,30.2511111 26.1956187,30.3992593 C26.1956187,30.4733333 26.1807437,30.5622222 26.1509937,30.6733333 C26.1212437,30.7844444 26.0766187,30.8881481 26.0171187,30.9844444 C25.7493687,31.34 25.3998062,31.6585185 24.9609937,31.9474074 C24.5221812,32.2362963 23.9718062,32.377037 23.3024312,32.377037 C22.8413062,32.377037 22.4099312,32.2881481 22.0008687,32.1103704 C21.5992437,31.9325926 21.2348062,31.6881481 20.9298687,31.377037 C20.6174937,31.0659259 20.3794937,30.702963 20.2009937,30.302963 C20.0224937,29.8955556 19.9406812,29.4659259 19.9406812,28.9992593 L19.9406812,26.5185185 L19.9109312,26.5303704 Z M21.7926187,26.822963 L24.8048062,26.822963 L24.8048062,26.5340741 C24.8048062,26.1192593 24.6634937,25.7637037 24.3659937,25.4822222 C24.0759312,25.1933333 23.7189312,25.0525926 23.2949937,25.0525926 C22.8710562,25.0525926 22.5140562,25.1933333 22.2314312,25.4822222 C21.9488062,25.7637037 21.8074937,26.1192593 21.8074937,26.5340741 L21.8074937,26.822963 L21.7926187,26.822963 Z M27.9583062,26.5488889 C27.9583062,26.0896296 28.0475562,25.6525926 28.2260562,25.2377778 C28.4045562,24.8303704 28.6499937,24.4748148 28.9549312,24.1637037 C29.2673062,23.8525926 29.6243062,23.6081481 30.0333687,23.4303704 C30.4424312,23.2525926 30.8812437,23.1637037 31.3572437,23.1637037 C31.8183687,23.1637037 32.2571812,23.2525926 32.6736812,23.4303704 C33.0901812,23.6081481 33.4546187,23.8525926 33.7595562,24.1637037 C34.0719312,24.4748148 34.3173687,24.8377778 34.4884312,25.2451852 C34.6669312,25.66 34.7561812,26.0896296 34.7561812,26.5562963 L34.7561812,31.4081481 C34.7561812,31.6896296 34.6594937,31.9266667 34.4661187,32.1118519 C34.2727437,32.3044444 34.0421812,32.4007407 33.7744312,32.4007407 C33.5066812,32.4007407 33.2761187,32.3118519 33.0901812,32.1192593 C32.9042437,31.9266667 32.8075562,31.697037 32.8075562,31.4155556 L32.8075562,26.5637037 C32.8075562,26.3711111 32.7703687,26.1859259 32.6885562,26.0155556 C32.6067437,25.8451852 32.5100562,25.697037 32.3761812,25.5711111 C32.2423062,25.4451852 32.1009937,25.3414815 31.9224937,25.2748148 C31.7514312,25.2007407 31.5654937,25.1637037 31.3721187,25.1637037 C30.9704937,25.1637037 30.6283687,25.3044444 30.3531812,25.5785185 C30.0705562,25.8525926 29.9366812,26.1859259 29.9366812,26.5785185 L29.9366812,31.4303704 C29.9366812,31.7118519 29.8399937,31.9488889 29.6466187,32.1340741 C29.4532437,32.3266667 29.2301187,32.422963 28.9698062,32.422963 C28.6946187,32.422963 28.4566187,32.3340741 28.2706812,32.1414815 C28.0847437,31.9488889 27.9880562,31.7192593 27.9880562,31.4377778 L27.9880562,26.5859259 L27.9583062,26.5488889 Z M39.6500562,21.297037 C39.6500562,21.0155556 39.7467437,20.7859259 39.9326812,20.5933333 C40.1260562,20.4081481 40.3566187,20.3118519 40.6392437,20.3118519 C40.8995562,20.3118519 41.1226812,20.4081481 41.3160562,20.6007407 C41.5094312,20.7933333 41.6135562,21.022963 41.6135562,21.3044444 L41.6135562,23.5044444 C41.8366812,23.4081481 42.0598062,23.3340741 42.2978062,23.2674074 C42.5358062,23.2081481 42.7886812,23.1785185 43.0564312,23.1785185 C43.5175562,23.1785185 43.9563687,23.2674074 44.3728687,23.4451852 C44.7893687,23.622963 45.1463687,23.8674074 45.4587437,24.1785185 C45.7711187,24.4896296 46.0165562,24.8525926 46.1876187,25.26 C46.3661187,25.6674074 46.4553687,26.1044444 46.4553687,26.5711111 L46.4553687,31.422963 C46.4553687,31.7044444 46.3586812,31.9340741 46.1653062,32.1266667 C45.9719312,32.3118519 45.7413687,32.4081481 45.4736187,32.4081481 C45.2058687,32.4081481 44.9827437,32.3118519 44.7893687,32.1266667 C44.6034312,31.9340741 44.5067437,31.7044444 44.5067437,31.422963 L44.5067437,26.5711111 C44.5067437,26.1785185 44.3654312,25.8451852 44.0753687,25.5711111 C43.7927437,25.297037 43.4506187,25.1637037 43.0638687,25.1637037 C42.6622437,25.1637037 42.3275562,25.297037 42.0598062,25.5562963 C41.7920562,25.8155556 41.6507437,26.1414815 41.6209937,26.5340741 L41.6209937,31.422963 C41.6209937,31.7044444 41.5243062,31.9340741 41.3309312,32.1266667 C41.1375562,32.3118519 40.9144312,32.4081481 40.6541187,32.4081481 C40.3789312,32.4081481 40.1409312,32.3118519 39.9549937,32.1266667 C39.7690562,31.9414815 39.6723687,31.7044444 39.6723687,31.422963 L39.6723687,21.3037037 L39.6500562,21.297037 Z M47.6974312,24.1562963 C47.6974312,23.8748148 47.7941187,23.6451852 47.9800562,23.4525926 C48.1734312,23.2674074 48.4039937,23.1711111 48.6866187,23.1711111 C48.9469312,23.1711111 49.1700562,23.2674074 49.3634312,23.4525926 C49.5568062,23.6377778 49.6534937,23.8748148 49.6534937,24.1562963 L49.6534937,29.0081481 C49.6534937,29.3933333 49.7948062,29.7266667 50.0774312,30.0007407 C50.3600562,30.2748148 50.7021812,30.4155556 51.1038062,30.4155556 C51.2971812,30.4155556 51.4831187,30.3785185 51.6616187,30.3044444 C51.8401187,30.2377778 51.9888687,30.1340741 52.1153062,30.0081481 C52.2491812,29.8822222 52.3458687,29.7340741 52.4276812,29.5637037 C52.5094937,29.3933333 52.5466812,29.2155556 52.5466812,29.0155556 L52.5466812,24.1481481 C52.5466812,23.8666667 52.6433687,23.6340741 52.8293062,23.4444444 C53.0226812,23.2555556 53.2458062,23.1614815 53.5135562,23.1614815 C53.7813062,23.1614815 54.0118687,23.2577778 54.2126812,23.442963 C54.4060562,23.6296296 54.5027437,23.8651852 54.5027437,24.1466667 L54.5027437,28.9955556 C54.5027437,29.4622222 54.4134937,29.8992593 54.2424312,30.3066667 C54.0639312,30.7140741 53.8259312,31.0755556 53.5135562,31.3881481 C53.2086187,31.6992593 52.8441812,31.9437037 52.4276812,32.1185185 C52.0186187,32.2962963 51.5798062,32.3851852 51.1186812,32.3851852 C50.6501187,32.3851852 50.2038687,32.2962963 49.7948062,32.1185185 C49.3931812,31.9407407 49.0287437,31.6992593 48.7238062,31.3881481 C48.4188687,31.077037 48.1734312,30.717037 47.9949312,30.3081481 C47.8164312,29.897037 47.7271812,29.4637037 47.7271812,28.997037 L47.7271812,24.1481481 L47.6974312,24.1562963 Z M55.7745562,21.2451852 C55.7745562,20.9711111 55.8712437,20.7340741 56.0571812,20.5414815 C56.2505562,20.3562963 56.4736812,20.26 56.7414312,20.26 C57.0091812,20.26 57.2397437,20.3562963 57.4405562,20.5414815 C57.6413687,20.7266667 57.7380562,20.9637037 57.7380562,21.2451852 L57.7380562,21.7414815 C57.7380562,22.0081481 57.6488062,22.2377778 57.4554312,22.422963 C57.2694937,22.6081481 57.0314937,22.7044444 56.7563062,22.7044444 C56.5034312,22.7044444 56.2803062,22.6081481 56.0869312,22.422963 C55.8935562,22.2303704 55.7968687,22.0081481 55.7968687,21.7340741 L55.7968687,21.2377778 L55.7745562,21.2451852 Z M55.7745562,24.1562963 C55.7745562,23.8748148 55.8712437,23.6451852 56.0571812,23.4525926 C56.2505562,23.2674074 56.4736812,23.1711111 56.7414312,23.1711111 C57.0091812,23.1711111 57.2397437,23.2674074 57.4405562,23.4525926 C57.6339312,23.6377778 57.7380562,23.8748148 57.7380562,24.1562963 L57.7380562,31.4081481 C57.7380562,31.6896296 57.6488062,31.9192593 57.4554312,32.1118519 C57.2694937,32.297037 57.0314937,32.3933333 56.7563062,32.3933333 C56.5034312,32.3933333 56.2803062,32.297037 56.0869312,32.1118519 C55.8935562,31.9192593 55.7968687,31.6896296 55.7968687,31.4081481 L55.7968687,24.1562963 L55.7745562,24.1562963 Z M59.0173062,25.8822222 C59.0173062,25.4822222 59.0991187,25.1192593 59.2553062,24.7859259 C59.4189312,24.4525926 59.6420562,24.1711111 59.9246812,23.9340741 C60.2147437,23.697037 60.5568687,23.5118519 60.9510562,23.3711111 C61.3452437,23.2377778 61.7766187,23.1711111 62.2377437,23.1711111 C62.6170562,23.1859259 62.9814937,23.2451852 63.3384937,23.3562963 C63.6434312,23.4525926 63.9558062,23.6007407 64.2756187,23.8007407 C64.5954312,23.9933333 64.8557437,24.2748148 65.0639937,24.6377778 C65.1755562,24.822963 65.2276187,25.0081481 65.2276187,25.1859259 C65.2276187,25.4525926 65.1383687,25.6822222 64.9524312,25.8748148 C64.7739312,26.0674074 64.5508062,26.1562963 64.2830562,26.1562963 C64.1491812,26.1562963 64.0153062,26.1192593 63.8665562,26.0525926 C63.7178062,25.9859259 63.5988062,25.8896296 63.5021187,25.7488889 L63.5021187,25.7711111 C63.3310562,25.5488889 63.1599937,25.3933333 62.9740562,25.2896296 C62.7955562,25.1933333 62.5575562,25.1414815 62.2674937,25.1414815 C61.8881812,25.1414815 61.5832437,25.2081481 61.3526812,25.3488889 C61.1221187,25.4896296 61.0105562,25.66 61.0105562,25.8674074 C61.0105562,26.1488889 61.1221187,26.3414815 61.3452437,26.4525926 C61.5683687,26.5637037 61.8807437,26.6155556 62.2674937,26.6155556 C62.7286187,26.6155556 63.1674312,26.6822222 63.5839312,26.8007407 C64.0004312,26.9266667 64.3574312,27.1118519 64.6698062,27.3562963 C64.9821812,27.6007407 65.2201812,27.897037 65.3986812,28.2525926 C65.5771812,28.6081481 65.6664312,29.022963 65.6664312,29.497037 C65.6664312,29.9859259 65.5771812,30.4081481 65.3912437,30.7711111 C65.2053062,31.1340741 64.9598687,31.4303704 64.6549312,31.6674074 C64.3425562,31.9118519 63.9781187,32.0896296 63.5616187,32.2081481 C63.1376812,32.3340741 62.6988687,32.3933333 62.2377437,32.3933333 C62.1410562,32.3933333 61.9551187,32.3785185 61.6873687,32.3488889 C61.4196187,32.3192593 61.1221187,32.2377778 60.7948687,32.1044444 C60.4676187,31.9711111 60.1329312,31.7622222 59.7982437,31.4748148 C59.4635562,31.1859259 59.1853937,30.7933333 58.9652437,30.2948148 C58.9206187,30.1985185 58.8945875,30.0725926 58.8945875,29.9303704 C58.8945875,29.6637037 58.9890437,29.4318519 59.1772125,29.2340741 C59.3653812,29.0414815 59.60115,28.9451852 59.8800562,28.9451852 C60.0883062,28.9451852 60.270525,29.0014815 60.4304312,29.1155556 C60.5866187,29.2266667 60.7004125,29.3748148 60.7740437,29.5451852 C60.9004812,29.8266667 61.1012937,30.0414815 61.3987937,30.1940741 C61.6888562,30.3496296 61.9833812,30.4237037 62.2764187,30.4237037 C62.6631687,30.4237037 63.0023187,30.36 63.2879187,30.2311111 C63.5742625,30.1051852 63.7192937,29.8607407 63.7192937,29.5081481 C63.7192937,29.1555556 63.5779812,28.9081481 63.3065125,28.7822222 C63.031325,28.6562963 62.6892,28.5896296 62.2779062,28.5896296 C61.8167812,28.5896296 61.3854062,28.5451852 60.9912187,28.4562963 C60.5970312,28.3622222 60.2549062,28.2133333 59.9685625,28.0059259 C59.6859375,27.7985185 59.4628125,27.517037 59.306625,27.1688889 C59.1474625,26.8207407 59.068625,26.3911111 59.068625,25.88 L59.0173062,25.8822222 Z" id="Shape"></path>
            </g>
        </g>
    </g>
</svg>